<?xml version="1.0" encoding="UTF-8" standalone="no"?>
<svg width="100px" height="72px" viewBox="0 0 100 72" version="1.1" xmlns="http://www.w3.org/2000/svg" xmlns:xlink="http://www.w3.org/1999/xlink">
    <!-- Generator: Sketch 3.6.1 (26313) - http://www.bohemiancoding.com/sketch -->
    <title>ASB</title>
    <desc>Created with Sketch.</desc>
    <defs></defs>
    <g id="Page-1" stroke="none" stroke-width="1" fill="none" fill-rule="evenodd">
        <g id="ASB">
            <path d="M14,15.18 C14,16.7 15.17,17.54 16.79,17.54 C18.21,17.54 19.28,16.87 19.28,15.63 C19.28,14.61 18.7,14.02 17.46,13.79 L16.3,13.58 C15.73,13.47 15.4,13.31 15.4,12.85 C15.4,12.31 15.82,11.98 16.56,11.98 C17.42,11.98 17.98,12.43 18.02,13.29 L19.17,13.25 C19.15,11.85 18.22,11 16.57,11 C15.1,11 14.17,11.76 14.17,12.94 C14.17,13.98 14.85,14.52 15.83,14.7 L17.03,14.92 C17.69,15.05 18.07,15.23 18.07,15.71 C18.07,16.24 17.57,16.55 16.79,16.55 C15.91,16.55 15.2,16.11 15.15,15.13 L14,15.18 Z M23.5933334,17.54 C25.1033334,17.54 26.3033334,16.81 26.3033334,14.97 L26.3033334,11.12 L25.0533334,11.12 L25.0533334,14.85 C25.0533334,15.93 24.5933334,16.49 23.5933334,16.49 C22.6033334,16.49 22.1433334,15.93 22.1433334,14.84 L22.1433334,11.12 L20.9033334,11.12 L20.9033334,14.97 C20.9033334,16.81 22.0833334,17.54 23.5933334,17.54 L23.5933334,17.54 Z M29.4066667,14.23 L29.4066667,12.13 L30.6366667,12.13 C31.5766667,12.13 31.9866667,12.51 31.9866667,13.19 C31.9866667,13.87 31.5766667,14.23 30.6366667,14.23 L29.4066667,14.23 Z M29.4066667,15.25 L30.6766667,15.25 C32.2866667,15.25 33.2066667,14.49 33.2066667,13.18 C33.2066667,11.87 32.2866667,11.12 30.6766667,11.12 L28.1666667,11.12 L28.1666667,17.42 L29.4066667,17.42 L29.4066667,15.25 Z M35.9700001,14.23 L35.9700001,12.13 L37.2000001,12.13 C38.1400001,12.13 38.5500001,12.51 38.5500001,13.19 C38.5500001,13.87 38.1400001,14.23 37.2000001,14.23 L35.9700001,14.23 Z M35.9700001,15.25 L37.2400001,15.25 C38.8500001,15.25 39.7700001,14.49 39.7700001,13.18 C39.7700001,11.87 38.8500001,11.12 37.2400001,11.12 L34.7300001,11.12 L34.7300001,17.42 L35.9700001,17.42 L35.9700001,15.25 Z M47.4233335,14.27 C47.4233335,12.33 46.0633335,11 44.2333335,11 C42.3933335,11 41.0333335,12.33 41.0333335,14.27 C41.0333335,16.21 42.3933335,17.54 44.2333335,17.54 C46.0633335,17.54 47.4233335,16.21 47.4233335,14.27 L47.4233335,14.27 Z M46.1333335,14.27 C46.1333335,15.59 45.3933335,16.44 44.2333335,16.44 C43.0733335,16.44 42.3333335,15.59 42.3333335,14.27 C42.3333335,12.95 43.0733335,12.1 44.2333335,12.1 C45.3933335,12.1 46.1333335,12.95 46.1333335,14.27 L46.1333335,14.27 Z M54.4066669,17.42 C54.1966669,17.19 54.1666669,16.87 54.0866669,15.94 C54.0166669,15.2 53.6466669,14.78 52.9266669,14.64 C53.6966669,14.54 54.3166669,13.99 54.3166669,13.04 C54.3166669,11.87 53.5266669,11.12 51.9166669,11.12 L49.0666669,11.12 L49.0666669,17.42 L50.2966669,17.42 L50.2966669,15.09 L51.7766669,15.09 C52.4966669,15.09 52.8166669,15.41 52.8666669,16.12 C52.9166669,16.82 52.9966669,17.25 53.1266669,17.42 L54.4066669,17.42 Z M50.2966669,14.11 L50.2966669,12.13 L51.7466669,12.13 C52.6566669,12.13 53.0766669,12.5 53.0766669,13.13 C53.0766669,13.81 52.6566669,14.11 51.7466669,14.11 L50.2966669,14.11 Z M59.0700002,17.42 L59.0700002,12.16 L61.3300002,12.16 L61.3300002,11.12 L55.5900002,11.12 L55.5900002,12.16 L57.8200002,12.16 L57.8200002,17.42 L59.0700002,17.42 Z M67.6533336,16.38 L64.1733336,16.38 L64.1733336,14.72 L66.8333336,14.72 L66.8333336,13.69 L64.1733336,13.69 L64.1733336,12.16 L67.5633336,12.16 L67.5633336,11.12 L62.9433336,11.12 L62.9433336,17.42 L67.6533336,17.42 L67.6533336,16.38 Z M70.616667,16.42 L70.616667,12.12 L71.666667,12.12 C72.996667,12.12 73.746667,12.92 73.746667,14.26 C73.746667,15.62 72.996667,16.42 71.666667,16.42 L70.616667,16.42 Z M69.366667,17.42 L71.746667,17.42 C73.776667,17.42 75.036667,16.24 75.036667,14.27 C75.036667,12.3 73.776667,11.12 71.746667,11.12 L69.366667,11.12 L69.366667,17.42 Z M84.5833337,15.69 C84.5833337,14.79 83.9933337,14.29 83.2333337,14.15 C83.9133337,14.04 84.3933337,13.54 84.3933337,12.83 C84.3933337,11.8 83.7133337,11.12 82.1233337,11.12 L79.3233337,11.12 L79.3233337,17.42 L82.2833337,17.42 C83.7533337,17.42 84.5833337,16.78 84.5833337,15.69 L84.5833337,15.69 Z M82.1433337,14.69 C82.9233337,14.69 83.3033337,15.03 83.3033337,15.56 C83.3033337,16.08 82.9233337,16.41 82.1433337,16.41 L80.5433337,16.41 L80.5433337,14.69 L82.1433337,14.69 Z M80.5433337,12.13 L82.0433337,12.13 C82.7933337,12.13 83.1133337,12.47 83.1133337,12.94 C83.1133337,13.41 82.7933337,13.74 82.0433337,13.74 L80.5433337,13.74 L80.5433337,12.13 Z M88.5366671,13.79 L86.8266671,11.12 L85.4366671,11.12 L87.8766671,14.99 L87.8766671,17.42 L89.0966671,17.42 L89.0966671,14.99 L91.5366671,11.12 L90.1866671,11.12 L88.5366671,13.79 Z" id="SUPPORTED-BY" fill="#FFFFFF"></path>
            <g id="Group" transform="translate(0.000000, 28.000000)">
                <path d="M13.6042044,0 L98,0 L84.3957956,33.2220555 L0,33.2220555 L13.6042044,0 Z" id="Rectangle-1" fill="#262626"></path>
                <path d="M46.5035232,15.7576247 L53.3822815,15.7576247 C55.5955783,15.7576247 57.3849377,17.2548354 57.3849377,19.0960722 L57.3849377,20.9233766 C57.3849377,22.7656852 55.5955783,24.2628958 53.3822815,24.2628958 L45.3436137,24.2628958 C41.9026206,24.2628958 40.5845416,22.4902498 40.498463,20.70903 C40.496311,20.5439832 40.4425119,20.1613746 41.0343024,20.1613746 L45.0574023,20.1613746 C45.0692381,20.9201614 45.6513448,21.2599006 46.519663,21.2599006 L51.3594338,21.2599006 C52.2352838,21.2599006 52.8173906,20.913731 52.8173906,20.1410117 C52.8173906,19.237541 52.2352838,19.0264096 51.3594338,19.0264096 L45.2467753,19.0264096 C41.815466,19.0264096 40.5748578,17.1980335 40.5748578,15.4200289 L40.5748578,14.0932238 C40.5748578,12.3184343 42.3018102,10.8780255 44.4322563,10.8780255 L52.9949277,10.8780255 C55.1027781,10.8780255 56.8178948,12.2927128 56.8480223,14.048211 C56.8480223,14.2722031 56.9233411,14.5969382 56.3057269,14.5969382 L52.2212961,14.5969382 C52.2191441,14.5637145 52.2169921,14.5304907 52.2116122,14.4994105 C52.2105362,14.481191 52.2073083,14.4661868 52.2040803,14.449039 C52.1050899,13.8992401 51.6886845,13.7202608 51.0441708,13.7202608 L46.5035232,13.7202608 C45.7546392,13.7202608 45.3177901,13.956042 45.3177901,14.7319765 C45.3177901,15.4854046 45.7546392,15.7576247 46.5035232,15.7576247 L46.5035232,15.7576247 Z M19.8202247,11.4267527 L19.8202247,18.1711669 C19.8202247,18.4605347 19.9740903,18.3855134 20.0730807,18.1936733 C20.1214999,18.0961456 22.9287392,12.9303937 23.7970573,11.3431576 C23.9358591,11.08487 23.7830695,10.8780255 23.4936301,10.8780255 L20.3592921,10.8780255 C20.0182056,10.8780255 19.8202247,11.1298827 19.8202247,11.4267527 L19.8202247,11.4267527 Z M64.7080769,18.9395993 L64.7080769,21.2599006 L70.9659932,21.2599006 C71.8386152,21.2599006 72.4228739,20.9030136 72.4228739,20.1324378 C72.4228739,19.2300388 71.8386152,18.9395993 70.9659932,18.9395993 L64.7080769,18.9395993 Z M64.7080769,13.7202608 L64.7080769,15.8455068 L70.8734586,15.8433633 C71.6223427,15.8433633 72.0581157,15.5368478 72.0581157,14.7802045 C72.0581157,14.0053417 71.6223427,13.7202608 70.8734586,13.7202608 L64.7080769,13.7202608 Z M60.1512896,23.7591814 L60.1512896,11.3860269 C60.1512896,11.1105915 60.37617,10.8780255 60.6559256,10.8780255 L71.8084877,10.8780255 C75.0385882,10.8780255 76.6062952,11.6496731 76.6062952,14.372946 C76.6062952,16.3481495 75.9499457,16.9472481 75.0052327,17.2944895 C74.8050999,17.3620087 74.8223157,17.5184816 75.0052327,17.5538488 C76.5116087,17.8292841 77.0786517,18.615936 77.0786517,20.5814938 C77.0786517,23.5094677 75.365687,24.2628958 73.0490959,24.2628958 L60.6516216,24.2628958 C60.3535744,24.2628958 60.1512896,24.0131821 60.1512896,23.7591814 L60.1512896,23.7591814 Z M39.0254425,24.2628958 L35.0550658,24.2628958 L33.7940139,21.8965099 L25.5519853,21.8965099 L24.3630243,24.2628958 L20.368976,24.2628958 C20.1258038,24.2628958 19.9084553,24.097849 20.0687768,23.7999073 C21.2964732,21.5074709 26.6817673,11.4642634 26.7334145,11.3678074 C26.888356,11.0902286 26.9841185,10.8780255 27.452171,10.8780255 L31.842181,10.8780255 C32.3296012,10.8780255 32.4027681,11.0902286 32.5620135,11.3699509 C32.6061288,11.4514026 38.0721217,21.4956819 39.3256417,23.7956203 C39.4902671,24.0914186 39.2729185,24.2628958 39.0254425,24.2628958 L39.0254425,24.2628958 Z M34.2760542,15.4307462 L27.5985047,15.4307462 C27.3047614,15.4307462 27.0572853,15.6333037 27.0572853,15.9741147 L27.0572853,19.1400133 C27.0572853,19.4325963 27.2606461,19.5869258 27.515654,19.4465288 C29.0887409,18.5709232 34.2007354,15.7361901 34.2986498,15.6868904 C34.4880228,15.5861475 34.5644176,15.4307462 34.2760542,15.4307462 L34.2760542,15.4307462 Z" id="Fill-366" fill="#F9C002"></path>
            </g>
        </g>
    </g>
</svg>