<?xml version="1.0" encoding="UTF-8" standalone="no"?>
<svg width="324px" height="29px" viewBox="0 0 324 29" version="1.1" xmlns="http://www.w3.org/2000/svg" xmlns:xlink="http://www.w3.org/1999/xlink">
    <!-- Generator: Sketch 3.6.1 (26313) - http://www.bohemiancoding.com/sketch -->
    <title>back-to-bf-small</title>
    <desc>Created with Sketch.</desc>
    <defs>
        <filter x="-50%" y="-50%" width="200%" height="200%" filterUnits="objectBoundingBox" id="filter-1">
            <feMorphology radius="1" in="SourceAlpha" operator="dilate" result="shadowSpreadInner1"></feMorphology>
            <feOffset dx="0" dy="0" in="shadowSpreadInner1" result="shadowOffsetInner1"></feOffset>
            <feGaussianBlur stdDeviation="0" in="shadowOffsetInner1" result="shadowBlurInner1"></feGaussianBlur>
            <feComposite in="shadowBlurInner1" in2="SourceAlpha" operator="arithmetic" k2="-1" k3="1" result="shadowInnerInner1"></feComposite>
            <feColorMatrix values="0 0 0 0 0.125377975   0 0 0 0 0.226088105   0 0 0 0 0.764668367  0 0 0 0.367674366 0" in="shadowInnerInner1" type="matrix" result="shadowMatrixInner1"></feColorMatrix>
            <feMerge>
                <feMergeNode in="SourceGraphic"></feMergeNode>
                <feMergeNode in="shadowMatrixInner1"></feMergeNode>
            </feMerge>
        </filter>
    </defs>
    <g id="Page-1" stroke="none" stroke-width="1" fill="none" fill-rule="evenodd">
        <g id="back-to-bf-small">
            <path d="M16.0833448,19.7499902 C14.0325636,19.7499902 12.0403761,21.2499902 9.70834481,21.2499902 C8.40756356,21.2499902 7.55209481,20.6757714 7.55209481,19.2929589 C7.55209481,19.0703027 7.56381356,18.8476464 7.59896981,18.6367089 C7.10678231,18.3671777 6.83725106,17.6992089 6.83725106,17.1601464 C6.83725106,16.8788964 6.90756356,16.5976464 7.04818856,16.3515527 C6.64975106,15.9765527 6.42709481,15.5078027 6.42709481,14.9570214 C6.42709481,14.5820214 6.59115731,14.0312402 6.83725106,13.7499902 L2.95834481,13.7499902 C2.14975106,13.7499902 1.45834481,13.0585839 1.45834481,12.2499902 C1.45834481,11.4531152 2.17318856,10.7499902 2.95834481,10.7499902 L9.70834481,10.7499902 C9.70834481,10.0117089 8.58334481,9.24999017 8.58334481,7.74999017 C8.58334481,6.62499017 9.46225106,6.24999017 10.4583448,6.24999017 C10.7747511,6.24999017 11.3606886,7.57420892 11.5013136,7.84374017 C11.6419386,8.11327142 11.7825636,8.38280267 11.9466261,8.64061517 C12.3333448,9.26170892 12.7786573,9.80077142 13.2591261,10.3398339 C14.0091261,11.1953027 14.8411573,12.2499902 16.0833448,12.2499902 L16.4583448,12.2499902 L16.4583448,19.7499902 L16.0833448,19.7499902 Z M19.4583448,18.9999902 C19.4583448,19.4101464 19.1185011,19.7499902 18.7083448,19.7499902 C18.2981886,19.7499902 17.9583448,19.4101464 17.9583448,18.9999902 C17.9583448,18.5898339 18.2981886,18.2499902 18.7083448,18.2499902 C19.1185011,18.2499902 19.4583448,18.5898339 19.4583448,18.9999902 L19.4583448,18.9999902 Z M20.9583448,12.2499902 C20.9583448,11.4179589 20.2903761,10.7499902 19.4583448,10.7499902 L16.0833448,10.7499902 C15.5208448,10.7499902 14.7239698,9.74217767 14.3841261,9.35545892 C13.9622511,8.87499017 13.5638136,8.39452142 13.2122511,7.84374017 C12.5325636,6.75389642 12.0286573,4.74999017 10.4583448,4.74999017 C8.59506356,4.74999017 7.08334481,5.76952142 7.08334481,7.74999017 C7.08334481,8.26561517 7.16537606,8.76952142 7.34115731,9.24999017 L2.95834481,9.24999017 C1.34115731,9.24999017 -0.0416551928,10.6210839 -0.0416551928,12.2382714 C-0.0416551928,13.8788964 1.31771981,15.2499902 2.95834481,15.2499902 L4.93881356,15.2499902 C4.97396981,15.7421777 5.12631356,16.2109277 5.37240731,16.6445214 C5.34896981,16.8085839 5.33725106,16.9843652 5.33725106,17.1484277 C5.33725106,17.8984277 5.58334481,18.6484277 6.05209481,19.2343652 L6.04037606,19.2929589 C6.02865731,21.5312402 7.59896981,22.7499902 9.75521981,22.7499902 C11.0442823,22.7499902 12.2747511,22.3749902 13.4700636,21.9413964 C14.1849073,21.6835839 15.3450636,21.2499902 16.0833448,21.2499902 L19.4583448,21.2499902 C20.2903761,21.2499902 20.9583448,20.5820214 20.9583448,19.7499902 L20.9583448,12.2499902 Z" id="-Back-to" fill="#FFFFFF"></path>
            <g id="Group" transform="translate(20.000000, 2.000000)">
                <g id="Group-Copy">
                    <path d="M14.3275777,0 L0,25.2009406 L170.435163,25.2009406 L184.763689,0 L14.3275777,0 Z" id="Fill-338" fill="#5E75F0" filter="url(#filter-1)"></path>
                    <path d="M185.723741,4.29676044 L174.010048,25.2009406 L288.781926,25.2009406 L300.495619,4.29676044 L185.723741,4.29676044 Z" id="Fill-354" fill="#262626"></path>
                    <g id="Group-2" transform="translate(189.100865, 9.533333)">
                        <path d="M77.918801,3.70190606 L82.2460306,3.70190606 C83.6383522,3.70190606 84.7639869,4.64665566 84.7639869,5.80848803 L84.7639869,6.96152888 C84.7639869,8.12403752 83.6383522,9.06878712 82.2460306,9.06878712 L77.1891352,9.06878712 C75.0245051,9.06878712 74.1953394,7.95023605 74.1411898,6.82627482 C74.139836,6.7221292 74.1059925,6.4807007 74.478271,6.4807007 L77.0090878,6.4807007 C77.0165333,6.95950007 77.38272,7.17387775 77.928954,7.17387775 L80.9735151,7.17387775 C81.5244873,7.17387775 81.8906739,6.95544245 81.8906739,6.46785157 C81.8906739,5.89775571 81.5244873,5.76453046 80.9735151,5.76453046 L77.1282169,5.76453046 C74.9696786,5.76453046 74.1892475,4.61081333 74.1892475,3.48888091 L74.1892475,2.65165829 C74.1892475,1.53175468 75.2756238,0.6228474 76.6158263,0.6228474 L82.0023575,0.6228474 C83.3283457,0.6228474 84.4072764,1.51552419 84.4262288,2.62325493 C84.4262288,2.76459543 84.4736097,2.96950533 84.0850863,2.96950533 L81.515688,2.96950533 C81.5143342,2.94854095 81.5129805,2.92757657 81.5095961,2.90796473 C81.5089193,2.89646813 81.5068886,2.88700035 81.504858,2.87618003 C81.442586,2.52925336 81.1806373,2.41631622 80.7751922,2.41631622 L77.918801,2.41631622 C77.4476995,2.41631622 77.1728903,2.56509569 77.1728903,3.05471538 C77.1728903,3.5301334 77.4476995,3.70190606 77.918801,3.70190606 L77.918801,3.70190606 Z M61.1331029,0.969097791 L61.1331029,5.22486676 C61.1331029,5.40745974 61.2298953,5.36012082 61.2921673,5.23906844 C61.3226265,5.17752784 63.0885802,1.91790502 63.6348143,0.916348708 C63.7221305,0.753367567 63.6260149,0.6228474 63.4439369,0.6228474 L61.4722147,0.6228474 C61.257647,0.6228474 61.1331029,0.781770919 61.1331029,0.969097791 L61.1331029,0.969097791 Z M89.3707638,5.70975256 L89.3707638,7.17387775 L93.3074395,7.17387775 C93.8563811,7.17387775 94.2239214,6.94867975 94.2239214,6.4624414 C94.2239214,5.89302181 93.8563811,5.70975256 93.3074395,5.70975256 L89.3707638,5.70975256 Z M89.3707638,2.41631622 L89.3707638,3.75736022 L93.2492287,3.75600768 C93.7203302,3.75600768 93.9944625,3.56259438 93.9944625,3.08514755 C93.9944625,2.59620412 93.7203302,2.41631622 93.2492287,2.41631622 L89.3707638,2.41631622 Z M86.5042196,8.75094008 L86.5042196,0.94339952 C86.5042196,0.769598054 86.6456854,0.6228474 86.8216716,0.6228474 L93.8374287,0.6228474 C95.8693923,0.6228474 96.8555918,1.10976201 96.8555918,2.82816483 C96.8555918,4.07453099 96.4427012,4.45256608 95.8484093,4.67167766 C95.7225115,4.71428269 95.7333414,4.81301815 95.8484093,4.83533507 C96.7960273,5.00913654 97.1527378,5.50551893 97.1527378,6.74579866 C97.1527378,8.5933691 96.0751608,9.06878712 94.6178598,9.06878712 L86.8189641,9.06878712 C86.6314711,9.06878712 86.5042196,8.91121614 86.5042196,8.75094008 L86.5042196,8.75094008 Z M73.2145548,9.06878712 L70.7169046,9.06878712 L69.923613,7.57558231 L64.7387892,7.57558231 L63.9908479,9.06878712 L61.4783066,9.06878712 C61.325334,9.06878712 61.1886062,8.9646415 61.2894598,8.77663835 C62.0617685,7.33009619 65.4495026,0.992767252 65.4819924,0.931902925 C65.5794616,0.756748918 65.6397031,0.6228474 65.9341415,0.6228474 L68.6957709,0.6228474 C69.002393,0.6228474 69.0484202,0.756748918 69.1485969,0.933255466 C69.1763486,0.984652008 72.614848,7.32265722 73.4034015,8.77393327 C73.5069626,8.96058388 73.3702349,9.06878712 73.2145548,9.06878712 L73.2145548,9.06878712 Z M70.2268508,3.49564362 L66.0261958,3.49564362 C65.8414103,3.49564362 65.6857302,3.6234587 65.6857302,3.83851266 L65.6857302,5.83621511 C65.6857302,6.0208369 65.8136587,6.11821982 65.9740768,6.02962841 C66.9636607,5.47711558 70.1794699,3.68838065 70.2410651,3.65727222 C70.3601942,3.59370281 70.4082519,3.49564362 70.2268508,3.49564362 L70.2268508,3.49564362 Z" id="Fill-366" fill="#F9C002"></path>
                        <path d="M0.163945245,6.91946667 C0.163945245,8.10506667 1.07735447,8.76026667 2.34207493,8.76026667 C3.45065706,8.76026667 4.28599712,8.23766667 4.28599712,7.27046667 C4.28599712,6.47486667 3.83319597,6.01466667 2.86513833,5.83526667 L1.95953602,5.67146667 C1.51454179,5.58566667 1.25691354,5.46086667 1.25691354,5.10206667 C1.25691354,4.68086667 1.58480403,4.42346667 2.16251585,4.42346667 C2.83391066,4.42346667 3.27109798,4.77446667 3.30232565,5.44526667 L4.20012104,5.41406667 C4.1845072,4.32206667 3.45846398,3.65906667 2.17032277,3.65906667 C1.02270605,3.65906667 0.296662824,4.25186667 0.296662824,5.17226667 C0.296662824,5.98346667 0.827533141,6.40466667 1.59261095,6.54506667 L2.52944092,6.71666667 C3.04469741,6.81806667 3.34136023,6.95846667 3.34136023,7.33286667 C3.34136023,7.74626667 2.95101441,7.98806667 2.34207493,7.98806667 C1.65506628,7.98806667 1.10077522,7.64486667 1.06174063,6.88046667 L0.163945245,6.91946667 Z M7.19797694,8.76026667 C8.37682132,8.76026667 9.31365129,8.19086667 9.31365129,6.75566667 L9.31365129,3.75266667 L8.33778674,3.75266667 L8.33778674,6.66206667 C8.33778674,7.50446667 7.97866858,7.94126667 7.19797694,7.94126667 C6.42509221,7.94126667 6.06597406,7.50446667 6.06597406,6.65426667 L6.06597406,3.75266667 L5.09791642,3.75266667 L5.09791642,6.75566667 C5.09791642,8.19086667 6.01913256,8.76026667 7.19797694,8.76026667 L7.19797694,8.76026667 Z M11.2809942,6.17846667 L11.2809942,4.54046667 L12.2412449,4.54046667 C12.9750951,4.54046667 13.2951787,4.83686667 13.2951787,5.36726667 C13.2951787,5.89766667 12.9750951,6.17846667 12.2412449,6.17846667 L11.2809942,6.17846667 Z M11.2809942,6.97406667 L12.2724726,6.97406667 C13.5293862,6.97406667 14.2476225,6.38126667 14.2476225,5.35946667 C14.2476225,4.33766667 13.5293862,3.75266667 12.2724726,3.75266667 L10.3129366,3.75266667 L10.3129366,8.66666667 L11.2809942,8.66666667 L11.2809942,6.97406667 Z M15.9495302,6.17846667 L15.9495302,4.54046667 L16.909781,4.54046667 C17.6436311,4.54046667 17.9637147,4.83686667 17.9637147,5.36726667 C17.9637147,5.89766667 17.6436311,6.17846667 16.909781,6.17846667 L15.9495302,6.17846667 Z M15.9495302,6.97406667 L16.9410086,6.97406667 C18.1979222,6.97406667 18.9161585,6.38126667 18.9161585,5.35946667 C18.9161585,4.33766667 18.1979222,3.75266667 16.9410086,3.75266667 L14.9814726,3.75266667 L14.9814726,8.66666667 L15.9495302,8.66666667 L15.9495302,6.97406667 Z M24.4356484,6.20966667 C24.4356484,4.69646667 23.3739078,3.65906667 21.9452421,3.65906667 C20.5087694,3.65906667 19.4470288,4.69646667 19.4470288,6.20966667 C19.4470288,7.72286667 20.5087694,8.76026667 21.9452421,8.76026667 C23.3739078,8.76026667 24.4356484,7.72286667 24.4356484,6.20966667 L24.4356484,6.20966667 Z M23.4285562,6.20966667 C23.4285562,7.23926667 22.8508444,7.90226667 21.9452421,7.90226667 C21.0396397,7.90226667 20.4619279,7.23926667 20.4619279,6.20966667 C20.4619279,5.18006667 21.0396397,4.51706667 21.9452421,4.51706667 C22.8508444,4.51706667 23.4285562,5.18006667 23.4285562,6.20966667 L23.4285562,6.20966667 Z M29.4320749,8.66666667 C29.2681297,8.48726667 29.2447089,8.23766667 29.1822536,7.51226667 C29.1276052,6.93506667 28.8387493,6.60746667 28.2766513,6.49826667 C28.8777838,6.42026667 29.3618127,5.99126667 29.3618127,5.25026667 C29.3618127,4.33766667 28.7450663,3.75266667 27.4881527,3.75266667 L25.2631815,3.75266667 L25.2631815,8.66666667 L26.2234323,8.66666667 L26.2234323,6.84926667 L27.3788559,6.84926667 C27.9409539,6.84926667 28.1907752,7.09886667 28.2298098,7.65266667 C28.2688444,8.19866667 28.3312997,8.53406667 28.4327896,8.66666667 L29.4320749,8.66666667 Z M26.2234323,6.08486667 L26.2234323,4.54046667 L27.3554351,4.54046667 C28.0658645,4.54046667 28.393755,4.82906667 28.393755,5.32046667 C28.393755,5.85086667 28.0658645,6.08486667 27.3554351,6.08486667 L26.2234323,6.08486667 Z M32.6172968,8.66666667 L32.6172968,4.56386667 L34.3816599,4.56386667 L34.3816599,3.75266667 L29.9004899,3.75266667 L29.9004899,4.56386667 L31.6414322,4.56386667 L31.6414322,8.66666667 L32.6172968,8.66666667 Z M38.8628299,7.85546667 L36.146023,7.85546667 L36.146023,6.56066667 L38.2226628,6.56066667 L38.2226628,5.75726667 L36.146023,5.75726667 L36.146023,4.56386667 L38.7925677,4.56386667 L38.7925677,3.75266667 L35.1857723,3.75266667 L35.1857723,8.66666667 L38.8628299,8.66666667 L38.8628299,7.85546667 Z M40.720876,7.88666667 L40.720876,4.53266667 L41.5406023,4.53266667 C42.5789221,4.53266667 43.1644409,5.15666667 43.1644409,6.20186667 C43.1644409,7.26266667 42.5789221,7.88666667 41.5406023,7.88666667 L40.720876,7.88666667 Z M39.7450115,8.66666667 L41.6030576,8.66666667 C43.1878616,8.66666667 44.1715331,7.74626667 44.1715331,6.20966667 C44.1715331,4.67306667 43.1878616,3.75266667 41.6030576,3.75266667 L39.7450115,3.75266667 L39.7450115,8.66666667 Z M50.7137291,7.31726667 C50.7137291,6.61526667 50.253121,6.22526667 49.6597953,6.11606667 C50.1906657,6.03026667 50.5653976,5.64026667 50.5653976,5.08646667 C50.5653976,4.28306667 50.0345273,3.75266667 48.7932276,3.75266667 L46.607291,3.75266667 L46.607291,8.66666667 L48.9181383,8.66666667 C50.065755,8.66666667 50.7137291,8.16746667 50.7137291,7.31726667 L50.7137291,7.31726667 Z M48.8088414,6.53726667 C49.4177809,6.53726667 49.7144438,6.80246667 49.7144438,7.21586667 C49.7144438,7.62146667 49.4177809,7.87886667 48.8088414,7.87886667 L47.5597348,7.87886667 L47.5597348,6.53726667 L48.8088414,6.53726667 Z M47.5597348,4.54046667 L48.7307723,4.54046667 C49.316291,4.54046667 49.5661123,4.80566667 49.5661123,5.17226667 C49.5661123,5.53886667 49.316291,5.79626667 48.7307723,5.79626667 L47.5597348,5.79626667 L47.5597348,4.54046667 Z M53.3446599,5.83526667 L52.0096772,3.75266667 L50.9245158,3.75266667 L52.8294034,6.77126667 L52.8294034,8.66666667 L53.7818472,8.66666667 L53.7818472,6.77126667 L55.6867348,3.75266667 L54.6328011,3.75266667 L53.3446599,5.83526667 Z" id="SUPPORTED-BY" fill="#FFFFFF"></path>
                    </g>
                </g>
                <path d="M31.1495965,15.9830667 C31.1495965,14.5790667 30.2127666,13.7834667 29.0105014,13.5806667 C30.0566282,13.3934667 30.8685476,12.6134667 30.8685476,11.4746667 C30.8685476,9.91466667 29.8692622,8.85386667 27.4335043,8.85386667 L23.4207493,8.85386667 L23.4207493,18.6818667 L27.6052565,18.6818667 C29.9004899,18.6818667 31.1495965,17.6834667 31.1495965,15.9830667 L31.1495965,15.9830667 Z M27.5740288,14.1422667 C29.0417291,14.1422667 29.8068069,14.7974667 29.8068069,15.8738667 C29.8068069,16.9346667 29.0417291,17.5742667 27.5740288,17.5742667 L24.7323112,17.5742667 L24.7323112,14.1422667 L27.5740288,14.1422667 Z M24.7323112,9.96146667 L27.4803458,9.96146667 C28.9012046,9.96146667 29.5101441,10.6010667 29.5101441,11.5370667 C29.5101441,12.4886667 28.9012046,13.0970667 27.4803458,13.0970667 L24.7323112,13.0970667 L24.7323112,9.96146667 Z M37.3309395,18.8690667 C39.5481038,18.8690667 41.3280807,17.7926667 41.3280807,14.9222667 L41.3280807,8.85386667 L40.0009049,8.85386667 L40.0009049,14.9534667 C40.0009049,16.8098667 39.0484611,17.7302667 37.3309395,17.7302667 C35.6134179,17.7302667 34.6922018,16.8098667 34.6922018,14.9378667 L34.6922018,8.85386667 L33.3494121,8.85386667 L33.3494121,14.9222667 C33.3494121,17.7926667 35.1137752,18.8690667 37.3309395,18.8690667 L37.3309395,18.8690667 Z M43.3249165,15.1718667 C43.3249165,17.5430667 45.0892796,18.8690667 47.5094237,18.8690667 C49.6329049,18.8690667 51.1942882,17.8238667 51.1942882,16.0142667 C51.1942882,14.4386667 50.2886859,13.6586667 48.4930952,13.3154667 L46.7131182,12.9722667 C45.5733084,12.7538667 44.9331413,12.4418667 44.9331413,11.4746667 C44.9331413,10.3826667 45.7294467,9.71186667 47.1503055,9.71186667 C48.7741441,9.71186667 49.7578156,10.6322667 49.8046571,12.2546667 L51.0381499,12.1922667 C51.0225361,9.97706667 49.6016773,8.66666667 47.1346917,8.66666667 C44.9799828,8.66666667 43.6215793,9.83666667 43.6215793,11.5526667 C43.6215793,13.0814667 44.6208646,13.8614667 46.0729511,14.1422667 L48.0246802,14.5166667 C49.3050145,14.7662667 49.8983401,15.2030667 49.8983401,16.1078667 C49.8983401,17.1842667 48.977124,17.8082667 47.5094237,17.8082667 C45.8543574,17.8082667 44.6208646,16.8878667 44.5427954,15.0938667 L43.3249165,15.1718667 Z M53.5346283,8.85386667 L53.5346283,18.6818667 L54.8930318,18.6818667 L54.8930318,8.85386667 L53.5346283,8.85386667 Z M59.0445765,8.85386667 L57.6393315,8.85386667 L57.6393315,18.6818667 L58.904052,18.6818667 L58.904052,10.7882667 L64.6187148,18.6818667 L65.6960693,18.6818667 L65.6960693,8.85386667 L64.4313488,8.85386667 L64.4313488,16.3730667 L59.0445765,8.85386667 Z M75.45298,17.5586667 L69.753931,17.5586667 L69.753931,14.1734667 L74.1726457,14.1734667 L74.1726457,13.0658667 L69.753931,13.0658667 L69.753931,9.97706667 L75.3124555,9.97706667 L75.3124555,8.85386667 L68.442369,8.85386667 L68.442369,18.6818667 L75.45298,18.6818667 L75.45298,17.5586667 Z M77.0750837,15.1718667 C77.0750837,17.5430667 78.8394468,18.8690667 81.2595909,18.8690667 C83.3830722,18.8690667 84.9444555,17.8238667 84.9444555,16.0142667 C84.9444555,14.4386667 84.0388532,13.6586667 82.2432624,13.3154667 L80.4632855,12.9722667 C79.3234757,12.7538667 78.6833085,12.4418667 78.6833085,11.4746667 C78.6833085,10.3826667 79.479614,9.71186667 80.9004728,9.71186667 C82.5243114,9.71186667 83.5079829,10.6322667 83.5548244,12.2546667 L84.7883172,12.1922667 C84.7727033,9.97706667 83.3518445,8.66666667 80.8848589,8.66666667 C78.73015,8.66666667 77.3717465,9.83666667 77.3717465,11.5526667 C77.3717465,13.0814667 78.3710318,13.8614667 79.8231183,14.1422667 L81.7748474,14.5166667 C83.0551817,14.7662667 83.6485074,15.2030667 83.6485074,16.1078667 C83.6485074,17.1842667 82.7272912,17.8082667 81.2595909,17.8082667 C79.6045246,17.8082667 78.3710318,16.8878667 78.2929627,15.0938667 L77.0750837,15.1718667 Z M86.6758561,15.1718667 C86.6758561,17.5430667 88.4402192,18.8690667 90.8603633,18.8690667 C92.9838446,18.8690667 94.5452278,17.8238667 94.5452278,16.0142667 C94.5452278,14.4386667 93.6396255,13.6586667 91.8440348,13.3154667 L90.0640578,12.9722667 C88.924248,12.7538667 88.2840809,12.4418667 88.2840809,11.4746667 C88.2840809,10.3826667 89.0803863,9.71186667 90.5012451,9.71186667 C92.1250837,9.71186667 93.1087552,10.6322667 93.1555967,12.2546667 L94.3890895,12.1922667 C94.3734757,9.97706667 92.9526169,8.66666667 90.4856313,8.66666667 C88.3309224,8.66666667 86.9725189,9.83666667 86.9725189,11.5526667 C86.9725189,13.0814667 87.9718042,13.8614667 89.4238907,14.1422667 L91.3756198,14.5166667 C92.6559541,14.7662667 93.2492797,15.2030667 93.2492797,16.1078667 C93.2492797,17.1842667 92.3280636,17.8082667 90.8603633,17.8082667 C89.205297,17.8082667 87.9718042,16.8878667 87.893735,15.0938667 L86.6758561,15.1718667 Z M101.88026,18.6818667 L101.88026,14.3606667 L106.095994,14.3606667 L106.095994,13.2374667 L101.88026,13.2374667 L101.88026,9.97706667 L107.251418,9.97706667 L107.251418,8.85386667 L100.53747,8.85386667 L100.53747,18.6818667 L101.88026,18.6818667 Z M109.43562,8.85386667 L109.43562,18.6818667 L110.794023,18.6818667 L110.794023,8.85386667 L109.43562,8.85386667 Z M117.880969,18.8690667 C119.411124,18.8690667 120.800755,18.1826667 121.237943,16.9346667 L121.237943,18.6818667 L122.471435,18.6818667 L122.471435,13.8302667 L118.240087,13.8302667 L118.240087,14.8910667 L121.237943,14.8910667 C121.06619,16.5758667 119.879539,17.7302667 118.037107,17.7302667 C115.913626,17.7302667 114.477153,16.2170667 114.477153,13.7834667 C114.477153,11.3498667 115.898012,9.82106667 117.912196,9.82106667 C119.895153,9.82106667 121.050577,11.0066667 121.159873,12.8006667 L122.455822,12.7226667 C122.284069,10.2110667 120.675845,8.66666667 117.896582,8.66666667 C115.179775,8.66666667 113.087522,10.7414667 113.087522,13.7678667 C113.087522,16.8254667 115.101706,18.8690667 117.880969,18.8690667 L117.880969,18.8690667 Z M128.980669,18.8690667 C131.197833,18.8690667 132.97781,17.7926667 132.97781,14.9222667 L132.97781,8.85386667 L131.650634,8.85386667 L131.650634,14.9534667 C131.650634,16.8098667 130.69819,17.7302667 128.980669,17.7302667 C127.263147,17.7302667 126.341931,16.8098667 126.341931,14.9378667 L126.341931,8.85386667 L124.999142,8.85386667 L124.999142,14.9222667 C124.999142,17.7926667 126.763505,18.8690667 128.980669,18.8690667 L128.980669,18.8690667 Z M143.421729,18.6818667 C143.093839,18.3230667 143.046997,17.7614667 142.922087,16.3262667 C142.828404,15.1718667 142.250692,14.4386667 141.048427,14.2046667 C142.250692,14.0642667 143.281205,13.2686667 143.281205,11.7554667 C143.281205,10.0082667 142.07894,8.85386667 139.580727,8.85386667 L135.583585,8.85386667 L135.583585,18.6818667 L136.910761,18.6818667 L136.910761,14.7194667 L139.690023,14.7194667 C141.032813,14.7194667 141.548069,15.4526667 141.610525,16.5446667 C141.688594,17.6990667 141.829118,18.4166667 142.016484,18.6818667 L143.421729,18.6818667 Z M136.910761,13.6430667 L136.910761,9.96146667 L139.502657,9.96146667 C141.173337,9.96146667 141.922801,10.6790667 141.922801,11.8022667 C141.922801,13.0190667 141.173337,13.6430667 139.502657,13.6430667 L136.910761,13.6430667 Z M152.788294,17.5586667 L147.089245,17.5586667 L147.089245,14.1734667 L151.50796,14.1734667 L151.50796,13.0658667 L147.089245,13.0658667 L147.089245,9.97706667 L152.64777,9.97706667 L152.64777,8.85386667 L145.777683,8.85386667 L145.777683,18.6818667 L152.788294,18.6818667 L152.788294,17.5586667 Z M154.566536,15.1718667 C154.566536,17.5430667 156.3309,18.8690667 158.751044,18.8690667 C160.874525,18.8690667 162.435908,17.8238667 162.435908,16.0142667 C162.435908,14.4386667 161.530306,13.6586667 159.734715,13.3154667 L157.954738,12.9722667 C156.814928,12.7538667 156.174761,12.4418667 156.174761,11.4746667 C156.174761,10.3826667 156.971067,9.71186667 158.391925,9.71186667 C160.015764,9.71186667 160.999436,10.6322667 161.046277,12.2546667 L162.27977,12.1922667 C162.264156,9.97706667 160.843297,8.66666667 158.376312,8.66666667 C156.221603,8.66666667 154.863199,9.83666667 154.863199,11.5526667 C154.863199,13.0814667 155.862485,13.8614667 157.314571,14.1422667 L159.2663,14.5166667 C160.546634,14.7662667 161.13996,15.2030667 161.13996,16.1078667 C161.13996,17.1842667 160.218744,17.8082667 158.751044,17.8082667 C157.095977,17.8082667 155.862485,16.8878667 155.784415,15.0938667 L154.566536,15.1718667 Z" id="BUSINESS-FIGURES-Copy-2" fill="#2F45BD"></path>
                <path d="M30.2821614,15.1164 C30.2821614,13.7124 29.3453314,12.9168 28.1430663,12.714 C29.1891931,12.5268 30.0011124,11.7468 30.0011124,10.608 C30.0011124,9.048 29.0018271,7.9872 26.5660692,7.9872 L22.5533141,7.9872 L22.5533141,17.8152 L26.7378213,17.8152 C29.0330548,17.8152 30.2821614,16.8168 30.2821614,15.1164 L30.2821614,15.1164 Z M26.7065937,13.2756 C28.1742939,13.2756 28.9393718,13.9308 28.9393718,15.0072 C28.9393718,16.068 28.1742939,16.7076 26.7065937,16.7076 L23.8648761,16.7076 L23.8648761,13.2756 L26.7065937,13.2756 Z M23.8648761,9.0948 L26.6129107,9.0948 C28.0337695,9.0948 28.6427089,9.7344 28.6427089,10.6704 C28.6427089,11.622 28.0337695,12.2304 26.6129107,12.2304 L23.8648761,12.2304 L23.8648761,9.0948 Z M36.4635043,18.0024 C38.6806686,18.0024 40.4606456,16.926 40.4606456,14.0556 L40.4606456,7.9872 L39.1334698,7.9872 L39.1334698,14.0868 C39.1334698,15.9432 38.181026,16.8636 36.4635043,16.8636 C34.7459827,16.8636 33.8247666,15.9432 33.8247666,14.0712 L33.8247666,7.9872 L32.481977,7.9872 L32.481977,14.0556 C32.481977,16.926 34.2463401,18.0024 36.4635043,18.0024 L36.4635043,18.0024 Z M42.4574813,14.3052 C42.4574813,16.6764 44.2218444,18.0024 46.6419885,18.0024 C48.7654698,18.0024 50.3268531,16.9572 50.3268531,15.1476 C50.3268531,13.572 49.4212508,12.792 47.62566,12.4488 L45.845683,12.1056 C44.7058732,11.8872 44.0657061,11.5752 44.0657061,10.608 C44.0657061,9.516 44.8620116,8.8452 46.2828704,8.8452 C47.906709,8.8452 48.8903805,9.7656 48.937222,11.388 L50.1707147,11.3256 C50.1551009,9.1104 48.7342421,7.8 46.2672565,7.8 C44.1125476,7.8 42.7541441,8.97 42.7541441,10.686 C42.7541441,12.2148 43.7534294,12.9948 45.2055159,13.2756 L47.157245,13.65 C48.4375793,13.8996 49.0309049,14.3364 49.0309049,15.2412 C49.0309049,16.3176 48.1096888,16.9416 46.6419885,16.9416 C44.9869222,16.9416 43.7534294,16.0212 43.6753603,14.2272 L42.4574813,14.3052 Z M52.6671932,7.9872 L52.6671932,17.8152 L54.0255966,17.8152 L54.0255966,7.9872 L52.6671932,7.9872 Z M58.1771413,7.9872 L56.7718964,7.9872 L56.7718964,17.8152 L58.0366168,17.8152 L58.0366168,9.9216 L63.7512796,17.8152 L64.8286341,17.8152 L64.8286341,7.9872 L63.5639136,7.9872 L63.5639136,15.5064 L58.1771413,7.9872 Z M74.5855448,16.692 L68.8864958,16.692 L68.8864958,13.3068 L73.3052105,13.3068 L73.3052105,12.1992 L68.8864958,12.1992 L68.8864958,9.1104 L74.4450203,9.1104 L74.4450203,7.9872 L67.5749338,7.9872 L67.5749338,17.8152 L74.5855448,17.8152 L74.5855448,16.692 Z M76.2076486,14.3052 C76.2076486,16.6764 77.9720117,18.0024 80.3921558,18.0024 C82.515637,18.0024 84.0770203,16.9572 84.0770203,15.1476 C84.0770203,13.572 83.171418,12.792 81.3758272,12.4488 L79.5958503,12.1056 C78.4560405,11.8872 77.8158733,11.5752 77.8158733,10.608 C77.8158733,9.516 78.6121788,8.8452 80.0330376,8.8452 C81.6568762,8.8452 82.6405477,9.7656 82.6873892,11.388 L83.920882,11.3256 C83.9052682,9.1104 82.4844094,7.8 80.0174238,7.8 C77.8627148,7.8 76.5043114,8.97 76.5043114,10.686 C76.5043114,12.2148 77.5035967,12.9948 78.9556831,13.2756 L80.9074123,13.65 C82.1877465,13.8996 82.7810722,14.3364 82.7810722,15.2412 C82.7810722,16.3176 81.8598561,16.9416 80.3921558,16.9416 C78.7370895,16.9416 77.5035967,16.0212 77.4255275,14.2272 L76.2076486,14.3052 Z M85.8084209,14.3052 C85.8084209,16.6764 87.572784,18.0024 89.9929281,18.0024 C92.1164094,18.0024 93.6777927,16.9572 93.6777927,15.1476 C93.6777927,13.572 92.7721904,12.792 90.9765996,12.4488 L89.1966227,12.1056 C88.0568129,11.8872 87.4166457,11.5752 87.4166457,10.608 C87.4166457,9.516 88.2129512,8.8452 89.63381,8.8452 C91.2576486,8.8452 92.2413201,9.7656 92.2881616,11.388 L93.5216544,11.3256 C93.5060405,9.1104 92.0851817,7.8 89.6181961,7.8 C87.4634872,7.8 86.1050837,8.97 86.1050837,10.686 C86.1050837,12.2148 87.104369,12.9948 88.5564555,13.2756 L90.5081846,13.65 C91.7885189,13.8996 92.3818446,14.3364 92.3818446,15.2412 C92.3818446,16.3176 91.4606284,16.9416 89.9929281,16.9416 C88.3378618,16.9416 87.104369,16.0212 87.0262999,14.2272 L85.8084209,14.3052 Z M101.012824,17.8152 L101.012824,13.494 L105.228559,13.494 L105.228559,12.3708 L101.012824,12.3708 L101.012824,9.1104 L106.383983,9.1104 L106.383983,7.9872 L99.6700348,7.9872 L99.6700348,17.8152 L101.012824,17.8152 Z M108.568185,7.9872 L108.568185,17.8152 L109.926588,17.8152 L109.926588,7.9872 L108.568185,7.9872 Z M117.013533,18.0024 C118.543689,18.0024 119.93332,17.316 120.370507,16.068 L120.370507,17.8152 L121.604,17.8152 L121.604,12.9636 L117.372652,12.9636 L117.372652,14.0244 L120.370507,14.0244 C120.198755,15.7092 119.012104,16.8636 117.169672,16.8636 C115.04619,16.8636 113.609718,15.3504 113.609718,12.9168 C113.609718,10.4832 115.030577,8.9544 117.044761,8.9544 C119.027718,8.9544 120.183141,10.14 120.292438,11.934 L121.588386,11.856 C121.416634,9.3444 119.808409,7.8 117.029147,7.8 C114.31234,7.8 112.220087,9.8748 112.220087,12.9012 C112.220087,15.9588 114.234271,18.0024 117.013533,18.0024 L117.013533,18.0024 Z M128.113234,18.0024 C130.330398,18.0024 132.110375,16.926 132.110375,14.0556 L132.110375,7.9872 L130.783199,7.9872 L130.783199,14.0868 C130.783199,15.9432 129.830755,16.8636 128.113234,16.8636 C126.395712,16.8636 125.474496,15.9432 125.474496,14.0712 L125.474496,7.9872 L124.131706,7.9872 L124.131706,14.0556 C124.131706,16.926 125.896069,18.0024 128.113234,18.0024 L128.113234,18.0024 Z M142.554294,17.8152 C142.226404,17.4564 142.179562,16.8948 142.054652,15.4596 C141.960969,14.3052 141.383257,13.572 140.180992,13.338 C141.383257,13.1976 142.41377,12.402 142.41377,10.8888 C142.41377,9.1416 141.211505,7.9872 138.713291,7.9872 L134.71615,7.9872 L134.71615,17.8152 L136.043326,17.8152 L136.043326,13.8528 L138.822588,13.8528 C140.165378,13.8528 140.680634,14.586 140.74309,15.678 C140.821159,16.8324 140.961683,17.55 141.149049,17.8152 L142.554294,17.8152 Z M136.043326,12.7764 L136.043326,9.0948 L138.635222,9.0948 C140.305902,9.0948 141.055366,9.8124 141.055366,10.9356 C141.055366,12.1524 140.305902,12.7764 138.635222,12.7764 L136.043326,12.7764 Z M151.920859,16.692 L146.22181,16.692 L146.22181,13.3068 L150.640525,13.3068 L150.640525,12.1992 L146.22181,12.1992 L146.22181,9.1104 L151.780335,9.1104 L151.780335,7.9872 L144.910248,7.9872 L144.910248,17.8152 L151.920859,17.8152 L151.920859,16.692 Z M153.699101,14.3052 C153.699101,16.6764 155.463464,18.0024 157.883608,18.0024 C160.00709,18.0024 161.568473,16.9572 161.568473,15.1476 C161.568473,13.572 160.662871,12.792 158.86728,12.4488 L157.087303,12.1056 C155.947493,11.8872 155.307326,11.5752 155.307326,10.608 C155.307326,9.516 156.103631,8.8452 157.52449,8.8452 C159.148329,8.8452 160.132,9.7656 160.178842,11.388 L161.412335,11.3256 C161.396721,9.1104 159.975862,7.8 157.508876,7.8 C155.354168,7.8 153.995764,8.97 153.995764,10.686 C153.995764,12.2148 154.995049,12.9948 156.447136,13.2756 L158.398865,13.65 C159.679199,13.8996 160.272525,14.3364 160.272525,15.2412 C160.272525,16.3176 159.351309,16.9416 157.883608,16.9416 C156.228542,16.9416 154.995049,16.0212 154.91698,14.2272 L153.699101,14.3052 Z" id="BUSINESS-FIGURES-Copy-3" fill="#FFFFFF"></path>
            </g>
        </g>
    </g>
</svg>