<?xml version="1.0" encoding="UTF-8" standalone="no"?>
<svg width="546px" height="40px" viewBox="0 0 546 40" version="1.1" xmlns="http://www.w3.org/2000/svg" xmlns:xlink="http://www.w3.org/1999/xlink">
    <!-- Generator: Sketch 3.6.1 (26313) - http://www.bohemiancoding.com/sketch -->
    <title>back-to-bf</title>
    <desc>Created with Sketch.</desc>
    <defs>
        <filter x="-50%" y="-50%" width="200%" height="200%" filterUnits="objectBoundingBox" id="filter-1">
            <feMorphology radius="1" in="SourceAlpha" operator="dilate" result="shadowSpreadInner1"></feMorphology>
            <feOffset dx="0" dy="0" in="shadowSpreadInner1" result="shadowOffsetInner1"></feOffset>
            <feGaussianBlur stdDeviation="0" in="shadowOffsetInner1" result="shadowBlurInner1"></feGaussianBlur>
            <feComposite in="shadowBlurInner1" in2="SourceAlpha" operator="arithmetic" k2="-1" k3="1" result="shadowInnerInner1"></feComposite>
            <feColorMatrix values="0 0 0 0 0.130881199   0 0 0 0 0.218966431   0 0 0 0 0.699431335  0 0 0 0.375144361 0" in="shadowInnerInner1" type="matrix" result="shadowMatrixInner1"></feColorMatrix>
            <feMerge>
                <feMergeNode in="SourceGraphic"></feMergeNode>
                <feMergeNode in="shadowMatrixInner1"></feMergeNode>
            </feMerge>
        </filter>
    </defs>
    <g id="Page-1" stroke="none" stroke-width="1" fill="none" fill-rule="evenodd">
        <g id="back-to-bf">
            <g id="Group-2" transform="translate(3.000000, 1.000000)">
                <g id="Business-Figures-Large" transform="translate(101.000000, 0.000000)">
                    <path d="M21.7609855,0 L0,38 L239.240141,38 L261,0 L21.7609855,0 Z" id="Fill-431" fill="#5E75F0" filter="url(#filter-1)"></path>
                    <path d="M261.652077,6.3349 L245.7773,33 L424.126148,33 L440,6.3349 L261.652077,6.3349 Z" id="Fill-447" fill="#262626"></path>
                    <g id="Group" transform="translate(267.000000, 13.000000)">
                        <path d="M122.146387,4.6167969 L128.629582,4.6167969 C130.714203,4.6167969 132.402056,6.03326002 132.402056,7.77507322 L132.402056,9.50339629 C132.402056,11.2483836 130.714203,12.6640532 128.629582,12.6640532 L121.053686,12.6640532 C117.811295,12.6640532 116.568617,10.9865165 116.487676,9.30025088 C116.485295,9.14392414 116.435302,8.78445199 116.993159,8.78445199 L120.783884,8.78445199 C120.794993,9.50022215 121.343327,9.82319161 122.162257,9.82319161 L126.722713,9.82319161 C127.548785,9.82319161 128.097912,9.49546093 128.097912,8.76302649 C128.097912,7.9083874 127.548785,7.70841613 126.722713,7.70841613 L120.96243,7.70841613 C117.729561,7.70841613 116.559094,5.97771245 116.559094,4.29779512 L116.559094,3.04241996 C116.559094,1.36012201 118.188225,0 120.19508,0 L128.263761,0 C130.250778,0 131.867212,1.33710945 131.894986,2.99877543 C131.894986,3.21144329 131.96561,3.51774848 131.385535,3.51774848 L127.535295,3.51774848 C127.533708,3.48680054 127.530533,3.45585261 127.525772,3.42649175 C127.524185,3.4082404 127.521011,3.39554382 127.51863,3.37808601 C127.424993,2.85752589 127.032986,2.68850256 126.42593,2.68850256 L122.146387,2.68850256 C121.440932,2.68850256 121.029087,2.91227993 121.029087,3.64630143 C121.029087,4.35969099 121.440932,4.6167969 122.146387,4.6167969 L122.146387,4.6167969 Z M97,0.518973044 L97,6.89980217 C97,7.17436589 97.1452172,7.10294758 97.238061,6.92122766 C97.2848797,6.82838386 99.9297377,1.94178446 100.748668,0.438032294 C100.878808,0.196797118 100.735178,0 100.462201,0 L97.5078635,0 C97.1872747,0 97,0.238061029 97,0.518973044 L97,0.518973044 Z M139.301858,7.62668185 L139.301858,9.82319161 L145.199423,9.82319161 C146.023114,9.82319161 146.573035,9.48514495 146.573035,8.75509113 C146.573035,7.90124557 146.023114,7.62668185 145.199423,7.62668185 L139.301858,7.62668185 Z M139.301858,2.68850256 L139.301858,4.69932472 L145.112928,4.69773765 C145.819175,4.69773765 146.229434,4.40730319 146.229434,3.69153303 C146.229434,2.95830506 145.819175,2.68850256 145.112928,2.68850256 L139.301858,2.68850256 Z M135.008824,12.1879312 L135.008824,0.478502669 C135.008824,0.219809684 135.219905,0 135.484152,0 L145.994547,0 C149.038554,0 150.514532,0.730053824 150.514532,3.30587416 C150.514532,5.17465324 149.897161,5.7436191 149.007606,6.07055625 C148.817951,6.13403919 148.834615,6.2832241 149.007606,6.31734618 C150.425656,6.57762624 150.9605,7.32117019 150.9605,9.17963329 C150.9605,11.9506637 149.346446,12.6640532 147.163427,12.6640532 L135.480978,12.6640532 C135.198479,12.6640532 135.008824,12.4283728 135.008824,12.1879312 L135.008824,12.1879312 Z M115.098987,12.6640532 L111.359048,12.6640532 L110.169536,10.4223119 L102.402398,10.4223119 L101.281924,12.6640532 L97.517386,12.6640532 C97.2896409,12.6640532 97.0833214,12.5069329 97.2332998,12.2252274 C98.3910699,10.0564914 103.467325,0.554682199 103.514937,0.465012544 C103.661741,0.199971265 103.752204,0 104.192617,0 L108.329324,0 C108.789576,0 108.858613,0.199971265 109.007798,0.466599618 C109.049856,0.54198561 114.201496,10.0445884 115.383073,12.2220532 C115.537019,12.5013782 115.33308,12.6640532 115.098987,12.6640532 L115.098987,12.6640532 Z M110.623439,4.30493695 L104.33228,4.30493695 C104.052955,4.30493695 103.820448,4.49935346 103.820448,4.82152938 L103.820448,7.81713067 C103.820448,8.09486854 104.012484,8.24008576 104.252132,8.10518451 C105.736046,7.27673213 110.553608,4.59695848 110.646452,4.54855274 C110.824204,4.45412186 110.895622,4.30493695 110.623439,4.30493695 L110.623439,4.30493695 Z" id="Fill-459" fill="#F9C002"></path>
                        <path d="M0.252,10.312 C0.252,12.136 1.656,13.144 3.6,13.144 C5.304,13.144 6.588,12.34 6.588,10.852 C6.588,9.628 5.892,8.92 4.404,8.644 L3.012,8.392 C2.328,8.26 1.932,8.068 1.932,7.516 C1.932,6.868 2.436,6.472 3.324,6.472 C4.356,6.472 5.028,7.012 5.076,8.044 L6.456,7.996 C6.432,6.316 5.316,5.296 3.336,5.296 C1.572,5.296 0.456,6.208 0.456,7.624 C0.456,8.872 1.272,9.52 2.448,9.736 L3.888,10 C4.68,10.156 5.136,10.372 5.136,10.948 C5.136,11.584 4.536,11.956 3.6,11.956 C2.544,11.956 1.692,11.428 1.632,10.252 L0.252,10.312 Z M11.064,13.144 C12.876,13.144 14.316,12.268 14.316,10.06 L14.316,5.44 L12.816,5.44 L12.816,9.916 C12.816,11.212 12.264,11.884 11.064,11.884 C9.87600001,11.884 9.32400001,11.212 9.32400001,9.904 L9.32400001,5.44 L7.83600001,5.44 L7.83600001,10.06 C7.83600001,12.268 9.25200001,13.144 11.064,13.144 L11.064,13.144 Z M17.34,9.172 L17.34,6.652 L18.816,6.652 C19.944,6.652 20.436,7.108 20.436,7.924 C20.436,8.74 19.944,9.172 18.816,9.172 L17.34,9.172 Z M17.34,10.396 L18.864,10.396 C20.796,10.396 21.9,9.484 21.9,7.912 C21.9,6.34 20.796,5.44 18.864,5.44 L15.852,5.44 L15.852,13 L17.34,13 L17.34,10.396 Z M24.516,9.172 L24.516,6.652 L25.992,6.652 C27.12,6.652 27.612,7.108 27.612,7.924 C27.612,8.74 27.12,9.172 25.992,9.172 L24.516,9.172 Z M24.516,10.396 L26.04,10.396 C27.972,10.396 29.076,9.484 29.076,7.912 C29.076,6.34 27.972,5.44 26.04,5.44 L23.028,5.44 L23.028,13 L24.516,13 L24.516,10.396 Z M37.56,9.22 C37.56,6.892 35.928,5.296 33.732,5.296 C31.524,5.296 29.892,6.892 29.892,9.22 C29.892,11.548 31.524,13.144 33.732,13.144 C35.928,13.144 37.56,11.548 37.56,9.22 L37.56,9.22 Z M36.012,9.22 C36.012,10.804 35.124,11.824 33.732,11.824 C32.34,11.824 31.452,10.804 31.452,9.22 C31.452,7.636 32.34,6.616 33.732,6.616 C35.124,6.616 36.012,7.636 36.012,9.22 L36.012,9.22 Z M45.2400001,13 C44.9880001,12.724 44.9520001,12.34 44.8560001,11.224 C44.7720001,10.336 44.3280001,9.832 43.4640001,9.664 C44.3880001,9.544 45.1320001,8.884 45.1320001,7.744 C45.1320001,6.34 44.1840001,5.44 42.2520001,5.44 L38.8320001,5.44 L38.8320001,13 L40.3080001,13 L40.3080001,10.204 L42.0840001,10.204 C42.9480001,10.204 43.3320001,10.588 43.3920001,11.44 C43.4520001,12.28 43.5480001,12.796 43.7040001,13 L45.2400001,13 Z M40.3080001,9.028 L40.3080001,6.652 L42.0480001,6.652 C43.1400001,6.652 43.6440001,7.096 43.6440001,7.852 C43.6440001,8.668 43.1400001,9.028 42.0480001,9.028 L40.3080001,9.028 Z M50.1360001,13 L50.1360001,6.688 L52.8480001,6.688 L52.8480001,5.44 L45.9600001,5.44 L45.9600001,6.688 L48.6360001,6.688 L48.6360001,13 L50.1360001,13 Z M59.7360001,11.752 L55.5600001,11.752 L55.5600001,9.76 L58.7520001,9.76 L58.7520001,8.524 L55.5600001,8.524 L55.5600001,6.688 L59.6280001,6.688 L59.6280001,5.44 L54.0840001,5.44 L54.0840001,13 L59.7360001,13 L59.7360001,11.752 Z M62.5920001,11.8 L62.5920001,6.64 L63.8520001,6.64 C65.4480001,6.64 66.3480001,7.6 66.3480001,9.208 C66.3480001,10.84 65.4480001,11.8 63.8520001,11.8 L62.5920001,11.8 Z M61.0920001,13 L63.9480001,13 C66.3840001,13 67.8960001,11.584 67.8960001,9.22 C67.8960001,6.856 66.3840001,5.44 63.9480001,5.44 L61.0920001,5.44 L61.0920001,13 Z M77.9520001,10.924 C77.9520001,9.844 77.2440001,9.244 76.3320001,9.076 C77.1480001,8.944 77.7240001,8.344 77.7240001,7.492 C77.7240001,6.256 76.9080001,5.44 75.0000001,5.44 L71.6400001,5.44 L71.6400001,13 L75.1920001,13 C76.9560001,13 77.9520001,12.232 77.9520001,10.924 L77.9520001,10.924 Z M75.0240001,9.724 C75.9600001,9.724 76.4160001,10.132 76.4160001,10.768 C76.4160001,11.392 75.9600001,11.788 75.0240001,11.788 L73.1040001,11.788 L73.1040001,9.724 L75.0240001,9.724 Z M73.1040001,6.652 L74.9040001,6.652 C75.8040001,6.652 76.1880001,7.06 76.1880001,7.624 C76.1880001,8.188 75.8040001,8.584 74.9040001,8.584 L73.1040001,8.584 L73.1040001,6.652 Z M82.3920001,8.644 L80.3400001,5.44 L78.6720001,5.44 L81.6000001,10.084 L81.6000001,13 L83.0640001,13 L83.0640001,10.084 L85.9920001,5.44 L84.3720001,5.44 L82.3920001,8.644 Z" id="SUPPORTED-BY" fill="#FFFFFF"></path>
                    </g>
                </g>
                <path d="M145.89,22.318 C145.89,20.338 144.57,19.216 142.876,18.93 C144.35,18.666 145.494,17.566 145.494,15.96 C145.494,13.76 144.086,12.264 140.654,12.264 L135,12.264 L135,26.124 L140.896,26.124 C144.13,26.124 145.89,24.716 145.89,22.318 L145.89,22.318 Z M140.852,19.722 C142.92,19.722 143.998,20.646 143.998,22.164 C143.998,23.66 142.92,24.562 140.852,24.562 L136.848,24.562 L136.848,19.722 L140.852,19.722 Z M136.848,13.826 L140.72,13.826 C142.722,13.826 143.58,14.728 143.58,16.048 C143.58,17.39 142.722,18.248 140.72,18.248 L136.848,18.248 L136.848,13.826 Z M154.714,26.388 C157.838,26.388 160.346,24.87 160.346,20.822 L160.346,12.264 L158.476,12.264 L158.476,20.866 C158.476,23.484 157.134,24.782 154.714,24.782 C152.294,24.782 150.996,23.484 150.996,20.844 L150.996,12.264 L149.104,12.264 L149.104,20.822 C149.104,24.87 151.59,26.388 154.714,26.388 L154.714,26.388 Z M163.274,21.174 C163.274,24.518 165.76,26.388 169.17,26.388 C172.162,26.388 174.362,24.914 174.362,22.362 C174.362,20.14 173.086,19.04 170.556,18.556 L168.048,18.072 C166.442,17.764 165.54,17.324 165.54,15.96 C165.54,14.42 166.662,13.474 168.664,13.474 C170.952,13.474 172.338,14.772 172.404,17.06 L174.142,16.972 C174.12,13.848 172.118,12 168.642,12 C165.606,12 163.692,13.65 163.692,16.07 C163.692,18.226 165.1,19.326 167.146,19.722 L169.896,20.25 C171.7,20.602 172.536,21.218 172.536,22.494 C172.536,24.012 171.238,24.892 169.17,24.892 C166.838,24.892 165.1,23.594 164.99,21.064 L163.274,21.174 Z M177.774,12.264 L177.774,26.124 L179.688,26.124 L179.688,12.264 L177.774,12.264 Z M185.652,12.264 L183.672,12.264 L183.672,26.124 L185.454,26.124 L185.454,14.992 L193.506,26.124 L195.024,26.124 L195.024,12.264 L193.242,12.264 L193.242,22.868 L185.652,12.264 Z M208.886,24.54 L200.856,24.54 L200.856,19.766 L207.082,19.766 L207.082,18.204 L200.856,18.204 L200.856,13.848 L208.688,13.848 L208.688,12.264 L199.008,12.264 L199.008,26.124 L208.886,26.124 L208.886,24.54 Z M211.286,21.174 C211.286,24.518 213.772,26.388 217.182,26.388 C220.174,26.388 222.374,24.914 222.374,22.362 C222.374,20.14 221.098,19.04 218.568,18.556 L216.06,18.072 C214.454,17.764 213.552,17.324 213.552,15.96 C213.552,14.42 214.674,13.474 216.676,13.474 C218.964,13.474 220.35,14.772 220.416,17.06 L222.154,16.972 C222.132,13.848 220.13,12 216.654,12 C213.618,12 211.704,13.65 211.704,16.07 C211.704,18.226 213.112,19.326 215.158,19.722 L217.908,20.25 C219.712,20.602 220.548,21.218 220.548,22.494 C220.548,24.012 219.25,24.892 217.182,24.892 C214.85,24.892 213.112,23.594 213.002,21.064 L211.286,21.174 Z M224.928,21.174 C224.928,24.518 227.414,26.388 230.824,26.388 C233.816,26.388 236.016,24.914 236.016,22.362 C236.016,20.14 234.74,19.04 232.21,18.556 L229.702,18.072 C228.096,17.764 227.194,17.324 227.194,15.96 C227.194,14.42 228.316,13.474 230.318,13.474 C232.606,13.474 233.992,14.772 234.058,17.06 L235.796,16.972 C235.774,13.848 233.772,12 230.296,12 C227.26,12 225.346,13.65 225.346,16.07 C225.346,18.226 226.754,19.326 228.8,19.722 L231.55,20.25 C233.354,20.602 234.19,21.218 234.19,22.494 C234.19,24.012 232.892,24.892 230.824,24.892 C228.492,24.892 226.754,23.594 226.644,21.064 L224.928,21.174 Z M246.58,26.124 L246.58,20.03 L252.52,20.03 L252.52,18.446 L246.58,18.446 L246.58,13.848 L254.148,13.848 L254.148,12.264 L244.688,12.264 L244.688,26.124 L246.58,26.124 Z M257.34,12.264 L257.34,26.124 L259.254,26.124 L259.254,12.264 L257.34,12.264 Z M269.353999,26.388 C271.509999,26.388 273.467999,25.42 274.083999,23.66 L274.083999,26.124 L275.821999,26.124 L275.821999,19.282 L269.859999,19.282 L269.859999,20.778 L274.083999,20.778 C273.841999,23.154 272.169999,24.782 269.573999,24.782 C266.581999,24.782 264.557999,22.648 264.557999,19.216 C264.557999,15.784 266.559999,13.628 269.397999,13.628 C272.191999,13.628 273.819999,15.3 273.973999,17.83 L275.799999,17.72 C275.557999,14.178 273.291999,12 269.375999,12 C265.547999,12 262.599999,14.926 262.599999,19.194 C262.599999,23.506 265.437999,26.388 269.353999,26.388 L269.353999,26.388 Z M285.107999,26.388 C288.231999,26.388 290.739999,24.87 290.739999,20.822 L290.739999,12.264 L288.869999,12.264 L288.869999,20.866 C288.869999,23.484 287.527999,24.782 285.107999,24.782 C282.687999,24.782 281.389999,23.484 281.389999,20.844 L281.389999,12.264 L279.497999,12.264 L279.497999,20.822 C279.497999,24.87 281.983999,26.388 285.107999,26.388 L285.107999,26.388 Z M305.569999,26.124 C305.107999,25.618 305.041999,24.826 304.865999,22.802 C304.733999,21.174 303.919999,20.14 302.225999,19.81 C303.919999,19.612 305.371999,18.49 305.371999,16.356 C305.371999,13.892 303.677999,12.264 300.157999,12.264 L294.525999,12.264 L294.525999,26.124 L296.395999,26.124 L296.395999,20.536 L300.311999,20.536 C302.203999,20.536 302.929999,21.57 303.017999,23.11 C303.127999,24.738 303.325999,25.75 303.589999,26.124 L305.569999,26.124 Z M296.395999,19.018 L296.395999,13.826 L300.047999,13.826 C302.401999,13.826 303.457999,14.838 303.457999,16.422 C303.457999,18.138 302.401999,19.018 300.047999,19.018 L296.395999,19.018 Z M318.881999,24.54 L310.851999,24.54 L310.851999,19.766 L317.077999,19.766 L317.077999,18.204 L310.851999,18.204 L310.851999,13.848 L318.683999,13.848 L318.683999,12.264 L309.003999,12.264 L309.003999,26.124 L318.881999,26.124 L318.881999,24.54 Z M321.501999,21.174 C321.501999,24.518 323.987999,26.388 327.397999,26.388 C330.389999,26.388 332.589999,24.914 332.589999,22.362 C332.589999,20.14 331.313999,19.04 328.783999,18.556 L326.275999,18.072 C324.669999,17.764 323.767999,17.324 323.767999,15.96 C323.767999,14.42 324.889999,13.474 326.891999,13.474 C329.179999,13.474 330.565999,14.772 330.631999,17.06 L332.369999,16.972 C332.347999,13.848 330.345999,12 326.869999,12 C323.833999,12 321.919999,13.65 321.919999,16.07 C321.919999,18.226 323.327999,19.326 325.373999,19.722 L328.123999,20.25 C329.927999,20.602 330.763999,21.218 330.763999,22.494 C330.763999,24.012 329.465999,24.892 327.397999,24.892 C325.065999,24.892 323.327999,23.594 323.217999,21.064 L321.501999,21.174 Z" id="BUSINESS-FIGURES" fill="#3147BC"></path>
                <path d="M144.89,21.318 C144.89,19.338 143.57,18.216 141.876,17.93 C143.35,17.666 144.494,16.566 144.494,14.96 C144.494,12.76 143.086,11.264 139.654,11.264 L134,11.264 L134,25.124 L139.896,25.124 C143.13,25.124 144.89,23.716 144.89,21.318 L144.89,21.318 Z M139.852,18.722 C141.92,18.722 142.998,19.646 142.998,21.164 C142.998,22.66 141.92,23.562 139.852,23.562 L135.848,23.562 L135.848,18.722 L139.852,18.722 Z M135.848,12.826 L139.72,12.826 C141.722,12.826 142.58,13.728 142.58,15.048 C142.58,16.39 141.722,17.248 139.72,17.248 L135.848,17.248 L135.848,12.826 Z M153.714,25.388 C156.838,25.388 159.346,23.87 159.346,19.822 L159.346,11.264 L157.476,11.264 L157.476,19.866 C157.476,22.484 156.134,23.782 153.714,23.782 C151.294,23.782 149.996,22.484 149.996,19.844 L149.996,11.264 L148.104,11.264 L148.104,19.822 C148.104,23.87 150.59,25.388 153.714,25.388 L153.714,25.388 Z M162.274,20.174 C162.274,23.518 164.76,25.388 168.17,25.388 C171.162,25.388 173.362,23.914 173.362,21.362 C173.362,19.14 172.086,18.04 169.556,17.556 L167.048,17.072 C165.442,16.764 164.54,16.324 164.54,14.96 C164.54,13.42 165.662,12.474 167.664,12.474 C169.952,12.474 171.338,13.772 171.404,16.06 L173.142,15.972 C173.12,12.848 171.118,11 167.642,11 C164.606,11 162.692,12.65 162.692,15.07 C162.692,17.226 164.1,18.326 166.146,18.722 L168.896,19.25 C170.7,19.602 171.536,20.218 171.536,21.494 C171.536,23.012 170.238,23.892 168.17,23.892 C165.838,23.892 164.1,22.594 163.99,20.064 L162.274,20.174 Z M176.774,11.264 L176.774,25.124 L178.688,25.124 L178.688,11.264 L176.774,11.264 Z M184.652,11.264 L182.672,11.264 L182.672,25.124 L184.454,25.124 L184.454,13.992 L192.506,25.124 L194.024,25.124 L194.024,11.264 L192.242,11.264 L192.242,21.868 L184.652,11.264 Z M207.886,23.54 L199.856,23.54 L199.856,18.766 L206.082,18.766 L206.082,17.204 L199.856,17.204 L199.856,12.848 L207.688,12.848 L207.688,11.264 L198.008,11.264 L198.008,25.124 L207.886,25.124 L207.886,23.54 Z M210.286,20.174 C210.286,23.518 212.772,25.388 216.182,25.388 C219.174,25.388 221.374,23.914 221.374,21.362 C221.374,19.14 220.098,18.04 217.568,17.556 L215.06,17.072 C213.454,16.764 212.552,16.324 212.552,14.96 C212.552,13.42 213.674,12.474 215.676,12.474 C217.964,12.474 219.35,13.772 219.416,16.06 L221.154,15.972 C221.132,12.848 219.13,11 215.654,11 C212.618,11 210.704,12.65 210.704,15.07 C210.704,17.226 212.112,18.326 214.158,18.722 L216.908,19.25 C218.712,19.602 219.548,20.218 219.548,21.494 C219.548,23.012 218.25,23.892 216.182,23.892 C213.85,23.892 212.112,22.594 212.002,20.064 L210.286,20.174 Z M223.928,20.174 C223.928,23.518 226.414,25.388 229.824,25.388 C232.816,25.388 235.016,23.914 235.016,21.362 C235.016,19.14 233.74,18.04 231.21,17.556 L228.702,17.072 C227.096,16.764 226.194,16.324 226.194,14.96 C226.194,13.42 227.316,12.474 229.318,12.474 C231.606,12.474 232.992,13.772 233.058,16.06 L234.796,15.972 C234.774,12.848 232.772,11 229.296,11 C226.26,11 224.346,12.65 224.346,15.07 C224.346,17.226 225.754,18.326 227.8,18.722 L230.55,19.25 C232.354,19.602 233.19,20.218 233.19,21.494 C233.19,23.012 231.892,23.892 229.824,23.892 C227.492,23.892 225.754,22.594 225.644,20.064 L223.928,20.174 Z M245.58,25.124 L245.58,19.03 L251.52,19.03 L251.52,17.446 L245.58,17.446 L245.58,12.848 L253.148,12.848 L253.148,11.264 L243.688,11.264 L243.688,25.124 L245.58,25.124 Z M256.34,11.264 L256.34,25.124 L258.254,25.124 L258.254,11.264 L256.34,11.264 Z M268.353999,25.388 C270.509999,25.388 272.467999,24.42 273.083999,22.66 L273.083999,25.124 L274.821999,25.124 L274.821999,18.282 L268.859999,18.282 L268.859999,19.778 L273.083999,19.778 C272.841999,22.154 271.169999,23.782 268.573999,23.782 C265.581999,23.782 263.557999,21.648 263.557999,18.216 C263.557999,14.784 265.559999,12.628 268.397999,12.628 C271.191999,12.628 272.819999,14.3 272.973999,16.83 L274.799999,16.72 C274.557999,13.178 272.291999,11 268.375999,11 C264.547999,11 261.599999,13.926 261.599999,18.194 C261.599999,22.506 264.437999,25.388 268.353999,25.388 L268.353999,25.388 Z M284.107999,25.388 C287.231999,25.388 289.739999,23.87 289.739999,19.822 L289.739999,11.264 L287.869999,11.264 L287.869999,19.866 C287.869999,22.484 286.527999,23.782 284.107999,23.782 C281.687999,23.782 280.389999,22.484 280.389999,19.844 L280.389999,11.264 L278.497999,11.264 L278.497999,19.822 C278.497999,23.87 280.983999,25.388 284.107999,25.388 L284.107999,25.388 Z M304.569999,25.124 C304.107999,24.618 304.041999,23.826 303.865999,21.802 C303.733999,20.174 302.919999,19.14 301.225999,18.81 C302.919999,18.612 304.371999,17.49 304.371999,15.356 C304.371999,12.892 302.677999,11.264 299.157999,11.264 L293.525999,11.264 L293.525999,25.124 L295.395999,25.124 L295.395999,19.536 L299.311999,19.536 C301.203999,19.536 301.929999,20.57 302.017999,22.11 C302.127999,23.738 302.325999,24.75 302.589999,25.124 L304.569999,25.124 Z M295.395999,18.018 L295.395999,12.826 L299.047999,12.826 C301.401999,12.826 302.457999,13.838 302.457999,15.422 C302.457999,17.138 301.401999,18.018 299.047999,18.018 L295.395999,18.018 Z M317.881999,23.54 L309.851999,23.54 L309.851999,18.766 L316.077999,18.766 L316.077999,17.204 L309.851999,17.204 L309.851999,12.848 L317.683999,12.848 L317.683999,11.264 L308.003999,11.264 L308.003999,25.124 L317.881999,25.124 L317.881999,23.54 Z M320.501999,20.174 C320.501999,23.518 322.987999,25.388 326.397999,25.388 C329.389999,25.388 331.589999,23.914 331.589999,21.362 C331.589999,19.14 330.313999,18.04 327.783999,17.556 L325.275999,17.072 C323.669999,16.764 322.767999,16.324 322.767999,14.96 C322.767999,13.42 323.889999,12.474 325.891999,12.474 C328.179999,12.474 329.565999,13.772 329.631999,16.06 L331.369999,15.972 C331.347999,12.848 329.345999,11 325.869999,11 C322.833999,11 320.919999,12.65 320.919999,15.07 C320.919999,17.226 322.327999,18.326 324.373999,18.722 L327.123999,19.25 C328.927999,19.602 329.763999,20.218 329.763999,21.494 C329.763999,23.012 328.465999,23.892 326.397999,23.892 C324.065999,23.892 322.327999,22.594 322.217999,20.064 L320.501999,20.174 Z" id="BUSINESS-FIGURES" fill="#FFFFFF"></path>
                <path d="M17.4687676,23.2500164 C15.2470857,23.2500164 13.0888804,24.875018 10.5625107,24.875018 C9.15332955,24.875018 8.2265708,24.2529471 8.2265708,22.7548987 C8.2265708,22.5136875 8.23926612,22.2724763 8.2773521,22.0439605 C7.74414844,21.751968 7.45215595,21.0283345 7.45215595,20.4443495 C7.45215595,20.1396617 7.52832791,19.8349739 7.68067181,19.5683721 C7.24903075,19.1621216 7.00781957,18.6543086 7.00781957,18.0576283 C7.00781957,17.6513779 7.18555412,17.0546976 7.45215595,16.7500098 L3.25000328,16.7500098 C2.37402583,16.7500098 1.62500164,16.0009856 1.62500164,15.1250082 C1.62500164,14.2617261 2.39941648,13.5000066 3.25000328,13.5000066 L10.5625107,13.5000066 C10.5625107,12.7002011 9.34375942,11.8750049 9.34375942,10.2500033 C9.34375942,9.03125205 10.2959088,8.62500164 11.3750115,8.62500164 C11.7177853,8.62500164 12.3525515,10.0595734 12.5048954,10.3515659 C12.6572393,10.6435584 12.8095832,10.9355508 12.9873178,11.214848 C13.4062635,11.8877002 13.8886859,12.4716852 14.4091942,13.0556702 C15.221695,13.9824289 16.1230631,15.1250082 17.4687676,15.1250082 L17.875018,15.1250082 L17.875018,23.2500164 L17.4687676,23.2500164 Z M21.1250213,22.4375156 C21.1250213,22.881852 20.7568569,23.2500164 20.3125205,23.2500164 C19.8681841,23.2500164 19.5000197,22.881852 19.5000197,22.4375156 C19.5000197,21.9931792 19.8681841,21.6250148 20.3125205,21.6250148 C20.7568569,21.6250148 21.1250213,21.9931792 21.1250213,22.4375156 L21.1250213,22.4375156 Z M22.7500229,15.1250082 C22.7500229,14.2236401 22.0263894,13.5000066 21.1250213,13.5000066 L17.4687676,13.5000066 C16.859392,13.5000066 15.9961099,12.4082086 15.6279455,11.9892628 C15.1709137,11.4687545 14.7392727,10.9482462 14.3584129,10.3515659 C13.6220841,9.17090063 13.0761851,7 11.3750115,7 C9.35645475,7 7.71875779,8.1044933 7.71875779,10.2500033 C7.71875779,10.8085976 7.80762506,11.3544966 7.99805494,11.8750049 L3.25000328,11.8750049 C1.49804839,11.8750049 0,13.360358 0,15.1123129 C0,16.8896584 1.47265774,18.3750115 3.25000328,18.3750115 L5.39551325,18.3750115 C5.43359923,18.9082151 5.59863846,19.4160281 5.86524029,19.8857552 C5.83984964,20.0634897 5.82715432,20.2539196 5.82715432,20.4316542 C5.82715432,21.244155 6.09375615,22.0566558 6.60156916,22.6914221 L6.58887383,22.7548987 C6.57617851,25.1797058 8.2773521,26.5000197 10.613292,26.5000197 C12.0097777,26.5000197 13.3427869,26.0937693 14.6377101,25.6240422 C15.4121249,25.3447451 16.6689621,24.875018 17.4687676,24.875018 L21.1250213,24.875018 C22.0263894,24.875018 22.7500229,24.1513845 22.7500229,23.2500164 L22.7500229,15.1250082 Z M40.6769925,14.6830199 C40.6769925,12.5217703 39.2664928,11.4980205 36.6274933,11.4980205 L30.7124944,11.4980205 L30.4394944,12.2260204 L31.8044942,12.7492703 L30.0754945,23.6237683 L28.5512448,24.1470182 L28.5967448,24.875018 L34.9894936,24.875018 C37.6967431,24.875018 40.4267426,24.0105182 40.4267426,20.9165188 C40.4267426,19.324019 39.4939928,18.2092693 37.3099932,17.9817693 L37.3099932,17.8907693 C38.8114929,17.7997693 40.6769925,16.8897695 40.6769925,14.6830199 L40.6769925,14.6830199 Z M35.2169935,18.5277692 C36.7867433,18.5277692 37.3099932,19.3012691 37.3099932,20.6207688 C37.3099932,22.9412684 36.2407434,23.8057682 34.3524937,23.8057682 L33.7837438,23.8057682 L33.1922439,23.4872683 L33.9884938,18.5277692 L35.2169935,18.5277692 Z M34.9212436,12.6127703 L35.7629934,12.6127703 C37.1962432,12.6127703 37.7422431,13.4090201 37.7422431,14.6147699 C37.7422431,16.5712696 36.7639933,17.4585194 35.3534935,17.4585194 L34.1704937,17.4585194 L34.9212436,12.6127703 Z M48.3437411,21.7355186 C47.7749912,22.6910184 47.1152414,23.2370183 46.2962415,23.2370183 C45.3862417,23.2370183 45.0449917,22.4407685 45.0449917,21.2122687 C45.0449917,18.3912692 46.3417415,15.8887697 48.0934912,15.8887697 C48.5939911,15.8887697 48.957991,15.9797697 49.299241,16.2755196 L48.3437411,21.7355186 Z M48.2527412,23.1232684 C48.2072412,24.4200181 48.844241,25.102518 50.1182408,25.102518 C51.6879905,25.102518 52.6662403,24.3062681 53.0984903,23.2142683 L52.6662403,22.7820184 C52.2339904,23.2597683 51.5287405,23.4417683 51.0964906,23.2142683 L52.5524904,14.7285199 L51.8472405,14.7285199 L50.0954908,15.2972698 C49.3902409,14.9105199 48.5939911,14.7285199 47.8432412,14.7285199 C44.5217418,14.7285199 42.0419923,17.5722694 42.0419923,21.3487687 C42.0419923,23.8740182 43.2249921,25.102518 45.1587417,25.102518 C46.5009915,25.102518 47.6157413,24.4427681 48.1617412,23.1232684 L48.2527412,23.1232684 Z M61.2202388,15.8205197 C60.7424889,16.0025197 60.3784889,16.5485196 60.3784889,17.2082694 C60.3784889,18.0272693 60.9927388,18.5277692 61.8117387,18.5277692 C62.5624885,18.5277692 63.3359884,18.0272693 63.3359884,16.9352695 C63.3359884,15.5020197 62.0847386,14.7285199 60.2874889,14.7285199 C56.7839896,14.7285199 54.53174,17.4357694 54.53174,20.8482688 C54.53174,23.5782683 56.2379897,25.102518 58.7177392,25.102518 C60.6969889,25.102518 62.1074886,24.3745181 63.0174884,22.4862685 L62.5397385,22.0995185 C61.5387387,23.0322684 60.9017388,23.3962683 59.900739,23.3962683 C58.2172393,23.3962683 57.5574894,22.2587685 57.5574894,20.3250189 C57.5574894,17.8225193 58.7404892,15.6840197 60.4467389,15.6840197 C60.7424889,15.6840197 60.9472388,15.7295197 61.2202388,15.8205197 L61.2202388,15.8205197 Z M70.0699871,23.3052683 C70.4794871,24.4427681 71.002737,25.102518 72.3449867,25.102518 C73.7327365,25.102518 74.7564863,24.4655181 75.1204862,23.1915183 L74.7109863,22.8275184 C74.2332364,23.3507683 73.6644865,23.4645183 73.1639866,23.3280183 L71.2757369,18.7097692 L73.8237365,16.2300196 L75.3934862,15.6840197 L75.2114862,14.9560198 L71.1619869,14.9560198 L70.957237,15.7067697 L72.1857368,16.1617696 L69.1827373,19.0510191 L68.3182375,19.2102691 L69.9562372,9.38227087 L69.4329873,9.38227087 L65.679238,10.0192708 L65.610988,10.3832707 L66.6347378,11.4297705 L64.4279882,24.875018 L67.4082376,24.875018 L68.1589875,20.0975189 L68.9552374,20.1885189 L70.0699871,23.3052683 Z M80.3302353,16.1162696 L81.831735,16.1162696 L80.7852352,21.2350187 C80.6487352,21.9175186 80.6259852,22.3725185 80.6259852,22.8502684 C80.6259852,24.3745181 81.626985,25.102518 83.2194847,25.102518 C84.6982345,25.102518 85.9267342,24.5565181 86.7457341,23.5100183 L86.4272341,22.9412684 C85.8584843,23.2825183 85.2669844,23.4417683 84.7437345,23.4417683 C83.9929846,23.4417683 83.5834847,23.1460183 83.5834847,22.3270185 C83.5834847,21.9402686 83.6517347,21.5307686 83.7199846,21.1895187 L84.6299845,16.1162696 L87.337234,16.1162696 L87.6557339,14.9560198 L84.8119844,14.9560198 L85.2897344,12.2942703 L84.2659845,12.2942703 L80.4439852,15.4110198 L80.3302353,16.1162696 Z M92.3649831,25.102518 C96.1869824,25.102518 97.984232,22.3497685 97.984232,19.0965191 C97.984232,16.4575196 96.3917323,14.7285199 93.5479828,14.7285199 C89.7487335,14.7285199 87.9514839,17.4812694 87.9514839,20.7345188 C87.9514839,23.3735183 89.5439836,25.102518 92.3649831,25.102518 L92.3649831,25.102518 Z M92.3877331,24.0560182 C91.3412332,24.0560182 90.9999833,23.1005184 90.9999833,21.6217686 C90.9999833,21.2122687 91.0454833,20.7572688 91.0682333,20.5070188 C91.3184833,18.1637693 91.9327331,15.7750197 93.5479828,15.7750197 C94.5944827,15.7750197 94.9812326,16.7532695 94.9129826,18.6187692 L94.8674826,19.324019 C94.6172326,21.6672686 93.9802328,24.0560182 92.3877331,24.0560182 L92.3877331,24.0560182 Z" id="-Back-to-Copy-2" fill="#FFFFFF"></path>
            </g>
        </g>
    </g>
</svg>