<?xml version="1.0" encoding="UTF-8" standalone="no"?>
<svg width="350px" height="29px" viewBox="0 0 350 29" version="1.1" xmlns="http://www.w3.org/2000/svg" xmlns:xlink="http://www.w3.org/1999/xlink" xmlns:sketch="http://www.bohemiancoding.com/sketch/ns">
    <!-- Generator: Sketch 3.5.2 (25235) - http://www.bohemiancoding.com/sketch -->
    <title>businessfigures-logo-small</title>
    <desc>Created with Sketch.</desc>
    <defs>
        <filter x="-50%" y="-50%" width="200%" height="200%" filterUnits="objectBoundingBox" id="filter-1">
            <feMorphology radius="1" in="SourceAlpha" operator="dilate" result="shadowSpreadInner1"></feMorphology>
            <feOffset dx="0" dy="0" in="shadowSpreadInner1" result="shadowOffsetInner1"></feOffset>
            <feGaussianBlur stdDeviation="0" in="shadowOffsetInner1" result="shadowBlurInner1"></feGaussianBlur>
            <feComposite in="shadowBlurInner1" in2="SourceAlpha" operator="arithmetic" k2="-1" k3="1" result="shadowInnerInner1"></feComposite>
            <feColorMatrix values="0 0 0 0 0.125377975   0 0 0 0 0.226088105   0 0 0 0 0.764668367  0 0 0 0.367674366 0" in="shadowInnerInner1" type="matrix" result="shadowMatrixInner1"></feColorMatrix>
            <feMerge>
                <feMergeNode in="SourceGraphic"></feMergeNode>
                <feMergeNode in="shadowMatrixInner1"></feMergeNode>
            </feMerge>
        </filter>
    </defs>
    <g id="Page-1" stroke="none" stroke-width="1" fill="none" fill-rule="evenodd" sketch:type="MSPage">
        <g id="businessfigures-logo-small" sketch:type="MSArtboardGroup">
            <g id="Group" sketch:type="MSLayerGroup" transform="translate(2.000000, 0.000000)">
                <path d="M16.5171743,0 L0,29.0780083 L196.481733,29.0780083 L213,0 L16.5171743,0 Z" id="Fill-338" fill="#5E75F0" filter="url(#filter-1)" sketch:type="MSShapeGroup"></path>
                <path d="M214.106772,4.95780051 L200.602946,29.0780083 L332.914712,29.0780083 L346.418537,4.95780051 L214.106772,4.95780051 Z" id="Fill-354" fill="#262626" sketch:type="MSShapeGroup"></path>
                <g id="Group-2" transform="translate(218.000000, 11.000000)" sketch:type="MSShapeGroup">
                    <path d="M89.8266576,4.27143006 L94.8151915,4.27143006 C96.420293,4.27143006 97.7179517,5.36152576 97.7179517,6.70210157 L97.7179517,8.03253332 C97.7179517,9.37388945 96.420293,10.4639851 94.8151915,10.4639851 L88.9854814,10.4639851 C86.490044,10.4639851 85.534162,9.17334929 85.471737,7.87647095 C85.4701764,7.75630292 85.4311608,7.47773158 85.8603323,7.47773158 L88.7779185,7.47773158 C88.7865019,8.03019239 89.2086506,8.27755125 89.8383623,8.27755125 L93.3482051,8.27755125 C93.983379,8.27755125 94.4055277,8.02551052 94.4055277,7.46290565 C94.4055277,6.80510274 93.983379,6.6513813 93.3482051,6.6513813 L88.9152534,6.6513813 C86.4268388,6.6513813 85.5271392,5.32016923 85.5271392,4.02563182 L85.5271392,3.05960572 C85.5271392,1.76740924 86.7795397,0.718670077 88.3245573,0.718670077 L94.5342792,0.718670077 C96.0629102,0.718670077 97.3067273,1.74868176 97.328576,3.02683262 C97.328576,3.1899178 97.3831979,3.4263523 96.9352989,3.4263523 L93.973235,3.4263523 C93.9716743,3.40216263 93.9701137,3.37797296 93.9662121,3.35534392 C93.9654318,3.34207862 93.9630909,3.33115425 93.96075,3.31866926 C93.8889613,2.91836927 93.5869806,2.78805718 93.1195738,2.78805718 L89.8266576,2.78805718 C89.2835606,2.78805718 88.9667539,2.9597258 88.9667539,3.5246716 C88.9667539,4.07323085 89.2835606,4.27143006 89.8266576,4.27143006 L89.8266576,4.27143006 Z M70.4757033,1.11818976 L70.4757033,6.02869242 C70.4757033,6.23937663 70.5872879,6.18475479 70.6590766,6.04507897 C70.6941907,5.97407059 72.7300243,2.21296733 73.359736,1.05732543 C73.4603963,0.869270269 73.349592,0.718670077 73.1396881,0.718670077 L70.8666396,0.718670077 C70.6192807,0.718670077 70.4757033,0.902043368 70.4757033,1.11818976 L70.4757033,1.11818976 Z M103.028754,6.58817604 L103.028754,8.27755125 L107.567048,8.27755125 C108.199881,8.27755125 108.62359,8.0177074 108.62359,7.45666316 C108.62359,6.79964055 108.199881,6.58817604 107.567048,6.58817604 L103.028754,6.58817604 Z M103.028754,2.78805718 L103.028754,4.33541564 L107.499941,4.33385502 C108.043038,4.33385502 108.359065,4.11068582 108.359065,3.55978563 C108.359065,2.99562014 108.043038,2.78805718 107.499941,2.78805718 L103.028754,2.78805718 Z M99.7241335,10.0972386 L99.7241335,1.08853791 C99.7241335,0.887997755 99.8872187,0.718670077 100.0901,0.718670077 L108.178032,0.718670077 C110.520529,0.718670077 111.657443,1.28049463 111.657443,3.26326712 C111.657443,4.70138191 111.181453,5.13757625 110.496339,5.3903973 C110.351201,5.43955695 110.363686,5.55348248 110.496339,5.57923278 C111.588776,5.77977293 112,6.35252185 112,7.78361384 C112,9.91542589 110.757743,10.4639851 109.077732,10.4639851 L100.086979,10.4639851 C99.8708321,10.4639851 99.7241335,10.2821725 99.7241335,10.0972386 L99.7241335,10.0972386 Z M84.4034901,10.4639851 L81.5241392,10.4639851 L80.6096137,8.74105651 L74.6324247,8.74105651 L73.7701801,10.4639851 L70.8736624,10.4639851 C70.6973119,10.4639851 70.5396889,10.3438171 70.6559554,10.1268904 C71.5462912,8.4578033 75.4517522,1.14550067 75.4892072,1.07527261 C75.6015721,0.873171829 75.6710198,0.718670077 76.0104555,0.718670077 L79.194128,0.718670077 C79.5476092,0.718670077 79.6006704,0.873171829 79.7161566,1.07683323 C79.7481494,1.13613693 83.7121337,8.44921987 84.6211971,10.1237692 C84.7405848,10.3391352 84.5829618,10.4639851 84.4034901,10.4639851 L84.4034901,10.4639851 Z M80.9591934,4.03343494 L76.1165779,4.03343494 C75.9035528,4.03343494 75.724081,4.18091389 75.724081,4.42905306 L75.724081,6.73409436 C75.724081,6.9471195 75.87156,7.05948441 76.0564939,6.95726355 C77.1973099,6.31974875 80.9045716,4.25582383 80.97558,4.21992948 C81.1129149,4.14658016 81.168317,4.03343494 80.9591934,4.03343494 L80.9591934,4.03343494 Z" id="Fill-366" fill="#F9C002"></path>
                    <path d="M0.189,7.984 C0.189,9.352 1.242,10.108 2.7,10.108 C3.978,10.108 4.941,9.505 4.941,8.389 C4.941,7.471 4.419,6.94 3.303,6.733 L2.259,6.544 C1.746,6.445 1.449,6.301 1.449,5.887 C1.449,5.401 1.827,5.104 2.493,5.104 C3.267,5.104 3.771,5.509 3.807,6.283 L4.842,6.247 C4.824,4.987 3.987,4.222 2.502,4.222 C1.179,4.222 0.342,4.906 0.342,5.968 C0.342,6.904 0.954,7.39 1.836,7.552 L2.916,7.75 C3.51,7.867 3.852,8.029 3.852,8.461 C3.852,8.938 3.402,9.217 2.7,9.217 C1.908,9.217 1.269,8.821 1.224,7.939 L0.189,7.984 Z M8.29799999,10.108 C9.65699999,10.108 10.737,9.451 10.737,7.795 L10.737,4.33 L9.61199999,4.33 L9.61199999,7.687 C9.61199999,8.659 9.19799999,9.163 8.29799999,9.163 C7.40699999,9.163 6.99299999,8.659 6.99299999,7.678 L6.99299999,4.33 L5.87699999,4.33 L5.87699999,7.795 C5.87699999,9.451 6.93899999,10.108 8.29799999,10.108 L8.29799999,10.108 Z M13.005,7.129 L13.005,5.239 L14.112,5.239 C14.958,5.239 15.327,5.581 15.327,6.193 C15.327,6.805 14.958,7.129 14.112,7.129 L13.005,7.129 Z M13.005,8.047 L14.148,8.047 C15.597,8.047 16.425,7.363 16.425,6.184 C16.425,5.005 15.597,4.33 14.148,4.33 L11.889,4.33 L11.889,10 L13.005,10 L13.005,8.047 Z M18.387,7.129 L18.387,5.239 L19.494,5.239 C20.34,5.239 20.709,5.581 20.709,6.193 C20.709,6.805 20.34,7.129 19.494,7.129 L18.387,7.129 Z M18.387,8.047 L19.53,8.047 C20.979,8.047 21.807,7.363 21.807,6.184 C21.807,5.005 20.979,4.33 19.53,4.33 L17.271,4.33 L17.271,10 L18.387,10 L18.387,8.047 Z M28.17,7.165 C28.17,5.419 26.946,4.222 25.299,4.222 C23.643,4.222 22.419,5.419 22.419,7.165 C22.419,8.911 23.643,10.108 25.299,10.108 C26.946,10.108 28.17,8.911 28.17,7.165 L28.17,7.165 Z M27.009,7.165 C27.009,8.353 26.343,9.118 25.299,9.118 C24.255,9.118 23.589,8.353 23.589,7.165 C23.589,5.977 24.255,5.212 25.299,5.212 C26.343,5.212 27.009,5.977 27.009,7.165 L27.009,7.165 Z M33.93,10 C33.741,9.793 33.714,9.505 33.642,8.668 C33.579,8.002 33.246,7.624 32.598,7.498 C33.291,7.408 33.849,6.913 33.849,6.058 C33.849,5.005 33.138,4.33 31.689,4.33 L29.124,4.33 L29.124,10 L30.231,10 L30.231,7.903 L31.563,7.903 C32.211,7.903 32.499,8.191 32.544,8.83 C32.589,9.46 32.661,9.847 32.778,10 L33.93,10 Z M30.231,7.021 L30.231,5.239 L31.536,5.239 C32.355,5.239 32.733,5.572 32.733,6.139 C32.733,6.751 32.355,7.021 31.536,7.021 L30.231,7.021 Z M37.602,10 L37.602,5.266 L39.636,5.266 L39.636,4.33 L34.47,4.33 L34.47,5.266 L36.477,5.266 L36.477,10 L37.602,10 Z M44.802,9.064 L41.67,9.064 L41.67,7.57 L44.064,7.57 L44.064,6.643 L41.67,6.643 L41.67,5.266 L44.721,5.266 L44.721,4.33 L40.563,4.33 L40.563,10 L44.802,10 L44.802,9.064 Z M46.944,9.1 L46.944,5.23 L47.889,5.23 C49.086,5.23 49.761,5.95 49.761,7.156 C49.761,8.38 49.086,9.1 47.889,9.1 L46.944,9.1 Z M45.819,10 L47.961,10 C49.788,10 50.922,8.938 50.922,7.165 C50.922,5.392 49.788,4.33 47.961,4.33 L45.819,4.33 L45.819,10 Z M58.4639999,8.443 C58.4639999,7.633 57.9329999,7.183 57.2489999,7.057 C57.8609999,6.958 58.2929999,6.508 58.2929999,5.869 C58.2929999,4.942 57.6809999,4.33 56.2499999,4.33 L53.7299999,4.33 L53.7299999,10 L56.3939999,10 C57.7169999,10 58.4639999,9.424 58.4639999,8.443 L58.4639999,8.443 Z M56.2679999,7.543 C56.9699999,7.543 57.3119999,7.849 57.3119999,8.326 C57.3119999,8.794 56.9699999,9.091 56.2679999,9.091 L54.8279999,9.091 L54.8279999,7.543 L56.2679999,7.543 Z M54.8279999,5.239 L56.1779999,5.239 C56.8529999,5.239 57.1409999,5.545 57.1409999,5.968 C57.1409999,6.391 56.8529999,6.688 56.1779999,6.688 L54.8279999,6.688 L54.8279999,5.239 Z M61.4969999,6.733 L59.9579999,4.33 L58.7069999,4.33 L60.9029999,7.813 L60.9029999,10 L62.0009999,10 L62.0009999,7.813 L64.1969999,4.33 L62.9819999,4.33 L61.4969999,6.733 Z" id="SUPPORTED-BY" fill="#FFFFFF"></path>
                </g>
            </g>
            <path d="M38.008,18.886 C38.008,17.266 36.928,16.348 35.542,16.114 C36.748,15.898 37.684,14.998 37.684,13.684 C37.684,11.884 36.532,10.66 33.724,10.66 L29.098,10.66 L29.098,22 L33.922,22 C36.568,22 38.008,20.848 38.008,18.886 L38.008,18.886 Z M33.886,16.762 C35.578,16.762 36.46,17.518 36.46,18.76 C36.46,19.984 35.578,20.722 33.886,20.722 L30.61,20.722 L30.61,16.762 L33.886,16.762 Z M30.61,11.938 L33.778,11.938 C35.416,11.938 36.118,12.676 36.118,13.756 C36.118,14.854 35.416,15.556 33.778,15.556 L30.61,15.556 L30.61,11.938 Z M45.134,22.216 C47.69,22.216 49.742,20.974 49.742,17.662 L49.742,10.66 L48.212,10.66 L48.212,17.698 C48.212,19.84 47.114,20.902 45.134,20.902 C43.154,20.902 42.092,19.84 42.092,17.68 L42.092,10.66 L40.544,10.66 L40.544,17.662 C40.544,20.974 42.578,22.216 45.134,22.216 L45.134,22.216 Z M52.0440001,17.95 C52.0440001,20.686 54.0780001,22.216 56.8680001,22.216 C59.3160001,22.216 61.1160001,21.01 61.1160001,18.922 C61.1160001,17.104 60.0720001,16.204 58.0020001,15.808 L55.9500001,15.412 C54.6360001,15.16 53.8980001,14.8 53.8980001,13.684 C53.8980001,12.424 54.8160001,11.65 56.4540001,11.65 C58.3260001,11.65 59.4600001,12.712 59.5140001,14.584 L60.9360001,14.512 C60.9180001,11.956 59.2800001,10.444 56.4360001,10.444 C53.9520001,10.444 52.3860001,11.794 52.3860001,13.774 C52.3860001,15.538 53.5380001,16.438 55.2120001,16.762 L57.4620001,17.194 C58.9380001,17.482 59.6220001,17.986 59.6220001,19.03 C59.6220001,20.272 58.5600001,20.992 56.8680001,20.992 C54.9600001,20.992 53.5380001,19.93 53.4480001,17.86 L52.0440001,17.95 Z M63.8140001,10.66 L63.8140001,22 L65.3800001,22 L65.3800001,10.66 L63.8140001,10.66 Z M70.1660001,10.66 L68.5460001,10.66 L68.5460001,22 L70.0040001,22 L70.0040001,12.892 L76.5920001,22 L77.8340001,22 L77.8340001,10.66 L76.3760001,10.66 L76.3760001,19.336 L70.1660001,10.66 Z M89.0820001,20.704 L82.5120001,20.704 L82.5120001,16.798 L87.6060001,16.798 L87.6060001,15.52 L82.5120001,15.52 L82.5120001,11.956 L88.9200001,11.956 L88.9200001,10.66 L81.0000001,10.66 L81.0000001,22 L89.0820001,22 L89.0820001,20.704 Z M90.9520002,17.95 C90.9520002,20.686 92.9860002,22.216 95.7760002,22.216 C98.2240002,22.216 100.024,21.01 100.024,18.922 C100.024,17.104 98.9800002,16.204 96.9100002,15.808 L94.8580002,15.412 C93.5440002,15.16 92.8060002,14.8 92.8060002,13.684 C92.8060002,12.424 93.7240002,11.65 95.3620002,11.65 C97.2340002,11.65 98.3680002,12.712 98.4220002,14.584 L99.8440002,14.512 C99.8260002,11.956 98.1880002,10.444 95.3440002,10.444 C92.8600002,10.444 91.2940002,11.794 91.2940002,13.774 C91.2940002,15.538 92.4460002,16.438 94.1200002,16.762 L96.3700002,17.194 C97.8460002,17.482 98.5300002,17.986 98.5300002,19.03 C98.5300002,20.272 97.4680002,20.992 95.7760002,20.992 C93.8680002,20.992 92.4460002,19.93 92.3560002,17.86 L90.9520002,17.95 Z M102.02,17.95 C102.02,20.686 104.054,22.216 106.844,22.216 C109.292,22.216 111.092,21.01 111.092,18.922 C111.092,17.104 110.048,16.204 107.978,15.808 L105.926,15.412 C104.612,15.16 103.874,14.8 103.874,13.684 C103.874,12.424 104.792,11.65 106.43,11.65 C108.302,11.65 109.436,12.712 109.49,14.584 L110.912,14.512 C110.894,11.956 109.256,10.444 106.412,10.444 C103.928,10.444 102.362,11.794 102.362,13.774 C102.362,15.538 103.514,16.438 105.188,16.762 L107.438,17.194 C108.914,17.482 109.598,17.986 109.598,19.03 C109.598,20.272 108.536,20.992 106.844,20.992 C104.936,20.992 103.514,19.93 103.424,17.86 L102.02,17.95 Z M119.548,22 L119.548,17.014 L124.408,17.014 L124.408,15.718 L119.548,15.718 L119.548,11.956 L125.74,11.956 L125.74,10.66 L118,10.66 L118,22 L119.548,22 Z M128.258,10.66 L128.258,22 L129.824,22 L129.824,10.66 L128.258,10.66 Z M137.994,22.216 C139.758,22.216 141.36,21.424 141.864,19.984 L141.864,22 L143.286,22 L143.286,16.402 L138.408,16.402 L138.408,17.626 L141.864,17.626 C141.666,19.57 140.298,20.902 138.174,20.902 C135.726,20.902 134.07,19.156 134.07,16.348 C134.07,13.54 135.708,11.776 138.03,11.776 C140.316,11.776 141.648,13.144 141.774,15.214 L143.268,15.124 C143.07,12.226 141.216,10.444 138.012,10.444 C134.88,10.444 132.468,12.838 132.468,16.33 C132.468,19.858 134.79,22.216 137.994,22.216 L137.994,22.216 Z M150.79,22.216 C153.346,22.216 155.398,20.974 155.398,17.662 L155.398,10.66 L153.868,10.66 L153.868,17.698 C153.868,19.84 152.77,20.902 150.79,20.902 C148.81,20.902 147.748,19.84 147.748,17.68 L147.748,10.66 L146.2,10.66 L146.2,17.662 C146.2,20.974 148.234,22.216 150.79,22.216 L150.79,22.216 Z M167.438,22 C167.06,21.586 167.006,20.938 166.862,19.282 C166.754,17.95 166.088,17.104 164.702,16.834 C166.088,16.672 167.276,15.754 167.276,14.008 C167.276,11.992 165.89,10.66 163.01,10.66 L158.402,10.66 L158.402,22 L159.932,22 L159.932,17.428 L163.136,17.428 C164.684,17.428 165.278,18.274 165.35,19.534 C165.44,20.866 165.602,21.694 165.818,22 L167.438,22 Z M159.932,16.186 L159.932,11.938 L162.92,11.938 C164.846,11.938 165.71,12.766 165.71,14.062 C165.71,15.466 164.846,16.186 162.92,16.186 L159.932,16.186 Z M178.236,20.704 L171.666,20.704 L171.666,16.798 L176.76,16.798 L176.76,15.52 L171.666,15.52 L171.666,11.956 L178.074,11.956 L178.074,10.66 L170.154,10.66 L170.154,22 L178.236,22 L178.236,20.704 Z M180.286,17.95 C180.286,20.686 182.32,22.216 185.11,22.216 C187.558,22.216 189.358,21.01 189.358,18.922 C189.358,17.104 188.314,16.204 186.244,15.808 L184.192,15.412 C182.878,15.16 182.14,14.8 182.14,13.684 C182.14,12.424 183.058,11.65 184.696,11.65 C186.568,11.65 187.702,12.712 187.756,14.584 L189.178,14.512 C189.16,11.956 187.522,10.444 184.678,10.444 C182.194,10.444 180.628,11.794 180.628,13.774 C180.628,15.538 181.78,16.438 183.454,16.762 L185.704,17.194 C187.18,17.482 187.864,17.986 187.864,19.03 C187.864,20.272 186.802,20.992 185.11,20.992 C183.202,20.992 181.78,19.93 181.69,17.86 L180.286,17.95 Z" id="BUSINESS-FIGURES-Copy" fill="#2F45BD" sketch:type="MSShapeGroup"></path>
            <path d="M37.008,17.886 C37.008,16.266 35.928,15.348 34.542,15.114 C35.748,14.898 36.684,13.998 36.684,12.684 C36.684,10.884 35.532,9.66 32.724,9.66 L28.098,9.66 L28.098,21 L32.922,21 C35.568,21 37.008,19.848 37.008,17.886 L37.008,17.886 Z M32.886,15.762 C34.578,15.762 35.46,16.518 35.46,17.76 C35.46,18.984 34.578,19.722 32.886,19.722 L29.61,19.722 L29.61,15.762 L32.886,15.762 Z M29.61,10.938 L32.778,10.938 C34.416,10.938 35.118,11.676 35.118,12.756 C35.118,13.854 34.416,14.556 32.778,14.556 L29.61,14.556 L29.61,10.938 Z M44.134,21.216 C46.69,21.216 48.742,19.974 48.742,16.662 L48.742,9.66 L47.212,9.66 L47.212,16.698 C47.212,18.84 46.114,19.902 44.134,19.902 C42.154,19.902 41.092,18.84 41.092,16.68 L41.092,9.66 L39.544,9.66 L39.544,16.662 C39.544,19.974 41.578,21.216 44.134,21.216 L44.134,21.216 Z M51.0440001,16.95 C51.0440001,19.686 53.0780001,21.216 55.8680001,21.216 C58.3160001,21.216 60.1160001,20.01 60.1160001,17.922 C60.1160001,16.104 59.0720001,15.204 57.0020001,14.808 L54.9500001,14.412 C53.6360001,14.16 52.8980001,13.8 52.8980001,12.684 C52.8980001,11.424 53.8160001,10.65 55.4540001,10.65 C57.3260001,10.65 58.4600001,11.712 58.5140001,13.584 L59.9360001,13.512 C59.9180001,10.956 58.2800001,9.444 55.4360001,9.444 C52.9520001,9.444 51.3860001,10.794 51.3860001,12.774 C51.3860001,14.538 52.5380001,15.438 54.2120001,15.762 L56.4620001,16.194 C57.9380001,16.482 58.6220001,16.986 58.6220001,18.03 C58.6220001,19.272 57.5600001,19.992 55.8680001,19.992 C53.9600001,19.992 52.5380001,18.93 52.4480001,16.86 L51.0440001,16.95 Z M62.8140001,9.66 L62.8140001,21 L64.3800001,21 L64.3800001,9.66 L62.8140001,9.66 Z M69.1660001,9.66 L67.5460001,9.66 L67.5460001,21 L69.0040001,21 L69.0040001,11.892 L75.5920001,21 L76.8340001,21 L76.8340001,9.66 L75.3760001,9.66 L75.3760001,18.336 L69.1660001,9.66 Z M88.0820001,19.704 L81.5120001,19.704 L81.5120001,15.798 L86.6060001,15.798 L86.6060001,14.52 L81.5120001,14.52 L81.5120001,10.956 L87.9200001,10.956 L87.9200001,9.66 L80.0000001,9.66 L80.0000001,21 L88.0820001,21 L88.0820001,19.704 Z M89.9520002,16.95 C89.9520002,19.686 91.9860002,21.216 94.7760002,21.216 C97.2240002,21.216 99.0240002,20.01 99.0240002,17.922 C99.0240002,16.104 97.9800002,15.204 95.9100002,14.808 L93.8580002,14.412 C92.5440002,14.16 91.8060002,13.8 91.8060002,12.684 C91.8060002,11.424 92.7240002,10.65 94.3620002,10.65 C96.2340002,10.65 97.3680002,11.712 97.4220002,13.584 L98.8440002,13.512 C98.8260002,10.956 97.1880002,9.444 94.3440002,9.444 C91.8600002,9.444 90.2940002,10.794 90.2940002,12.774 C90.2940002,14.538 91.4460002,15.438 93.1200002,15.762 L95.3700002,16.194 C96.8460002,16.482 97.5300002,16.986 97.5300002,18.03 C97.5300002,19.272 96.4680002,19.992 94.7760002,19.992 C92.8680002,19.992 91.4460002,18.93 91.3560002,16.86 L89.9520002,16.95 Z M101.02,16.95 C101.02,19.686 103.054,21.216 105.844,21.216 C108.292,21.216 110.092,20.01 110.092,17.922 C110.092,16.104 109.048,15.204 106.978,14.808 L104.926,14.412 C103.612,14.16 102.874,13.8 102.874,12.684 C102.874,11.424 103.792,10.65 105.43,10.65 C107.302,10.65 108.436,11.712 108.49,13.584 L109.912,13.512 C109.894,10.956 108.256,9.444 105.412,9.444 C102.928,9.444 101.362,10.794 101.362,12.774 C101.362,14.538 102.514,15.438 104.188,15.762 L106.438,16.194 C107.914,16.482 108.598,16.986 108.598,18.03 C108.598,19.272 107.536,19.992 105.844,19.992 C103.936,19.992 102.514,18.93 102.424,16.86 L101.02,16.95 Z M118.548,21 L118.548,16.014 L123.408,16.014 L123.408,14.718 L118.548,14.718 L118.548,10.956 L124.74,10.956 L124.74,9.66 L117,9.66 L117,21 L118.548,21 Z M127.258,9.66 L127.258,21 L128.824,21 L128.824,9.66 L127.258,9.66 Z M136.994,21.216 C138.758,21.216 140.36,20.424 140.864,18.984 L140.864,21 L142.286,21 L142.286,15.402 L137.408,15.402 L137.408,16.626 L140.864,16.626 C140.666,18.57 139.298,19.902 137.174,19.902 C134.726,19.902 133.07,18.156 133.07,15.348 C133.07,12.54 134.708,10.776 137.03,10.776 C139.316,10.776 140.648,12.144 140.774,14.214 L142.268,14.124 C142.07,11.226 140.216,9.444 137.012,9.444 C133.88,9.444 131.468,11.838 131.468,15.33 C131.468,18.858 133.79,21.216 136.994,21.216 L136.994,21.216 Z M149.79,21.216 C152.346,21.216 154.398,19.974 154.398,16.662 L154.398,9.66 L152.868,9.66 L152.868,16.698 C152.868,18.84 151.77,19.902 149.79,19.902 C147.81,19.902 146.748,18.84 146.748,16.68 L146.748,9.66 L145.2,9.66 L145.2,16.662 C145.2,19.974 147.234,21.216 149.79,21.216 L149.79,21.216 Z M166.438,21 C166.06,20.586 166.006,19.938 165.862,18.282 C165.754,16.95 165.088,16.104 163.702,15.834 C165.088,15.672 166.276,14.754 166.276,13.008 C166.276,10.992 164.89,9.66 162.01,9.66 L157.402,9.66 L157.402,21 L158.932,21 L158.932,16.428 L162.136,16.428 C163.684,16.428 164.278,17.274 164.35,18.534 C164.44,19.866 164.602,20.694 164.818,21 L166.438,21 Z M158.932,15.186 L158.932,10.938 L161.92,10.938 C163.846,10.938 164.71,11.766 164.71,13.062 C164.71,14.466 163.846,15.186 161.92,15.186 L158.932,15.186 Z M177.236,19.704 L170.666,19.704 L170.666,15.798 L175.76,15.798 L175.76,14.52 L170.666,14.52 L170.666,10.956 L177.074,10.956 L177.074,9.66 L169.154,9.66 L169.154,21 L177.236,21 L177.236,19.704 Z M179.286,16.95 C179.286,19.686 181.32,21.216 184.11,21.216 C186.558,21.216 188.358,20.01 188.358,17.922 C188.358,16.104 187.314,15.204 185.244,14.808 L183.192,14.412 C181.878,14.16 181.14,13.8 181.14,12.684 C181.14,11.424 182.058,10.65 183.696,10.65 C185.568,10.65 186.702,11.712 186.756,13.584 L188.178,13.512 C188.16,10.956 186.522,9.444 183.678,9.444 C181.194,9.444 179.628,10.794 179.628,12.774 C179.628,14.538 180.78,15.438 182.454,15.762 L184.704,16.194 C186.18,16.482 186.864,16.986 186.864,18.03 C186.864,19.272 185.802,19.992 184.11,19.992 C182.202,19.992 180.78,18.93 180.69,16.86 L179.286,16.95 Z" id="BUSINESS-FIGURES-Copy" fill="#FFFFFF" sketch:type="MSShapeGroup"></path>
        </g>
    </g>
</svg>