<?xml version="1.0" encoding="UTF-8" standalone="no"?>
<svg width="440px" height="38px" viewBox="0 0 440 38" version="1.1" xmlns="http://www.w3.org/2000/svg" xmlns:xlink="http://www.w3.org/1999/xlink" xmlns:sketch="http://www.bohemiancoding.com/sketch/ns">
    <!-- Generator: Sketch 3.5.2 (25235) - http://www.bohemiancoding.com/sketch -->
    <title>businessfigures-logo</title>
    <desc>Created with Sketch.</desc>
    <defs>
        <filter x="-50%" y="-50%" width="200%" height="200%" filterUnits="objectBoundingBox" id="filter-1">
            <feMorphology radius="1" in="SourceAlpha" operator="dilate" result="shadowSpreadInner1"></feMorphology>
            <feOffset dx="0" dy="0" in="shadowSpreadInner1" result="shadowOffsetInner1"></feOffset>
            <feGaussianBlur stdDeviation="0" in="shadowOffsetInner1" result="shadowBlurInner1"></feGaussianBlur>
            <feComposite in="shadowBlurInner1" in2="SourceAlpha" operator="arithmetic" k2="-1" k3="1" result="shadowInnerInner1"></feComposite>
            <feColorMatrix values="0 0 0 0 0.130881199   0 0 0 0 0.218966431   0 0 0 0 0.699431335  0 0 0 0.375144361 0" in="shadowInnerInner1" type="matrix" result="shadowMatrixInner1"></feColorMatrix>
            <feMerge>
                <feMergeNode in="SourceGraphic"></feMergeNode>
                <feMergeNode in="shadowMatrixInner1"></feMergeNode>
            </feMerge>
        </filter>
    </defs>
    <g id="Page-1" stroke="none" stroke-width="1" fill="none" fill-rule="evenodd" sketch:type="MSPage">
        <g id="businessfigures-logo" sketch:type="MSArtboardGroup">
            <g id="Business-Figures-Large" sketch:type="MSLayerGroup">
                <path d="M21.7609855,0 L0,38 L239.240141,38 L261,0 L21.7609855,0 Z" id="Fill-431" fill="#5E75F0" filter="url(#filter-1)" sketch:type="MSShapeGroup"></path>
                <path d="M261.652077,6.3349 L245.7773,33 L424.126148,33 L440,6.3349 L261.652077,6.3349 Z" id="Fill-447" fill="#262626" sketch:type="MSShapeGroup"></path>
                <g id="Group" transform="translate(267.000000, 13.000000)" sketch:type="MSShapeGroup">
                    <path d="M122.146387,4.6167969 L128.629582,4.6167969 C130.714203,4.6167969 132.402056,6.03326002 132.402056,7.77507322 L132.402056,9.50339629 C132.402056,11.2483836 130.714203,12.6640532 128.629582,12.6640532 L121.053686,12.6640532 C117.811295,12.6640532 116.568617,10.9865165 116.487676,9.30025088 C116.485295,9.14392414 116.435302,8.78445199 116.993159,8.78445199 L120.783884,8.78445199 C120.794993,9.50022215 121.343327,9.82319161 122.162257,9.82319161 L126.722713,9.82319161 C127.548785,9.82319161 128.097912,9.49546093 128.097912,8.76302649 C128.097912,7.9083874 127.548785,7.70841613 126.722713,7.70841613 L120.96243,7.70841613 C117.729561,7.70841613 116.559094,5.97771245 116.559094,4.29779512 L116.559094,3.04241996 C116.559094,1.36012201 118.188225,0 120.19508,0 L128.263761,0 C130.250778,0 131.867212,1.33710945 131.894986,2.99877543 C131.894986,3.21144329 131.96561,3.51774848 131.385535,3.51774848 L127.535295,3.51774848 C127.533708,3.48680054 127.530533,3.45585261 127.525772,3.42649175 C127.524185,3.4082404 127.521011,3.39554382 127.51863,3.37808601 C127.424993,2.85752589 127.032986,2.68850256 126.42593,2.68850256 L122.146387,2.68850256 C121.440932,2.68850256 121.029087,2.91227993 121.029087,3.64630143 C121.029087,4.35969099 121.440932,4.6167969 122.146387,4.6167969 L122.146387,4.6167969 Z M97,0.518973044 L97,6.89980217 C97,7.17436589 97.1452172,7.10294758 97.238061,6.92122766 C97.2848797,6.82838386 99.9297377,1.94178446 100.748668,0.438032294 C100.878808,0.196797118 100.735178,0 100.462201,0 L97.5078635,0 C97.1872747,0 97,0.238061029 97,0.518973044 L97,0.518973044 Z M139.301858,7.62668185 L139.301858,9.82319161 L145.199423,9.82319161 C146.023114,9.82319161 146.573035,9.48514495 146.573035,8.75509113 C146.573035,7.90124557 146.023114,7.62668185 145.199423,7.62668185 L139.301858,7.62668185 Z M139.301858,2.68850256 L139.301858,4.69932472 L145.112928,4.69773765 C145.819175,4.69773765 146.229434,4.40730319 146.229434,3.69153303 C146.229434,2.95830506 145.819175,2.68850256 145.112928,2.68850256 L139.301858,2.68850256 Z M135.008824,12.1879312 L135.008824,0.478502669 C135.008824,0.219809684 135.219905,0 135.484152,0 L145.994547,0 C149.038554,0 150.514532,0.730053824 150.514532,3.30587416 C150.514532,5.17465324 149.897161,5.7436191 149.007606,6.07055625 C148.817951,6.13403919 148.834615,6.2832241 149.007606,6.31734618 C150.425656,6.57762624 150.9605,7.32117019 150.9605,9.17963329 C150.9605,11.9506637 149.346446,12.6640532 147.163427,12.6640532 L135.480978,12.6640532 C135.198479,12.6640532 135.008824,12.4283728 135.008824,12.1879312 L135.008824,12.1879312 Z M115.098987,12.6640532 L111.359048,12.6640532 L110.169536,10.4223119 L102.402398,10.4223119 L101.281924,12.6640532 L97.517386,12.6640532 C97.2896409,12.6640532 97.0833214,12.5069329 97.2332998,12.2252274 C98.3910699,10.0564914 103.467325,0.554682199 103.514937,0.465012544 C103.661741,0.199971265 103.752204,0 104.192617,0 L108.329324,0 C108.789576,0 108.858613,0.199971265 109.007798,0.466599618 C109.049856,0.54198561 114.201496,10.0445884 115.383073,12.2220532 C115.537019,12.5013782 115.33308,12.6640532 115.098987,12.6640532 L115.098987,12.6640532 Z M110.623439,4.30493695 L104.33228,4.30493695 C104.052955,4.30493695 103.820448,4.49935346 103.820448,4.82152938 L103.820448,7.81713067 C103.820448,8.09486854 104.012484,8.24008576 104.252132,8.10518451 C105.736046,7.27673213 110.553608,4.59695848 110.646452,4.54855274 C110.824204,4.45412186 110.895622,4.30493695 110.623439,4.30493695 L110.623439,4.30493695 Z" id="Fill-459" fill="#F9C002"></path>
                    <path d="M0.252,10.312 C0.252,12.136 1.656,13.144 3.6,13.144 C5.304,13.144 6.588,12.34 6.588,10.852 C6.588,9.628 5.892,8.92 4.404,8.644 L3.012,8.392 C2.328,8.26 1.932,8.068 1.932,7.516 C1.932,6.868 2.436,6.472 3.324,6.472 C4.356,6.472 5.028,7.012 5.076,8.044 L6.456,7.996 C6.432,6.316 5.316,5.296 3.336,5.296 C1.572,5.296 0.456,6.208 0.456,7.624 C0.456,8.872 1.272,9.52 2.448,9.736 L3.888,10 C4.68,10.156 5.136,10.372 5.136,10.948 C5.136,11.584 4.536,11.956 3.6,11.956 C2.544,11.956 1.692,11.428 1.632,10.252 L0.252,10.312 Z M11.064,13.144 C12.876,13.144 14.316,12.268 14.316,10.06 L14.316,5.44 L12.816,5.44 L12.816,9.916 C12.816,11.212 12.264,11.884 11.064,11.884 C9.87600001,11.884 9.32400001,11.212 9.32400001,9.904 L9.32400001,5.44 L7.83600001,5.44 L7.83600001,10.06 C7.83600001,12.268 9.25200001,13.144 11.064,13.144 L11.064,13.144 Z M17.34,9.172 L17.34,6.652 L18.816,6.652 C19.944,6.652 20.436,7.108 20.436,7.924 C20.436,8.74 19.944,9.172 18.816,9.172 L17.34,9.172 Z M17.34,10.396 L18.864,10.396 C20.796,10.396 21.9,9.484 21.9,7.912 C21.9,6.34 20.796,5.44 18.864,5.44 L15.852,5.44 L15.852,13 L17.34,13 L17.34,10.396 Z M24.516,9.172 L24.516,6.652 L25.992,6.652 C27.12,6.652 27.612,7.108 27.612,7.924 C27.612,8.74 27.12,9.172 25.992,9.172 L24.516,9.172 Z M24.516,10.396 L26.04,10.396 C27.972,10.396 29.076,9.484 29.076,7.912 C29.076,6.34 27.972,5.44 26.04,5.44 L23.028,5.44 L23.028,13 L24.516,13 L24.516,10.396 Z M37.56,9.22 C37.56,6.892 35.928,5.296 33.732,5.296 C31.524,5.296 29.892,6.892 29.892,9.22 C29.892,11.548 31.524,13.144 33.732,13.144 C35.928,13.144 37.56,11.548 37.56,9.22 L37.56,9.22 Z M36.012,9.22 C36.012,10.804 35.124,11.824 33.732,11.824 C32.34,11.824 31.452,10.804 31.452,9.22 C31.452,7.636 32.34,6.616 33.732,6.616 C35.124,6.616 36.012,7.636 36.012,9.22 L36.012,9.22 Z M45.2400001,13 C44.9880001,12.724 44.9520001,12.34 44.8560001,11.224 C44.7720001,10.336 44.3280001,9.832 43.4640001,9.664 C44.3880001,9.544 45.1320001,8.884 45.1320001,7.744 C45.1320001,6.34 44.1840001,5.44 42.2520001,5.44 L38.8320001,5.44 L38.8320001,13 L40.3080001,13 L40.3080001,10.204 L42.0840001,10.204 C42.9480001,10.204 43.3320001,10.588 43.3920001,11.44 C43.4520001,12.28 43.5480001,12.796 43.7040001,13 L45.2400001,13 Z M40.3080001,9.028 L40.3080001,6.652 L42.0480001,6.652 C43.1400001,6.652 43.6440001,7.096 43.6440001,7.852 C43.6440001,8.668 43.1400001,9.028 42.0480001,9.028 L40.3080001,9.028 Z M50.1360001,13 L50.1360001,6.688 L52.8480001,6.688 L52.8480001,5.44 L45.9600001,5.44 L45.9600001,6.688 L48.6360001,6.688 L48.6360001,13 L50.1360001,13 Z M59.7360001,11.752 L55.5600001,11.752 L55.5600001,9.76 L58.7520001,9.76 L58.7520001,8.524 L55.5600001,8.524 L55.5600001,6.688 L59.6280001,6.688 L59.6280001,5.44 L54.0840001,5.44 L54.0840001,13 L59.7360001,13 L59.7360001,11.752 Z M62.5920001,11.8 L62.5920001,6.64 L63.8520001,6.64 C65.4480001,6.64 66.3480001,7.6 66.3480001,9.208 C66.3480001,10.84 65.4480001,11.8 63.8520001,11.8 L62.5920001,11.8 Z M61.0920001,13 L63.9480001,13 C66.3840001,13 67.8960001,11.584 67.8960001,9.22 C67.8960001,6.856 66.3840001,5.44 63.9480001,5.44 L61.0920001,5.44 L61.0920001,13 Z M77.9520001,10.924 C77.9520001,9.844 77.2440001,9.244 76.3320001,9.076 C77.1480001,8.944 77.7240001,8.344 77.7240001,7.492 C77.7240001,6.256 76.9080001,5.44 75.0000001,5.44 L71.6400001,5.44 L71.6400001,13 L75.1920001,13 C76.9560001,13 77.9520001,12.232 77.9520001,10.924 L77.9520001,10.924 Z M75.0240001,9.724 C75.9600001,9.724 76.4160001,10.132 76.4160001,10.768 C76.4160001,11.392 75.9600001,11.788 75.0240001,11.788 L73.1040001,11.788 L73.1040001,9.724 L75.0240001,9.724 Z M73.1040001,6.652 L74.9040001,6.652 C75.8040001,6.652 76.1880001,7.06 76.1880001,7.624 C76.1880001,8.188 75.8040001,8.584 74.9040001,8.584 L73.1040001,8.584 L73.1040001,6.652 Z M82.3920001,8.644 L80.3400001,5.44 L78.6720001,5.44 L81.6000001,10.084 L81.6000001,13 L83.0640001,13 L83.0640001,10.084 L85.9920001,5.44 L84.3720001,5.44 L82.3920001,8.644 Z" id="SUPPORTED-BY" fill="#FFFFFF"></path>
                </g>
            </g>
            <path d="M45.232,23.194 C45.232,21.214 43.912,20.092 42.218,19.806 C43.692,19.542 44.836,18.442 44.836,16.836 C44.836,14.636 43.428,13.14 39.996,13.14 L34.342,13.14 L34.342,27 L40.238,27 C43.472,27 45.232,25.592 45.232,23.194 L45.232,23.194 Z M40.194,20.598 C42.262,20.598 43.34,21.522 43.34,23.04 C43.34,24.536 42.262,25.438 40.194,25.438 L36.19,25.438 L36.19,20.598 L40.194,20.598 Z M36.19,14.702 L40.062,14.702 C42.064,14.702 42.922,15.604 42.922,16.924 C42.922,18.266 42.064,19.124 40.062,19.124 L36.19,19.124 L36.19,14.702 Z M54.056,27.264 C57.18,27.264 59.688,25.746 59.688,21.698 L59.688,13.14 L57.818,13.14 L57.818,21.742 C57.818,24.36 56.476,25.658 54.056,25.658 C51.636,25.658 50.338,24.36 50.338,21.72 L50.338,13.14 L48.446,13.14 L48.446,21.698 C48.446,25.746 50.932,27.264 54.056,27.264 L54.056,27.264 Z M62.6159999,22.05 C62.6159999,25.394 65.1019999,27.264 68.5119999,27.264 C71.5039999,27.264 73.7039999,25.79 73.7039999,23.238 C73.7039999,21.016 72.4279999,19.916 69.8979999,19.432 L67.3899999,18.948 C65.7839999,18.64 64.8819999,18.2 64.8819999,16.836 C64.8819999,15.296 66.0039999,14.35 68.0059999,14.35 C70.2939999,14.35 71.6799999,15.648 71.7459999,17.936 L73.4839999,17.848 C73.4619999,14.724 71.4599999,12.876 67.9839999,12.876 C64.9479999,12.876 63.0339999,14.526 63.0339999,16.946 C63.0339999,19.102 64.4419999,20.202 66.4879999,20.598 L69.2379999,21.126 C71.0419999,21.478 71.8779999,22.094 71.8779999,23.37 C71.8779999,24.888 70.5799999,25.768 68.5119999,25.768 C66.1799999,25.768 64.4419999,24.47 64.3319999,21.94 L62.6159999,22.05 Z M77.1159999,13.14 L77.1159999,27 L79.0299999,27 L79.0299999,13.14 L77.1159999,13.14 Z M84.9939998,13.14 L83.0139998,13.14 L83.0139998,27 L84.7959998,27 L84.7959998,15.868 L92.8479998,27 L94.3659998,27 L94.3659998,13.14 L92.5839998,13.14 L92.5839998,23.744 L84.9939998,13.14 Z M108.228,25.416 L100.198,25.416 L100.198,20.642 L106.424,20.642 L106.424,19.08 L100.198,19.08 L100.198,14.724 L108.03,14.724 L108.03,13.14 L98.3499998,13.14 L98.3499998,27 L108.228,27 L108.228,25.416 Z M110.628,22.05 C110.628,25.394 113.114,27.264 116.524,27.264 C119.516,27.264 121.716,25.79 121.716,23.238 C121.716,21.016 120.44,19.916 117.91,19.432 L115.402,18.948 C113.796,18.64 112.894,18.2 112.894,16.836 C112.894,15.296 114.016,14.35 116.018,14.35 C118.306,14.35 119.692,15.648 119.758,17.936 L121.496,17.848 C121.474,14.724 119.472,12.876 115.996,12.876 C112.96,12.876 111.046,14.526 111.046,16.946 C111.046,19.102 112.454,20.202 114.5,20.598 L117.25,21.126 C119.054,21.478 119.89,22.094 119.89,23.37 C119.89,24.888 118.592,25.768 116.524,25.768 C114.192,25.768 112.454,24.47 112.344,21.94 L110.628,22.05 Z M124.27,22.05 C124.27,25.394 126.756,27.264 130.166,27.264 C133.158,27.264 135.358,25.79 135.358,23.238 C135.358,21.016 134.082,19.916 131.552,19.432 L129.044,18.948 C127.438,18.64 126.536,18.2 126.536,16.836 C126.536,15.296 127.658,14.35 129.66,14.35 C131.948,14.35 133.334,15.648 133.4,17.936 L135.138,17.848 C135.116,14.724 133.114,12.876 129.638,12.876 C126.602,12.876 124.688,14.526 124.688,16.946 C124.688,19.102 126.096,20.202 128.142,20.598 L130.892,21.126 C132.696,21.478 133.532,22.094 133.532,23.37 C133.532,24.888 132.234,25.768 130.166,25.768 C127.834,25.768 126.096,24.47 125.986,21.94 L124.27,22.05 Z M145.922,27 L145.922,20.906 L151.862,20.906 L151.862,19.322 L145.922,19.322 L145.922,14.724 L153.49,14.724 L153.49,13.14 L144.03,13.14 L144.03,27 L145.922,27 Z M156.682,13.14 L156.682,27 L158.596,27 L158.596,13.14 L156.682,13.14 Z M168.695999,27.264 C170.851999,27.264 172.809999,26.296 173.425999,24.536 L173.425999,27 L175.163999,27 L175.163999,20.158 L169.201999,20.158 L169.201999,21.654 L173.425999,21.654 C173.183999,24.03 171.511999,25.658 168.915999,25.658 C165.923999,25.658 163.899999,23.524 163.899999,20.092 C163.899999,16.66 165.901999,14.504 168.739999,14.504 C171.533999,14.504 173.161999,16.176 173.315999,18.706 L175.141999,18.596 C174.899999,15.054 172.633999,12.876 168.717999,12.876 C164.889999,12.876 161.941999,15.802 161.941999,20.07 C161.941999,24.382 164.779999,27.264 168.695999,27.264 L168.695999,27.264 Z M184.449999,27.264 C187.573999,27.264 190.081999,25.746 190.081999,21.698 L190.081999,13.14 L188.211999,13.14 L188.211999,21.742 C188.211999,24.36 186.869999,25.658 184.449999,25.658 C182.029999,25.658 180.731999,24.36 180.731999,21.72 L180.731999,13.14 L178.839999,13.14 L178.839999,21.698 C178.839999,25.746 181.325999,27.264 184.449999,27.264 L184.449999,27.264 Z M204.911999,27 C204.449999,26.494 204.383999,25.702 204.207999,23.678 C204.075999,22.05 203.261999,21.016 201.567999,20.686 C203.261999,20.488 204.713999,19.366 204.713999,17.232 C204.713999,14.768 203.019999,13.14 199.499999,13.14 L193.867999,13.14 L193.867999,27 L195.737999,27 L195.737999,21.412 L199.653999,21.412 C201.545999,21.412 202.271999,22.446 202.359999,23.986 C202.469999,25.614 202.667999,26.626 202.931999,27 L204.911999,27 Z M195.737999,19.894 L195.737999,14.702 L199.389999,14.702 C201.743999,14.702 202.799999,15.714 202.799999,17.298 C202.799999,19.014 201.743999,19.894 199.389999,19.894 L195.737999,19.894 Z M218.223999,25.416 L210.193999,25.416 L210.193999,20.642 L216.419999,20.642 L216.419999,19.08 L210.193999,19.08 L210.193999,14.724 L218.025999,14.724 L218.025999,13.14 L208.345999,13.14 L208.345999,27 L218.223999,27 L218.223999,25.416 Z M220.843999,22.05 C220.843999,25.394 223.329999,27.264 226.739999,27.264 C229.731999,27.264 231.931999,25.79 231.931999,23.238 C231.931999,21.016 230.655999,19.916 228.125999,19.432 L225.617999,18.948 C224.011999,18.64 223.109999,18.2 223.109999,16.836 C223.109999,15.296 224.231999,14.35 226.233999,14.35 C228.521999,14.35 229.907999,15.648 229.973999,17.936 L231.711999,17.848 C231.689999,14.724 229.687999,12.876 226.211999,12.876 C223.175999,12.876 221.261999,14.526 221.261999,16.946 C221.261999,19.102 222.669999,20.202 224.715999,20.598 L227.465999,21.126 C229.269999,21.478 230.105999,22.094 230.105999,23.37 C230.105999,24.888 228.807999,25.768 226.739999,25.768 C224.407999,25.768 222.669999,24.47 222.559999,21.94 L220.843999,22.05 Z" id="BUSINESS-FIGURES" fill="#3147BC" sketch:type="MSShapeGroup"></path>
            <path d="M44.232,22.194 C44.232,20.214 42.912,19.092 41.218,18.806 C42.692,18.542 43.836,17.442 43.836,15.836 C43.836,13.636 42.428,12.14 38.996,12.14 L33.342,12.14 L33.342,26 L39.238,26 C42.472,26 44.232,24.592 44.232,22.194 L44.232,22.194 Z M39.194,19.598 C41.262,19.598 42.34,20.522 42.34,22.04 C42.34,23.536 41.262,24.438 39.194,24.438 L35.19,24.438 L35.19,19.598 L39.194,19.598 Z M35.19,13.702 L39.062,13.702 C41.064,13.702 41.922,14.604 41.922,15.924 C41.922,17.266 41.064,18.124 39.062,18.124 L35.19,18.124 L35.19,13.702 Z M53.056,26.264 C56.18,26.264 58.688,24.746 58.688,20.698 L58.688,12.14 L56.818,12.14 L56.818,20.742 C56.818,23.36 55.476,24.658 53.056,24.658 C50.636,24.658 49.338,23.36 49.338,20.72 L49.338,12.14 L47.446,12.14 L47.446,20.698 C47.446,24.746 49.932,26.264 53.056,26.264 L53.056,26.264 Z M61.6159999,21.05 C61.6159999,24.394 64.1019999,26.264 67.5119999,26.264 C70.5039999,26.264 72.7039999,24.79 72.7039999,22.238 C72.7039999,20.016 71.4279999,18.916 68.8979999,18.432 L66.3899999,17.948 C64.7839999,17.64 63.8819999,17.2 63.8819999,15.836 C63.8819999,14.296 65.0039999,13.35 67.0059999,13.35 C69.2939999,13.35 70.6799999,14.648 70.7459999,16.936 L72.4839999,16.848 C72.4619999,13.724 70.4599999,11.876 66.9839999,11.876 C63.9479999,11.876 62.0339999,13.526 62.0339999,15.946 C62.0339999,18.102 63.4419999,19.202 65.4879999,19.598 L68.2379999,20.126 C70.0419999,20.478 70.8779999,21.094 70.8779999,22.37 C70.8779999,23.888 69.5799999,24.768 67.5119999,24.768 C65.1799999,24.768 63.4419999,23.47 63.3319999,20.94 L61.6159999,21.05 Z M76.1159999,12.14 L76.1159999,26 L78.0299999,26 L78.0299999,12.14 L76.1159999,12.14 Z M83.9939998,12.14 L82.0139998,12.14 L82.0139998,26 L83.7959998,26 L83.7959998,14.868 L91.8479998,26 L93.3659998,26 L93.3659998,12.14 L91.5839998,12.14 L91.5839998,22.744 L83.9939998,12.14 Z M107.228,24.416 L99.1979998,24.416 L99.1979998,19.642 L105.424,19.642 L105.424,18.08 L99.1979998,18.08 L99.1979998,13.724 L107.03,13.724 L107.03,12.14 L97.3499998,12.14 L97.3499998,26 L107.228,26 L107.228,24.416 Z M109.628,21.05 C109.628,24.394 112.114,26.264 115.524,26.264 C118.516,26.264 120.716,24.79 120.716,22.238 C120.716,20.016 119.44,18.916 116.91,18.432 L114.402,17.948 C112.796,17.64 111.894,17.2 111.894,15.836 C111.894,14.296 113.016,13.35 115.018,13.35 C117.306,13.35 118.692,14.648 118.758,16.936 L120.496,16.848 C120.474,13.724 118.472,11.876 114.996,11.876 C111.96,11.876 110.046,13.526 110.046,15.946 C110.046,18.102 111.454,19.202 113.5,19.598 L116.25,20.126 C118.054,20.478 118.89,21.094 118.89,22.37 C118.89,23.888 117.592,24.768 115.524,24.768 C113.192,24.768 111.454,23.47 111.344,20.94 L109.628,21.05 Z M123.27,21.05 C123.27,24.394 125.756,26.264 129.166,26.264 C132.158,26.264 134.358,24.79 134.358,22.238 C134.358,20.016 133.082,18.916 130.552,18.432 L128.044,17.948 C126.438,17.64 125.536,17.2 125.536,15.836 C125.536,14.296 126.658,13.35 128.66,13.35 C130.948,13.35 132.334,14.648 132.4,16.936 L134.138,16.848 C134.116,13.724 132.114,11.876 128.638,11.876 C125.602,11.876 123.688,13.526 123.688,15.946 C123.688,18.102 125.096,19.202 127.142,19.598 L129.892,20.126 C131.696,20.478 132.532,21.094 132.532,22.37 C132.532,23.888 131.234,24.768 129.166,24.768 C126.834,24.768 125.096,23.47 124.986,20.94 L123.27,21.05 Z M144.922,26 L144.922,19.906 L150.862,19.906 L150.862,18.322 L144.922,18.322 L144.922,13.724 L152.49,13.724 L152.49,12.14 L143.03,12.14 L143.03,26 L144.922,26 Z M155.682,12.14 L155.682,26 L157.596,26 L157.596,12.14 L155.682,12.14 Z M167.695999,26.264 C169.851999,26.264 171.809999,25.296 172.425999,23.536 L172.425999,26 L174.163999,26 L174.163999,19.158 L168.201999,19.158 L168.201999,20.654 L172.425999,20.654 C172.183999,23.03 170.511999,24.658 167.915999,24.658 C164.923999,24.658 162.899999,22.524 162.899999,19.092 C162.899999,15.66 164.901999,13.504 167.739999,13.504 C170.533999,13.504 172.161999,15.176 172.315999,17.706 L174.141999,17.596 C173.899999,14.054 171.633999,11.876 167.717999,11.876 C163.889999,11.876 160.941999,14.802 160.941999,19.07 C160.941999,23.382 163.779999,26.264 167.695999,26.264 L167.695999,26.264 Z M183.449999,26.264 C186.573999,26.264 189.081999,24.746 189.081999,20.698 L189.081999,12.14 L187.211999,12.14 L187.211999,20.742 C187.211999,23.36 185.869999,24.658 183.449999,24.658 C181.029999,24.658 179.731999,23.36 179.731999,20.72 L179.731999,12.14 L177.839999,12.14 L177.839999,20.698 C177.839999,24.746 180.325999,26.264 183.449999,26.264 L183.449999,26.264 Z M203.911999,26 C203.449999,25.494 203.383999,24.702 203.207999,22.678 C203.075999,21.05 202.261999,20.016 200.567999,19.686 C202.261999,19.488 203.713999,18.366 203.713999,16.232 C203.713999,13.768 202.019999,12.14 198.499999,12.14 L192.867999,12.14 L192.867999,26 L194.737999,26 L194.737999,20.412 L198.653999,20.412 C200.545999,20.412 201.271999,21.446 201.359999,22.986 C201.469999,24.614 201.667999,25.626 201.931999,26 L203.911999,26 Z M194.737999,18.894 L194.737999,13.702 L198.389999,13.702 C200.743999,13.702 201.799999,14.714 201.799999,16.298 C201.799999,18.014 200.743999,18.894 198.389999,18.894 L194.737999,18.894 Z M217.223999,24.416 L209.193999,24.416 L209.193999,19.642 L215.419999,19.642 L215.419999,18.08 L209.193999,18.08 L209.193999,13.724 L217.025999,13.724 L217.025999,12.14 L207.345999,12.14 L207.345999,26 L217.223999,26 L217.223999,24.416 Z M219.843999,21.05 C219.843999,24.394 222.329999,26.264 225.739999,26.264 C228.731999,26.264 230.931999,24.79 230.931999,22.238 C230.931999,20.016 229.655999,18.916 227.125999,18.432 L224.617999,17.948 C223.011999,17.64 222.109999,17.2 222.109999,15.836 C222.109999,14.296 223.231999,13.35 225.233999,13.35 C227.521999,13.35 228.907999,14.648 228.973999,16.936 L230.711999,16.848 C230.689999,13.724 228.687999,11.876 225.211999,11.876 C222.175999,11.876 220.261999,13.526 220.261999,15.946 C220.261999,18.102 221.669999,19.202 223.715999,19.598 L226.465999,20.126 C228.269999,20.478 229.105999,21.094 229.105999,22.37 C229.105999,23.888 227.807999,24.768 225.739999,24.768 C223.407999,24.768 221.669999,23.47 221.559999,20.94 L219.843999,21.05 Z" id="BUSINESS-FIGURES" fill="#FFFFFF" sketch:type="MSShapeGroup"></path>
        </g>
    </g>
</svg>