<?xml version="1.0" encoding="UTF-8" standalone="no"?>
<svg width="100px" height="72px" viewBox="0 0 100 72" version="1.1" xmlns="http://www.w3.org/2000/svg" xmlns:xlink="http://www.w3.org/1999/xlink">
    <!-- Generator: Sketch 3.6.1 (26313) - http://www.bohemiancoding.com/sketch -->
    <title>StatsNZ</title>
    <desc>Created with Sketch.</desc>
    <defs></defs>
    <g id="Page-1" stroke="none" stroke-width="1" fill="none" fill-rule="evenodd">
        <g id="StatsNZ" fill="#FFFFFF">
            <g id="Group-2" transform="translate(10.000000, 29.000000)">
                <g id="statsnz">
                    <g id="Group">
                        <path d="M76.524912,7.41558462 C78.921864,7.41558462 80.865216,9.35307692 80.865216,11.7435231 C80.865216,13.7873077 79.443504,15.5009077 77.532552,15.9541846 C77.79402,16.5738462 77.958936,17.2051385 77.958936,17.8732615 C77.958936,20.0792308 76.165596,21.8671385 73.954296,21.8671385 C71.757576,21.8671385 69.973956,20.1041077 69.948684,17.9201077 C68.428152,17.2616769 67.378068,15.7958769 67.378068,14.0838923 C67.378068,12.8303538 67.949928,11.6918308 68.8338,10.9403538 L68.83056,10.6279385 C68.83056,10.3378154 68.861988,10.0548 68.92128,9.78147692 C67.904568,9.10075385 67.241988,7.98936923 67.241988,6.72193846 L67.23486,6.55716923 C66.301092,5.91521538 65.677068,4.82095385 65.677068,3.60101538 C65.677068,1.63121538 67.278276,0.0342461538 69.254028,0.0342461538 C71.228808,0.0342461538 72.830016,1.63121538 72.830016,3.60101538 L72.837144,3.76578462 C73.771236,4.40806154 74.395584,5.50135385 74.395584,6.72129231 L74.389104,6.9468 C74.768832,7.10963077 75.103524,7.31090769 75.393504,7.54933846 C75.766104,7.46146154 76.145184,7.41526154 76.524912,7.41526154 L76.524912,7.41558462 Z M75.306024,8.16835385 C74.861172,7.77646154 74.37096,7.48084615 73.828584,7.31866154 C73.83636,7.09670769 73.853532,6.91158462 73.853532,6.72258462 C73.853532,5.57727692 73.209744,4.58058462 72.270144,4.06624615 C72.265932,3.87724615 72.288936,3.7464 72.288936,3.60101538 C72.288936,1.93006154 70.929756,0.574753846 69.253704,0.574753846 C67.577328,0.574753846 66.217824,1.92973846 66.217824,3.60101538 C66.217824,4.74632308 66.862584,5.74301538 67.802184,6.25735385 C67.806396,6.44603077 67.782744,6.57655385 67.782744,6.72193846 C67.782744,7.93670769 68.501052,8.98412308 69.53688,9.46583077 C69.437088,9.86321538 69.372288,10.2379846 69.372288,10.6289077 C69.372288,10.8040154 69.406308,10.9597385 69.432552,11.1283846 C68.520168,11.8352769 67.918824,12.8988462 67.918824,14.0838923 C67.918824,15.7015385 68.999364,17.0675077 70.480044,17.5039846 C70.495596,17.6509846 70.490412,17.7618 70.490412,17.8735846 C70.490412,19.7810308 72.041076,21.3272769 73.953972,21.3272769 C75.867192,21.3272769 77.417532,19.7810308 77.417532,17.8735846 C77.417532,17.0012769 77.093532,16.2042462 76.558932,15.5965385 C78.656508,15.4976769 80.323812,13.8150923 80.323812,11.7432 C80.323812,9.65063077 78.62346,7.95447692 76.524912,7.95447692 C76.093344,7.95447692 75.694176,8.03524615 75.306672,8.16770769 L75.306024,8.16835385 Z M70.96248,17.8735846 C70.96248,17.6409692 70.989372,17.4135231 71.04024,17.1957692 C69.522948,16.905 68.39154,15.6256154 68.39154,14.0845385 C68.39154,12.9492462 69.0039,11.9580462 69.916284,11.4198 C69.877404,11.1329077 69.845004,10.8844615 69.845004,10.6292308 C69.845004,10.1336308 69.96618,9.66646154 70.180344,9.25615385 C69.059304,8.89753846 68.255784,7.90310769 68.255784,6.72258462 C68.255784,6.48576923 68.288832,6.25541538 68.349744,6.03766154 C67.367052,5.6112 66.690864,4.68461538 66.690864,3.60166154 C66.690864,2.18981538 67.838472,1.04612308 69.253704,1.04612308 C70.669584,1.04612308 71.816544,2.18981538 71.816544,3.60166154 C71.816544,3.83847692 71.784144,4.06850769 71.723232,4.28658462 C72.7056,4.71304615 73.381464,5.63930769 73.381464,6.72258462 C73.381464,7.03596923 73.324764,7.33643077 73.221408,7.61427692 C74.001276,7.78001538 74.65608,8.15704615 75.118104,8.69981538 C75.585636,8.52858462 76.044096,8.42649231 76.52556,8.42649231 C78.36264,8.42649231 79.852068,9.91167692 79.852068,11.7435231 C79.852068,13.5753692 78.362316,15.0602308 76.525236,15.0602308 C75.825396,15.0602308 75.176748,14.8450615 74.641176,14.4770769 C74.5524,14.6353846 74.525832,14.7633231 74.492136,14.8886769 C75.905748,15.2127231 76.945464,16.4223231 76.945464,17.8739077 C76.945464,19.5209538 75.606372,20.8565538 73.954944,20.8565538 C72.302544,20.8565538 70.963128,19.5209538 70.963128,17.8739077 L70.96248,17.8735846 Z M74.05668,14.0838923 C74.05668,13.6671231 73.95624,13.2736154 73.77804,12.9259846 C74.396232,13.8315692 75.379248,14.5206923 76.524588,14.5206923 C78.06294,14.5206923 79.309692,13.2768462 79.309692,11.7432 C79.309692,10.2092308 78.06294,8.96538462 76.524912,8.96538462 C75.965688,8.96538462 75.445344,9.13015385 75.00924,9.41252308 C74.529072,8.67396923 73.74078,8.18547692 72.836172,8.18547692 C72.62946,8.18547692 72.429228,8.21132308 72.237744,8.25881538 C72.593496,7.82589231 72.839736,7.30250769 72.839736,6.72193846 C72.839736,5.67064615 72.032976,4.80738462 71.003628,4.71466154 C71.164656,4.35184615 71.27514,3.98967692 71.27514,3.60069231 C71.27514,2.48769231 70.369884,1.58533846 69.25338,1.58533846 C68.1372,1.58533846 67.23162,2.48736923 67.23162,3.60036923 C67.23162,4.65166154 68.039028,5.5146 69.0687,5.60829231 C68.907348,5.97013846 68.797188,6.33295385 68.797188,6.72161538 C68.797188,7.83461538 69.70212,8.73696923 70.818948,8.73696923 C70.953084,8.73696923 71.084628,8.72404615 71.212608,8.69916923 C70.7211,9.21609231 70.386408,9.88227692 70.386408,10.6279385 C70.386408,10.9891385 70.464816,11.3322462 70.60608,11.6411077 C69.619176,12.0604615 68.93262,12.9915692 68.93262,14.0829231 C68.93262,15.4938 70.07958,16.6371692 71.494488,16.6371692 C71.59104,16.6371692 71.686944,16.632 71.780904,16.6216615 C71.618256,17.0287385 71.503884,17.4367846 71.503884,17.8726154 C71.503884,19.2217846 72.600948,20.3157231 73.954296,20.3157231 C75.306996,20.3157231 76.403736,19.2217846 76.403736,17.8726154 C76.403736,16.5231231 75.306996,15.4301538 73.954296,15.4301538 L73.735596,15.4392 C73.926108,15.0036923 74.056356,14.5588154 74.056356,14.0829231 L74.05668,14.0838923 Z M69.405336,14.0838923 C69.405336,12.9918923 70.248708,12.096 71.320824,12.0084462 C71.045424,11.5845692 70.858476,11.1280615 70.858476,10.6289077 C70.858476,9.54013846 71.743968,8.65684615 72.835848,8.65684615 C73.762488,8.65684615 74.540088,9.29266154 74.753928,10.1504308 C75.254832,9.71912308 75.856824,9.43643077 76.524264,9.43643077 C77.801472,9.43643077 78.836652,10.4693077 78.836652,11.7432 C78.836652,13.0161231 77.801472,14.049 76.524264,14.049 C75.374064,14.049 74.419884,13.2115846 74.24136,12.1144154 C73.86552,12.3599538 73.479312,12.5415231 73.053576,12.5880462 C73.371744,13.0364769 73.58364,13.5353077 73.58364,14.0832462 C73.58364,15.2334 72.648252,16.1664462 71.494488,16.1664462 C70.341048,16.1664462 69.405336,15.2334 69.405336,14.0832462 L69.405336,14.0838923 Z M72.836496,9.19703077 C72.042696,9.19703077 71.39988,9.83833846 71.39988,10.6292308 C71.39988,11.4198 72.04302,12.0611077 72.836172,12.0611077 C73.629,12.0611077 74.27214,11.4198 74.27214,10.6292308 C74.27214,9.83833846 73.629,9.19703077 72.836172,9.19703077 L72.836496,9.19703077 Z M76.524588,9.97693846 C75.546108,9.97693846 74.75328,10.7684769 74.75328,11.7441692 C74.75328,12.7192154 75.546432,13.5104308 76.524912,13.5104308 C77.503392,13.5104308 78.295896,12.7188923 78.295896,11.7438462 C78.295896,10.7681538 77.503068,9.97661538 76.524912,9.97661538 L76.524588,9.97693846 Z M71.494488,12.5412 C70.639776,12.5412 69.94674,13.2319385 69.94674,14.0845385 C69.94674,14.9368154 70.6401,15.6275538 71.494488,15.6275538 C72.349848,15.6275538 73.042236,14.9368154 73.042236,14.0845385 C73.042236,13.2316154 72.348876,12.5412 71.494164,12.5412 L71.494488,12.5412 Z M67.704984,3.60166154 C67.704984,2.74873846 68.398344,2.05735385 69.253704,2.05735385 C70.109064,2.05735385 70.802424,2.74873846 70.802424,3.60166154 C70.802424,4.45458462 70.109064,5.14596923 69.253704,5.14596923 C68.398344,5.14596923 67.704984,4.45458462 67.704984,3.60166154 L67.704984,3.60166154 Z M69.253704,2.59753846 C68.697396,2.59753846 68.246064,3.04661538 68.246064,3.60133846 C68.246064,4.15638462 68.697396,4.60610769 69.253704,4.60610769 C69.810012,4.60610769 70.261344,4.15638462 70.261344,3.60133846 C70.261344,3.04661538 69.810012,2.59721538 69.253704,2.59721538 L69.253704,2.59753846 Z M71.9766,17.8739077 C71.9766,16.7851385 72.862092,15.9024923 73.953972,15.9024923 C75.045852,15.9024923 75.93102,16.7851385 75.93102,17.8739077 C75.93102,18.9626769 75.045852,19.8453231 73.953972,19.8453231 C72.862092,19.8453231 71.9766,18.9626769 71.9766,17.8739077 L71.9766,17.8739077 Z M73.953972,16.4420308 C73.160172,16.4420308 72.518004,17.0830154 72.518004,17.8739077 C72.518004,18.6648 73.16082,19.3057846 73.954296,19.3057846 C74.747124,19.3057846 75.390264,18.6648 75.390264,17.8739077 C75.390264,17.0830154 74.747124,16.4420308 73.954296,16.4420308 L73.953972,16.4420308 Z M69.269904,6.72258462 C69.269904,5.86966154 69.963264,5.17827692 70.818624,5.17827692 C71.673984,5.17827692 72.367344,5.86966154 72.367344,6.72258462 C72.367344,7.57550769 71.673984,8.26689231 70.818624,8.26689231 C69.963264,8.26689231 69.269904,7.57550769 69.269904,6.72258462 L69.269904,6.72258462 Z M70.818624,5.71781538 C70.261992,5.71781538 69.810984,6.16753846 69.810984,6.72258462 C69.810984,7.27730769 70.261992,7.72670769 70.818624,7.72670769 C71.374932,7.72670769 71.826264,7.27763077 71.826264,6.72258462 C71.826264,6.16753846 71.374932,5.71781538 70.818624,5.71781538 L70.818624,5.71781538 Z M62.9046,22.5346154 C62.9046,20.6468769 64.439064,19.1164615 66.33252,19.1164615 C67.621392,19.1164615 68.7528,19.8356308 69.338268,20.8804615 C70.556508,21.3463385 71.434548,22.533 71.434548,23.9135077 C71.434548,25.1728615 70.702308,26.2752 69.651252,26.8102154 C69.231996,28.0850769 68.157612,29.0798308 66.832452,29.3819077 C66.858372,29.7250154 66.890772,30.0248308 66.890772,30.3324 C66.890772,32.3225538 65.542284,33.9973846 63.709092,34.5039692 L63.678636,34.7356154 C63.678636,36.8194615 62.312004,38.6070462 60.436692,39.2376923 C60.3207,40.7380615 59.04738,41.9395846 57.512592,41.9395846 C55.90134,41.9395846 54.595296,40.6375846 54.595296,39.0309231 C54.595296,38.4623077 54.759564,37.9324615 55.042416,37.4843538 C54.507816,36.6689077 54.194184,35.7384462 54.194184,34.7365846 C54.194184,32.3813538 55.920456,30.4283538 58.181004,30.0681231 C58.366332,27.9351692 60.001884,26.2542 62.075484,26.0296615 C62.106264,25.8648923 62.100756,25.7453538 62.100756,25.6238769 C62.100756,24.7095692 62.426052,23.8495385 62.958708,23.1894923 C62.919828,22.9827231 62.904276,22.7517231 62.904276,22.5349385 L62.9046,22.5346154 Z M69.17886,26.4412615 C70.206588,25.9986462 70.893468,25.0465385 70.893468,23.9135077 C70.893468,22.6906615 70.092216,21.6713538 68.974092,21.3402 C68.475132,20.3257385 67.49244,19.6563231 66.33252,19.6563231 C64.73844,19.6563231 63.44568,20.9454 63.44568,22.5349385 C63.44568,22.8095538 63.48456,23.0702769 63.556812,23.3232462 C62.986572,23.9435538 62.643132,24.7409077 62.643132,25.6242 C62.643132,25.9285385 62.683632,26.2238308 62.761068,26.5036154 L62.5482,26.5446462 C60.449976,26.5446462 58.75092,28.2414462 58.75092,30.3336923 L58.755132,30.5113846 C56.500092,30.6674308 54.735912,32.4963692 54.735912,34.7372308 C54.735912,35.7626769 55.103328,36.6950769 55.715688,37.422 C55.354104,37.9020923 55.137348,38.4371077 55.137348,39.0315692 C55.137348,40.3400308 56.20104,41.4006923 57.512916,41.4006923 C58.825116,41.4006923 59.887836,40.3390615 59.887836,39.0306 L59.881356,38.8545231 C61.761204,38.3731385 63.136908,36.7157538 63.136908,34.7372308 C63.136908,34.5288462 63.121356,34.3236923 63.091548,34.1233846 C64.94904,33.8003077 66.34872,32.2295077 66.34872,30.3330462 C66.34872,29.8600615 66.262212,29.4071077 66.10248,28.9890462 C67.619772,28.8607846 68.83056,27.8346923 69.17886,26.4419077 L69.17886,26.4412615 Z M64.081692,23.4899538 C63.980604,23.1594462 63.918396,22.8534923 63.918396,22.5349385 C63.918396,21.2058 64.998612,20.1280154 66.332196,20.1280154 C67.372236,20.1280154 68.275224,20.7980769 68.6151,21.7175538 C69.635052,21.9227077 70.420428,22.8360462 70.420428,23.9138308 C70.420428,24.9266769 69.725448,25.7999538 68.79654,26.0687538 C68.57136,27.4224462 67.38228,28.4679231 65.966724,28.4679231 C65.756124,28.4679231 65.550384,28.4453077 65.35242,28.4020154 C65.665404,29.0029385 65.876328,29.6439231 65.876328,30.3327231 C65.876328,32.1600462 64.394352,33.642 62.564076,33.6497538 C62.613648,34.0342154 62.664516,34.3799077 62.664516,34.7369077 C62.664516,36.6417692 61.227252,38.2116 59.375268,38.4287077 C59.388228,38.6580923 59.415768,38.8409538 59.415768,39.0312462 C59.415768,40.0793077 58.563648,40.929 57.512592,40.929 C56.461536,40.929 55.609416,40.0793077 55.609416,39.0312462 C55.609416,38.409 55.909764,37.8568615 56.373408,37.5108462 C55.657368,36.7632462 55.20798,35.8024154 55.20798,34.7369077 C55.20798,32.6834308 56.87658,31.0192615 58.934952,31.0192615 L59.29686,31.0338 C59.244372,30.7688769 59.222988,30.5533846 59.222988,30.3327231 C59.222988,28.5008769 60.712092,27.0160154 62.548848,27.0160154 C62.865072,27.0160154 63.17028,27.0596308 63.459288,27.1420154 C63.25938,26.6499692 63.114228,26.1534 63.114228,25.6242 C63.114228,24.7735385 63.488772,24.0110769 64.08072,23.4902769 L64.081692,23.4899538 Z M58.936572,37.9140462 C60.69654,37.9140462 62.123436,36.4912154 62.123436,34.7365846 C62.123436,34.1017385 61.936488,33.5108308 61.614756,33.0145846 C61.936488,33.0585231 62.236836,33.1098923 62.549496,33.1098923 C64.088496,33.1098923 65.334924,31.8660462 65.334924,30.3324 C65.334924,28.7984308 64.088172,27.5552308 62.549496,27.5552308 C61.011468,27.5552308 59.764392,28.7984308 59.764392,30.3324 C59.764392,30.8396308 59.900472,31.3152 60.138612,31.7248615 C59.736852,31.6360154 59.346108,31.5584769 58.9356,31.5584769 C57.17628,31.5584769 55.74906,32.9816308 55.74906,34.7369077 C55.74906,36.0007846 56.489076,37.0927846 57.560868,37.6045385 C56.723328,37.7130923 56.150172,38.3036769 56.150172,39.0312462 C56.150172,39.7807846 56.760264,40.3891385 57.511944,40.3891385 C58.263624,40.3891385 58.873392,39.7811077 58.873392,39.0312462 C58.873392,38.5505077 58.623264,38.1285692 58.24548,37.8875538 C58.479732,37.8898154 58.704264,37.9143692 58.934952,37.9143692 L58.936572,37.9140462 Z M64.788984,23.5926923 C64.105344,24.0514615 63.656604,24.7848462 63.656604,25.6238769 C63.656604,26.8968 64.69146,27.9280615 65.967372,27.9280615 C67.236804,27.9280615 68.267772,26.9077846 68.27814,25.6332462 C69.189228,25.5305077 69.879672,24.8029385 69.879672,23.9138308 C69.879672,22.9904769 69.136092,22.2409385 68.213016,22.2283385 C68.014728,21.3276 67.251384,20.6678769 66.332844,20.6678769 C65.297988,20.6678769 64.460124,21.504 64.460124,22.5352615 C64.460124,22.9284462 64.5813,23.2928769 64.789308,23.5933385 L64.788984,23.5926923 Z M56.624184,39.0309231 C56.624184,38.5411385 57.022056,38.1444 57.512916,38.1444 C58.003776,38.1444 58.401972,38.5411385 58.401972,39.0309231 C58.401972,39.5207077 58.003452,39.9174462 57.512592,39.9174462 C57.021408,39.9174462 56.623212,39.5207077 56.623212,39.0309231 L56.624184,39.0309231 Z M57.512916,38.6842615 C57.320784,38.6842615 57.16494,38.8393385 57.16494,39.0309231 C57.16494,39.2225077 57.32046,39.3779077 57.512592,39.3779077 C57.7044,39.3779077 57.85992,39.2228308 57.85992,39.0309231 C57.85992,38.8393385 57.7044,38.6842615 57.512268,38.6842615 L57.512916,38.6842615 Z M60.237108,30.3327231 C60.237108,29.0588308 61.272612,28.0266 62.549496,28.0266 C63.827028,28.0266 64.861884,29.0585077 64.861884,30.3320769 C64.861884,31.6056462 63.827028,32.6382 62.549496,32.6382 C61.272936,32.6382 60.237108,31.6056462 60.237108,30.3320769 L60.237108,30.3327231 Z M62.549496,28.5661385 C61.571016,28.5661385 60.778188,29.3567077 60.778188,30.3320769 C60.778188,31.3077692 61.57134,32.0986615 62.549496,32.0986615 C63.527976,32.0986615 64.320804,31.3071231 64.320804,30.3320769 C64.320804,29.3563846 63.527976,28.5658154 62.549496,28.5658154 L62.549496,28.5661385 Z M56.221776,34.7362615 C56.221776,33.2413846 57.436776,32.0295231 58.935924,32.0295231 C60.435396,32.0295231 61.650396,33.2410615 61.650396,34.7362615 C61.650396,36.2308154 60.435396,37.4423538 58.935924,37.4423538 C57.4371,37.4423538 56.2221,36.2308154 56.2221,34.7362615 L56.221776,34.7362615 Z M58.935924,32.5693846 C57.736152,32.5693846 56.763504,33.5395846 56.763504,34.7365846 C56.763504,35.9329385 57.736152,36.9031385 58.935924,36.9031385 C60.136344,36.9031385 61.108992,35.9329385 61.108992,34.7365846 C61.108992,33.5395846 60.13602,32.5697077 58.9356,32.5697077 L58.935924,32.5693846 Z M67.794084,25.0620462 C67.780152,25.2759231 67.8051,25.4471538 67.8051,25.6242 C67.8051,26.6360769 66.98214,27.4566923 65.966724,27.4566923 C64.951956,27.4566923 64.128672,26.6360769 64.128672,25.6238769 C64.128672,24.7331538 64.76598,23.9907231 65.610648,23.8253077 C65.20986,23.499 64.931544,23.0486308 64.931544,22.5349385 C64.931544,21.7640769 65.558484,21.1392462 66.331872,21.1392462 C67.104612,21.1392462 67.731552,21.7640769 67.731552,22.5349385 C67.731552,22.5976154 67.72734,22.6593231 67.719564,22.7197385 C67.904892,22.7242615 68.043564,22.6993846 68.188392,22.6993846 C68.860692,22.6993846 69.405984,23.2428 69.405984,23.9135077 C69.405984,24.5838923 68.860692,25.1273077 68.188392,25.1273077 C68.050044,25.1273077 67.917204,25.1046923 67.793112,25.0620462 L67.794084,25.0620462 Z M66.639348,23.9086615 L66.976308,24.0847385 L66.973068,23.7829846 L66.639348,23.9083385 L66.639348,23.9086615 Z M68.188716,23.2389231 C67.815468,23.2389231 67.512204,23.5406769 67.512204,23.9135077 C67.512204,24.2856923 67.815468,24.5877692 68.188716,24.5877692 C68.562288,24.5877692 68.865228,24.2856923 68.865228,23.9135077 C68.865228,23.5406769 68.562288,23.2389231 68.188716,23.2389231 L68.188716,23.2389231 Z M66.332196,21.6784615 C65.857536,21.6784615 65.472948,22.0616308 65.472948,22.5346154 C65.472948,23.0079231 65.857536,23.3907692 66.332196,23.3907692 C66.806208,23.3907692 67.190796,23.0079231 67.190796,22.5346154 C67.190796,22.0616308 66.806208,21.6784615 66.332196,21.6784615 L66.332196,21.6784615 Z M65.966724,24.3309231 C65.250684,24.3309231 64.670076,24.9098769 64.670076,25.6238769 C64.670076,26.3378769 65.251008,26.9171538 65.966724,26.9171538 C66.683412,26.9171538 67.26402,26.3378769 67.26402,25.6238769 C67.26402,24.9098769 66.683412,24.3309231 65.966724,24.3309231 L65.966724,24.3309231 Z" id="Shape"></path>
                        <path d="M2.451384,20.4530308 C2.464344,20.3376923 2.474064,20.2947231 2.503224,20.1558 L2.484756,20.1276923 C2.158164,20.1318923 1.831572,20.1357692 1.505628,20.1357692 C1.20042,20.1399692 0.713448,20.1399692 0.408564,20.1399692 L0.38394,20.1674308 C0.359316,20.3063538 0.35802,20.3225077 0.333072,20.4614308 L0.35478,20.4885692 C0.733212,20.4769385 0.775332,20.4769385 1.144368,20.4724154 C1.128168,20.6436462 1.112616,20.8536462 1.065312,21.2574923 C1.000512,21.8131846 0.932472,22.3679077 0.846288,22.9229538 L0.864108,22.9507385 C1.09836,22.9384615 1.11132,22.9384615 1.3527,22.9384615 L1.38186,22.911 C1.39644,22.6732154 1.425276,22.281 1.541268,21.2859231 C1.582092,20.9324769 1.589868,20.8691538 1.6443,20.4727385 C2.008476,20.4727385 2.067768,20.4727385 2.422548,20.4808154 L2.45106,20.4530308 L2.451384,20.4530308 Z M4.264812,20.1516 L4.238244,20.1238154 C3.966084,20.1357692 3.928176,20.1357692 3.631392,20.1399692 L3.594132,20.1674308 C3.427272,20.5480154 3.303828,20.8058308 2.968164,21.5075538 C2.765988,21.9359538 2.559924,22.3627385 2.349324,22.7892 C2.327292,22.8286154 2.305908,22.8680308 2.287764,22.9113231 L2.301696,22.9391077 C2.514888,22.9274769 2.557656,22.9274769 2.739096,22.9274769 L2.772144,22.9000154 C2.914704,22.5478615 2.950992,22.4535231 3.117204,22.0826308 C3.286656,22.0826308 3.481704,22.0787538 3.668004,22.0787538 C3.837456,22.0787538 4.001724,22.0826308 4.1715,22.0826308 C4.23954,22.4393077 4.261248,22.5465692 4.32378,22.9194 L4.350348,22.9471846 C4.529196,22.9391077 4.622508,22.9349077 4.842828,22.9310308 L4.863888,22.8996923 C4.781592,22.5184615 4.640976,21.9078462 4.554144,21.5272615 C4.470876,21.1505538 4.367196,20.6591538 4.278744,20.223 L4.265784,20.1519231 L4.264812,20.1516 Z M3.86046,20.4252462 L4.110912,21.7660154 C3.96252,21.7660154 3.809592,21.7692462 3.665736,21.7692462 C3.529656,21.7692462 3.395196,21.7660154 3.259764,21.7660154 L3.860784,20.4252462 L3.86046,20.4252462 Z M7.623396,20.4533538 C7.636356,20.3380154 7.646076,20.2950462 7.674588,20.1561231 L7.656768,20.1280154 C7.329528,20.1322154 7.003584,20.1360923 6.67764,20.1360923 C6.372432,20.1402923 5.88546,20.1402923 5.5809,20.1402923 L5.5566,20.1677538 C5.531976,20.3066769 5.530032,20.3228308 5.505408,20.4617538 L5.52744,20.4888923 C5.905872,20.4772615 5.947992,20.4772615 6.316704,20.4727385 C6.301152,20.6439692 6.285276,20.8539692 6.238296,21.2578154 C6.173496,21.8135077 6.104484,22.3682308 6.018948,22.9232769 L6.036768,22.9510615 C6.27102,22.9384615 6.283656,22.9384615 6.52536,22.9384615 L6.553548,22.911 C6.568776,22.6732154 6.597612,22.281 6.71328,21.2859231 C6.754428,20.9324769 6.76188,20.8691538 6.81696,20.4727385 C7.180488,20.4727385 7.23978,20.4727385 7.59456,20.4808154 L7.62372,20.4530308 L7.623396,20.4533538 Z M9.825948,20.1519231 L9.79938,20.1241385 C9.52722,20.1360923 9.488988,20.1360923 9.192204,20.1402923 L9.155268,20.1677538 C8.988084,20.5483385 8.864964,20.8061538 8.528976,21.5078769 C8.3268,21.9362769 8.120736,22.3630615 7.910136,22.7895231 C7.888428,22.8289385 7.86672,22.8683538 7.848576,22.9116462 L7.862832,22.9394308 C8.075376,22.9278 8.11782,22.9278 8.300232,22.9278 L8.332632,22.9003385 C8.475192,22.5481846 8.511804,22.4538462 8.677692,22.0829538 C8.847144,22.0829538 9.042192,22.0790769 9.228492,22.0790769 C9.397944,22.0790769 9.562212,22.0829538 9.731988,22.0829538 C9.800028,22.4396308 9.821736,22.5468923 9.884268,22.9197231 L9.910188,22.9475077 C10.08936,22.9394308 10.182996,22.9352308 10.40364,22.9313538 L10.424052,22.9000154 C10.341432,22.5187846 10.200492,21.9081692 10.11366,21.5275846 C10.030716,21.1508769 9.927036,20.6594769 9.83826,20.2233231 L9.8253,20.1522462 L9.825948,20.1519231 Z M9.420948,20.4255692 L9.671724,21.7663385 C9.523656,21.7663385 9.370404,21.7695692 9.226872,21.7695692 C9.090792,21.7695692 8.956008,21.7663385 8.820252,21.7663385 L9.420948,20.4255692 L9.420948,20.4255692 Z M13.942044,20.1283385 C13.771944,20.1364154 13.746348,20.1364154 13.5513,20.1406154 L13.527,20.1680769 C13.50432,20.6203846 13.440492,21.2028923 13.387032,21.6629538 C13.350744,21.9721385 13.324824,22.1979692 13.212072,22.3640308 C13.017024,22.6580308 12.681684,22.6657846 12.575736,22.6657846 C12.283488,22.6657846 12.131856,22.5549692 12.069324,22.4719385 C11.939724,22.3091077 11.959812,22.0671231 12.00582,21.6707077 C12.05118,21.2862462 12.134448,20.5683692 12.199248,20.1564462 L12.181752,20.1283385 C11.969208,20.1364154 11.9394,20.1364154 11.70612,20.1406154 L11.673072,20.1680769 C11.625768,20.6837077 11.617992,20.7509077 11.551248,21.3256615 L11.503944,21.7304769 C11.45016,22.1934462 11.422296,22.4315538 11.622204,22.6770923 C11.718756,22.7921077 11.965644,22.9985538 12.511908,22.9985538 C12.8547,22.9985538 13.191012,22.9113231 13.418136,22.7052 C13.693536,22.4554615 13.732416,22.1146154 13.760604,21.8765077 L13.79754,21.5198308 C13.827996,21.2226 13.8429,21.0956308 13.86234,20.9253692 C13.899276,20.6119846 13.91418,20.5166769 13.965048,20.1564462 L13.943016,20.1280154 L13.942044,20.1283385 Z M15.438276,22.9074462 C15.451236,22.5759692 15.518304,21.9672923 15.543576,21.7501846 C15.69132,21.7534154 15.71724,21.7501846 15.848784,21.7459846 C15.935616,21.8726308 15.956352,21.9120462 16.168572,22.2713077 C16.281972,22.4651538 16.403472,22.6548 16.50294,22.8560769 L16.544088,22.9394308 L16.571304,22.9594615 C16.661376,22.9517077 16.750476,22.9478308 16.840224,22.9433077 C16.925112,22.9400769 17.013888,22.9400769 17.098776,22.9400769 L17.12016,22.9003385 C16.895628,22.5759692 16.845732,22.4964923 16.7346,22.323 C16.670448,22.2202615 16.39278,21.7695692 16.33122,21.6787846 C16.889472,21.5398615 17.10882,21.2184 17.145756,20.9011385 C17.18982,20.5205538 17.007732,20.3028 16.693776,20.2000615 C16.494192,20.1322154 16.269336,20.1322154 16.036704,20.1322154 L15.778152,20.1360923 C15.633648,20.1360923 15.425964,20.1402923 15.3495,20.1402923 L15.243552,20.1402923 L15.21504,20.1677538 C15.194304,20.5644923 15.174864,20.8775538 15.071508,21.7653692 C15.026148,22.1485385 14.9769,22.5362308 14.919228,22.9187538 L14.941908,22.9471846 C15.163524,22.9349077 15.167736,22.9349077 15.409116,22.9349077 L15.437628,22.9071231 L15.438276,22.9074462 Z M15.572736,21.4245231 C15.62004,20.9851385 15.627816,20.9214923 15.685164,20.4617538 C15.829668,20.4575538 15.905484,20.4575538 15.960564,20.4575538 C16.278084,20.4575538 16.505856,20.4691846 16.618284,20.6633538 C16.666884,20.7544615 16.676604,20.8539692 16.666884,20.937 C16.652304,21.0636462 16.582644,21.1867385 16.467624,21.2697692 C16.244712,21.4364769 15.894144,21.4280769 15.572736,21.4248462 L15.572736,21.4245231 Z M19.75428,20.1522462 L19.72836,20.1244615 C19.455552,20.1364154 19.41732,20.1364154 19.12086,20.1406154 L19.0836,20.1680769 C18.916416,20.5486615 18.793296,20.8064769 18.457632,21.5082 C18.255132,21.9366 18.049392,22.3633846 17.838792,22.7898462 C17.81676,22.8292615 17.795052,22.8686769 17.777232,22.9119692 L17.791164,22.9397538 C18.005004,22.9281231 18.047124,22.9281231 18.229212,22.9281231 L18.261612,22.9006615 C18.404172,22.5485077 18.440784,22.4541692 18.606996,22.0832769 C18.776124,22.0832769 18.971496,22.0794 19.157796,22.0794 C19.327248,22.0794 19.491516,22.0832769 19.661292,22.0832769 C19.72998,22.4399538 19.75104,22.5472154 19.813572,22.9200462 L19.84014,22.9478308 C20.018988,22.9397538 20.1123,22.9355538 20.33262,22.9316769 L20.35368,22.9003385 C20.270736,22.5191077 20.13012,21.9084923 20.043288,21.5279077 C19.96002,21.1512 19.856016,20.6598 19.767888,20.2236462 L19.754928,20.1525692 L19.75428,20.1522462 Z M19.350252,20.4258923 L19.60038,21.7666615 C19.452312,21.7666615 19.29906,21.7698923 19.155204,21.7698923 C19.020096,21.7698923 18.885312,21.7666615 18.750204,21.7666615 L19.350576,20.4258923 L19.350252,20.4258923 Z M23.591412,22.7455846 C23.626404,22.3727538 23.665932,21.9960462 23.709348,21.6232154 C23.766048,21.1353692 23.832468,20.6404154 23.897268,20.1564462 L23.874588,20.1286615 C23.704812,20.1367385 23.66172,20.1409385 23.471532,20.1409385 L23.442372,20.1684 C23.427792,20.4420462 23.421636,20.5334769 23.365908,21.1557231 L23.246028,22.4716154 L22.82256,21.6035077 C22.596408,21.1434462 22.35924,20.6400923 22.127256,20.1561231 L22.088376,20.1283385 C21.846024,20.1364154 21.803256,20.1364154 21.540816,20.1406154 L21.516192,20.1680769 C21.47472,20.7076154 21.415752,21.2503846 21.352896,21.7899231 C21.308832,22.1663077 21.260232,22.5468923 21.19932,22.9239231 L21.222,22.9513846 C21.42612,22.9394308 21.443292,22.9394308 21.629592,22.9394308 L21.658104,22.9119692 C21.668796,22.7494615 21.669444,22.7413846 21.69504,22.4124923 C21.710268,22.2454615 21.72096,22.0829538 21.735864,21.9165692 L21.852504,20.5564154 L22.390344,21.6742615 C22.596408,22.0910308 22.797612,22.5078 22.998816,22.9236 L23.029596,22.9513846 C23.284584,22.9394308 23.301756,22.9394308 23.551236,22.9394308 L23.57586,22.9119692 L23.591088,22.7452615 L23.591412,22.7455846 Z M27.225072,21.5640923 C27.025164,21.5721692 26.978832,21.5721692 26.749764,21.5721692 L26.721576,21.5996308 C26.712828,21.7463077 26.702136,21.9840923 26.666496,22.2894 L26.627616,22.5866308 C26.527176,22.6144154 26.395632,22.6544769 26.183736,22.6544769 C25.50204,22.6544769 25.187436,22.2299538 25.263576,21.5754 C25.28496,21.3935077 25.345548,21.0526615 25.588872,20.7828923 C25.890192,20.4501231 26.2602,20.4339692 26.412804,20.4339692 C26.806464,20.4339692 27.04266,20.5890462 27.164484,20.6720769 L27.198828,20.664 C27.23706,20.4817846 27.252936,20.4184615 27.290196,20.2795385 L27.272376,20.2517538 C27.159624,20.2007077 26.885844,20.0814923 26.428356,20.0814923 C26.204148,20.0814923 25.705836,20.1015231 25.278156,20.5014923 C25.012476,20.7470308 24.805116,21.1163077 24.751008,21.5760462 C24.69852,22.0315846 24.82326,22.3766308 25.00632,22.5872769 C25.282692,22.9038923 25.72884,22.9992 26.14356,22.9992 C26.46108,22.9992 26.75106,22.9475077 27.06048,22.8366923 L27.088992,22.8085846 C27.098712,22.6900154 27.102924,22.6186154 27.121392,22.4564308 C27.14958,22.2183231 27.190404,21.9007385 27.244512,21.588 L27.22572,21.5640923 L27.225072,21.5640923 Z M29.912004,20.1522462 L29.886084,20.1247846 C29.613924,20.1367385 29.575692,20.1367385 29.278908,20.1409385 L29.241648,20.1684 C29.074788,20.5489846 28.951668,20.8068 28.61568,21.5085231 C28.413504,21.9369231 28.20744,22.3637077 27.99684,22.7901692 C27.975132,22.8295846 27.953748,22.869 27.93528,22.9122923 L27.949536,22.9400769 C28.162404,22.9284462 28.204848,22.9284462 28.386936,22.9284462 L28.419984,22.9009846 C28.562544,22.5488308 28.598832,22.4544923 28.76472,22.0836 C28.934172,22.0836 29.129544,22.0797231 29.31552,22.0797231 C29.484972,22.0797231 29.64924,22.0836 29.81934,22.0836 C29.88738,22.4402769 29.909088,22.5475385 29.97162,22.9203692 L29.99754,22.9481538 C30.176712,22.9400769 30.270348,22.9358769 30.490992,22.932 L30.511404,22.9006615 C30.42846,22.5194308 30.287844,21.9088154 30.201012,21.5282308 C30.118068,21.1515231 30.014388,20.6601231 29.925612,20.2239692 L29.912652,20.1528923 L29.912004,20.1522462 Z M29.507976,20.4262154 L29.758428,21.7669846 C29.610036,21.7669846 29.457108,21.7702154 29.313252,21.7702154 C29.17782,21.7702154 29.042712,21.7669846 28.90728,21.7669846 L29.507652,20.4262154 L29.507976,20.4262154 Z M35.186076,20.1528923 L35.159508,20.1251077 C34.887348,20.1370615 34.849116,20.1370615 34.552008,20.1412615 L34.515396,20.1687231 C34.348212,20.5493077 34.225092,20.8071231 33.889428,21.5088462 C33.686928,21.9372462 33.48054,22.3640308 33.26994,22.7904923 C33.248556,22.8299077 33.226848,22.8693231 33.209028,22.9126154 L33.22296,22.9404 C33.436152,22.9287692 33.47892,22.9287692 33.66036,22.9287692 L33.69276,22.9013077 C33.83532,22.5491538 33.872256,22.4548154 34.038144,22.0839231 C34.207596,22.0839231 34.402644,22.0800462 34.588944,22.0800462 C34.758396,22.0800462 34.923312,22.0839231 35.09244,22.0839231 C35.161128,22.4406 35.182512,22.5478615 35.24472,22.9206923 L35.271288,22.9484769 C35.450136,22.9404 35.543448,22.9362 35.764416,22.9323231 L35.785152,22.9009846 C35.702208,22.5197538 35.561592,21.9091385 35.47476,21.5285538 C35.391492,21.1518462 35.287812,20.6604462 35.19936,20.2242923 L35.1864,20.1532154 L35.186076,20.1528923 Z M34.781076,20.4265385 L35.031852,21.7673077 C34.883784,21.7673077 34.730532,21.7705385 34.586676,21.7705385 C34.451244,21.7705385 34.316136,21.7673077 34.180704,21.7673077 L34.7814,20.4265385 L34.781076,20.4265385 Z M37.722996,22.9998462 C38.556972,22.9998462 39.161556,22.5003692 39.271716,21.5524615 C39.378636,20.6329846 38.913696,20.0818154 38.075508,20.0818154 C37.199088,20.0818154 36.622044,20.6730462 36.518688,21.5605385 C36.416304,22.4406 36.847224,22.9959692 37.72332,22.9998462 L37.722996,22.9998462 Z M37.7703,22.6670769 C37.456668,22.6670769 37.236348,22.5242769 37.11906,22.2942462 C37.00242,22.0606615 37.01214,21.7233692 37.03482,21.5334 C37.054908,21.3547385 37.128132,20.9822308 37.316052,20.7483231 C37.420704,20.6136 37.647828,20.4113538 38.037276,20.4113538 C38.138688,20.4113538 38.498328,20.4155538 38.678796,20.7522 C38.811636,20.9977385 38.787336,21.3864 38.770164,21.5334 C38.70018,22.1359385 38.392056,22.6706308 37.7703,22.6674 L37.7703,22.6670769 Z M42.185772,20.4546462 C42.19938,20.3393077 42.208452,20.2963385 42.237612,20.1574154 L42.219792,20.1293077 C41.892552,20.1335077 41.566608,20.1373846 41.24034,20.1373846 C40.935132,20.1415846 40.44816,20.1415846 40.143276,20.1415846 L40.118652,20.1690462 C40.094352,20.3079692 40.092732,20.3241231 40.067784,20.4630462 L40.090464,20.4901846 C40.468248,20.4785538 40.510692,20.4785538 40.879404,20.4740308 C40.863852,20.6452615 40.847976,20.8552615 40.800672,21.2591077 C40.735872,21.8148 40.667184,22.3695231 40.581324,22.9245692 L40.599144,22.9523538 C40.83372,22.9404 40.846032,22.9404 41.087412,22.9404 L41.116572,22.9129385 C41.131152,22.6751538 41.159988,22.2829385 41.27598,21.2878615 C41.316804,20.9344154 41.32458,20.8710923 41.37966,20.4746769 C41.743188,20.4746769 41.80248,20.4746769 42.15726,20.4827538 L42.185772,20.4549692 L42.185772,20.4546462 Z M44.702604,22.5876 C44.153748,22.6069846 44.022204,22.6069846 43.383276,22.6069846 C43.422804,22.2302769 43.431228,22.1191385 43.493436,21.6594 C44.069184,21.6594 44.175132,21.6594 44.664696,21.6713538 L44.693856,21.6435692 C44.712648,21.5169231 44.717184,21.4771846 44.750232,21.3382615 L44.732412,21.3108 C44.214984,21.3185538 44.053308,21.3224308 43.533612,21.3185538 C43.575732,20.9534769 43.588692,20.8387846 43.643772,20.4740308 C44.181612,20.4782308 44.363052,20.4782308 44.90802,20.4940615 L44.936532,20.4659538 C44.96148,20.3238 44.975412,20.2753385 45.002304,20.1570923 L44.980272,20.1289846 C44.20008,20.1370615 44.03484,20.1370615 43.20054,20.1412615 L43.17138,20.1687231 C43.148052,20.6249077 43.103988,21.0054923 43.026228,21.6710308 C42.941988,22.3969846 42.90408,22.6111846 42.855156,22.9245692 L42.872652,22.9520308 C43.678116,22.9439538 43.810308,22.9400769 44.636184,22.9400769 L44.668584,22.9126154 C44.692884,22.7775692 44.696124,22.7501077 44.724636,22.6153846 L44.702604,22.5876 L44.702604,22.5876 Z M47.445912,20.1528923 L47.419344,20.1251077 C47.147184,20.1370615 47.108952,20.1370615 46.812168,20.1412615 L46.775232,20.1687231 C46.608372,20.5493077 46.484928,20.8071231 46.149264,21.5088462 C45.947088,21.9372462 45.740376,22.3640308 45.530424,22.7904923 C45.508392,22.8299077 45.487008,22.8693231 45.468864,22.9126154 L45.482796,22.9404 C45.695988,22.9287692 45.738108,22.9287692 45.920196,22.9287692 L45.953244,22.9013077 C46.095804,22.5491538 46.131444,22.4548154 46.29798,22.0839231 C46.467108,22.0839231 46.66248,22.0800462 46.84878,22.0800462 C47.018232,22.0800462 47.1825,22.0839231 47.351952,22.0839231 C47.42064,22.4406 47.442672,22.5478615 47.504232,22.9206923 L47.5308,22.9484769 C47.709648,22.9404 47.80296,22.9362 48.02328,22.9323231 L48.04434,22.9009846 C47.96172,22.5197538 47.82078,21.9091385 47.733948,21.5285538 C47.65068,21.1518462 47.547324,20.6604462 47.458548,20.2242923 L47.445588,20.1532154 L47.445912,20.1528923 Z M47.040912,20.4265385 L47.291688,21.7673077 C47.143944,21.7673077 46.991016,21.7705385 46.84716,21.7705385 C46.71108,21.7705385 46.576296,21.7673077 46.440864,21.7673077 L47.04156,20.4265385 L47.040912,20.4265385 Z M49.510764,22.9084154 C49.523724,22.5769385 49.590468,21.9682615 49.616064,21.7511538 C49.763484,21.7543846 49.789404,21.7511538 49.921272,21.7469538 C50.008104,21.8736 50.02884,21.9130154 50.24106,22.2722769 C50.35446,22.4661231 50.476284,22.6557692 50.57478,22.8570462 C50.589036,22.8848308 50.602644,22.9126154 50.616252,22.9404 L50.643792,22.9604308 C50.73354,22.9526769 50.822964,22.9488 50.912712,22.9442769 C50.996952,22.9410462 51.086376,22.9410462 51.171264,22.9410462 L51.192648,22.9013077 C50.968116,22.5769385 50.91822,22.4974615 50.807088,22.3239692 C50.742936,22.2212308 50.464944,21.7705385 50.403708,21.6797538 C50.961636,21.5408308 51.181308,21.2193692 51.218244,20.9021077 C51.262308,20.5215231 51.08022,20.3037692 50.76594,20.2010308 C50.566356,20.1331846 50.342148,20.1331846 50.109192,20.1331846 L49.849992,20.1370615 C49.706784,20.1370615 49.498452,20.1412615 49.422312,20.1412615 L49.316688,20.1412615 L49.288176,20.1687231 C49.26744,20.5654615 49.248,20.8785231 49.14432,21.7663385 C49.099608,22.1495077 49.05036,22.5372 48.993012,22.9197231 L49.015692,22.9481538 C49.236984,22.9358769 49.24152,22.9358769 49.4829,22.9358769 L49.511412,22.9080923 L49.510764,22.9084154 Z M49.645224,21.4254923 C49.692528,20.9861077 49.699656,20.9224615 49.757652,20.4627231 C49.902156,20.4585231 49.977972,20.4585231 50.033052,20.4585231 C50.350572,20.4585231 50.578344,20.4701538 50.690772,20.6643231 C50.739372,20.7554308 50.749092,20.8549385 50.739372,20.9379692 C50.724792,21.0646154 50.655132,21.1877077 50.539788,21.2707385 C50.3172,21.4374462 49.966956,21.4290462 49.645548,21.4258154 L49.645224,21.4254923 Z M53.342712,22.9998462 C54.177012,22.9998462 54.781272,22.5003692 54.891432,21.5524615 C54.998352,20.6329846 54.533412,20.0818154 53.695224,20.0818154 C52.818804,20.0818154 52.24176,20.6730462 52.138404,21.5605385 C52.03602,22.4406 52.466616,22.9959692 53.342712,22.9998462 L53.342712,22.9998462 Z M53.390016,22.6670769 C53.076384,22.6670769 52.856388,22.5242769 52.738776,22.2942462 C52.622136,22.0606615 52.631856,21.7233692 52.654536,21.5334 C52.674624,21.3547385 52.747848,20.9822308 52.936416,20.7483231 C53.040744,20.6136 53.266896,20.4113538 53.656992,20.4113538 C53.758728,20.4113538 54.11772,20.4155538 54.298512,20.7522 C54.431352,20.9977385 54.407052,21.3864 54.38988,21.5334 C54.319248,22.1359385 54.011448,22.6706308 53.389692,22.6674 L53.390016,22.6670769 Z M57.382992,20.1535385 L57.357072,20.1254308 C57.084912,20.1373846 57.046032,20.1373846 56.749572,20.1415846 L56.712312,20.1690462 C56.545128,20.5496308 56.422008,20.8074462 56.086344,21.5091692 C55.884168,21.9375692 55.677456,22.3643538 55.466856,22.7908154 C55.445472,22.8302308 55.424088,22.8696462 55.406268,22.9129385 L55.419876,22.9407231 C55.633068,22.9290923 55.675836,22.9290923 55.857924,22.9290923 L55.890324,22.9016308 C56.032884,22.5494769 56.069496,22.4551385 56.235384,22.0842462 C56.404836,22.0842462 56.599884,22.0803692 56.786184,22.0803692 C56.955312,22.0803692 57.119904,22.0842462 57.28968,22.0842462 C57.35772,22.4409231 57.379428,22.5481846 57.44196,22.9210154 L57.46788,22.9488 C57.647052,22.9407231 57.740688,22.9365231 57.961332,22.9326462 L57.981744,22.9013077 C57.899448,22.5200769 57.758184,21.9094615 57.671352,21.5288769 C57.588408,21.1521692 57.484728,20.6607692 57.395952,20.2246154 L57.382992,20.1535385 L57.382992,20.1535385 Z M56.97864,20.4268615 L57.229092,21.7676308 C57.0807,21.7676308 56.927772,21.7708615 56.783916,21.7708615 C56.647836,21.7708615 56.513052,21.7676308 56.37762,21.7676308 L56.977992,20.4268615 L56.97864,20.4268615 Z" id="Shape"></path>
                        <path d="M26.161056,16.1441538 C26.096256,16.6836923 26.037936,17.2290462 25.986096,17.7685846 L25.961148,18.0283385 L25.89246,18.1045846 C25.585308,18.1045846 25.33518,18.1110462 25.058808,18.1233231 L24.98364,18.0570923 C24.68232,17.4497077 24.381,16.8429692 24.0732,16.2381692 L23.3766,14.8305231 L23.22432,16.5680308 C23.202288,16.8096923 23.186412,17.0448923 23.164056,17.2865538 C23.143968,17.5346769 23.12388,17.7821538 23.10768,18.0309231 L23.0283,18.1052308 C22.783356,18.1052308 22.57956,18.1123385 22.362156,18.1246154 L22.290876,18.0383538 C22.383216,17.4842769 22.456116,16.9308462 22.52286,16.3738615 C22.617468,15.5849077 22.705272,14.7988615 22.767804,14.0073231 L22.836816,13.9310769 C23.126796,13.9272 23.414508,13.9220308 23.704164,13.9126615 L23.794884,13.9753385 C24.140592,14.6783538 24.481764,15.3849231 24.835572,16.0850308 L25.362072,17.1350308 L25.51824,15.4556769 C25.564896,14.9484462 25.60572,14.5042154 25.633908,14.0057077 L25.712964,13.9307538 C25.954668,13.9307538 26.160084,13.9217077 26.372952,13.9120154 L26.44326,13.9969846 C26.344764,14.7135692 26.246268,15.4282154 26.160408,16.1454462 L26.161056,16.1441538 Z M29.252016,17.5117385 C29.457108,17.4390462 29.587356,17.3598923 29.755512,17.2413231 L29.879604,17.3175692 C29.831004,17.5075385 29.789532,17.6907231 29.755512,17.8836 L29.690712,17.9443385 C29.350512,18.0994154 28.999944,18.1737231 28.616976,18.1737231 C27.545508,18.1737231 26.928936,17.6038154 27.053352,16.5680308 C27.184572,15.4711846 27.979344,14.9235692 28.840536,14.9235692 C29.35764,14.9235692 29.702376,15.1206462 29.879604,15.3442154 C30.173472,15.7125231 30.144636,16.1987538 30.083724,16.6236 L29.996244,16.6862769 C29.267244,16.6817538 28.576152,16.6814308 27.848124,16.6856308 C27.834192,16.8781846 27.838404,17.1120923 27.993924,17.3091692 C28.198044,17.5653692 28.524312,17.5941231 28.716444,17.5941231 C28.891404,17.5941231 29.075436,17.5669846 29.252016,17.5117385 L29.252016,17.5117385 Z M27.921996,16.1302615 C28.591704,16.1344615 28.842156,16.1302615 29.357316,16.1238 L29.357964,16.0356 C29.356344,15.9806769 29.350512,15.9212308 29.334312,15.8592 C29.254284,15.5739231 29.023272,15.4566462 28.76472,15.4566462 C28.457568,15.4566462 28.06488,15.6375692 27.921348,16.1302615 L27.921996,16.1302615 Z M35.829216,15.1222615 C35.452728,15.8976462 34.822548,17.3159538 34.544556,18.0409385 L34.463556,18.0990923 C34.156404,18.1032923 33.859296,18.1100769 33.552468,18.1236462 L33.477948,18.0474 C33.43842,17.6364462 33.37848,17.2177385 33.32016,16.8093692 L33.155892,15.6828 L32.706504,16.8536308 C32.575284,17.1889846 32.379264,17.6732769 32.252904,18.0386769 L32.179356,18.0994154 C31.866048,18.1036154 31.561812,18.1104 31.249476,18.1239692 L31.184676,18.0464308 C31.089096,17.4044769 30.812076,15.8259231 30.644244,15.0977077 L30.708396,15.0117692 C30.961764,14.9975538 31.210596,14.9849538 31.463316,14.9610462 L31.534596,15.0337385 C31.564404,15.4075385 31.690116,16.2882462 31.717008,16.4843538 L31.843368,17.4115846 L32.34492,16.1112 C32.48424,15.7332 32.593104,15.4392 32.71104,15.0767077 L32.79204,15.0101538 C33.13224,15.0101538 33.431616,15.0036923 33.746544,14.9907692 L33.811344,15.0699231 C33.858972,15.5319231 33.93576,16.0068462 34.000236,16.4662615 L34.150572,17.4367846 L34.573716,16.3350923 L34.797276,15.7328769 C34.906788,15.4543846 34.958304,15.3322615 35.037036,15.0641077 L35.120628,15.0040154 C35.243748,15.0040154 35.350668,15.0104769 35.451108,15.0104769 C35.545716,15.0104769 35.640972,15.0040154 35.73558,15.0040154 L35.846388,15.0873692 L35.829216,15.1229077 L35.829216,15.1222615 Z M41.148648,17.6002615 C41.105556,17.7521077 41.074128,17.9039538 41.041728,18.0577385 L40.954248,18.1107231 C40.13226,18.1042615 39.306384,18.1042615 38.484396,18.1042615 C38.28222,18.1042615 38.080368,18.1068462 37.878516,18.1113692 L37.807884,17.9957077 C38.384604,17.2080462 38.948364,16.4139231 39.509532,15.6168923 L40.280004,14.5200462 C39.67218,14.5200462 39.066948,14.5245692 38.459124,14.532 L38.399184,14.4415385 C38.438064,14.2903385 38.472084,14.1420462 38.501568,13.9892308 L38.578032,13.9171846 C39.231216,13.923 39.8844,13.9288154 40.538232,13.9288154 C40.856724,13.9288154 41.173272,13.9242923 41.490792,13.9158923 L41.545872,14.0425385 C41.095512,14.6379692 40.700232,15.183 40.260564,15.8020154 C39.851352,16.3738615 39.447324,16.9463538 39.049776,17.5188462 C39.75156,17.5188462 40.378176,17.5068923 41.079312,17.4891231 L41.157072,17.5682769 L41.148324,17.5996154 L41.148648,17.6002615 Z M44.036784,17.5117385 C44.2422,17.4390462 44.372772,17.3598923 44.540928,17.2413231 L44.66502,17.3175692 C44.61642,17.5075385 44.5743,17.6907231 44.54028,17.8836 L44.476128,17.9443385 C44.135928,18.0994154 43.785036,18.1737231 43.402068,18.1737231 C42.330924,18.1737231 41.714676,17.6038154 41.839092,16.5680308 C41.970312,15.4711846 42.764436,14.9235692 43.625952,14.9235692 C44.143056,14.9235692 44.487792,15.1206462 44.66502,15.3442154 C44.958888,15.7125231 44.929728,16.1987538 44.868492,16.6236 L44.781012,16.6862769 C44.052984,16.6817538 43.361892,16.6814308 42.63354,16.6856308 C42.619284,16.8781846 42.62382,17.1120923 42.77934,17.3091692 C42.98346,17.5653692 43.309728,17.5941231 43.501212,17.5941231 C43.67682,17.5941231 43.860852,17.5669846 44.037108,17.5117385 L44.036784,17.5117385 Z M42.707412,16.1302615 C43.377444,16.1344615 43.627572,16.1302615 44.142732,16.1238 L44.14338,16.0356 C44.14176,15.9806769 44.136252,15.9212308 44.120052,15.8592 C44.040348,15.5739231 43.809012,15.4566462 43.550784,15.4566462 C43.242984,15.4566462 42.850944,15.6375692 42.707412,16.1302615 L42.707412,16.1302615 Z M48.345012,15.9079846 C48.289932,16.6197231 48.160332,17.3217692 48.13506,18.0370615 L48.061188,18.0984462 C47.826288,18.1026462 47.593008,18.1139538 47.358108,18.123 L47.30724,18.039 L47.321172,17.9472462 C47.0691,18.0936 46.791756,18.1734 46.48914,18.1734 C45.821052,18.1734 45.395316,17.7527538 45.467568,17.1476308 C45.585504,16.1622462 46.776528,16.0336615 47.557368,15.9512769 C47.563848,15.8963538 47.568708,15.8478923 47.568708,15.8036308 C47.568708,15.7506462 47.560932,15.7092923 47.543436,15.6744 C47.505528,15.5975077 47.401848,15.4967077 47.105388,15.4967077 C46.726956,15.4967077 46.45512,15.5955692 46.113948,15.7228615 L46.003788,15.6550154 L46.082196,15.1768615 L46.151532,15.12 C46.521864,15.0043385 46.904508,14.9235692 47.298492,14.9235692 C47.773152,14.9235692 48.25818,15.0715385 48.345012,15.5664923 C48.357972,15.6530769 48.354732,15.7787538 48.345012,15.9079846 L48.345012,15.9079846 Z M47.497428,16.5047077 C47.04966,16.5644769 46.230588,16.6339385 46.268172,17.2096615 C46.28502,17.4568154 46.4535,17.5821692 46.741212,17.5821692 C46.955052,17.5821692 47.1582,17.5169077 47.32992,17.4044769 L47.395368,17.3586 L47.497752,16.5047077 L47.497428,16.5047077 Z M50.224212,15.7706769 C50.122476,16.6203692 50.055732,17.2148308 50.005512,18.0322154 L49.924512,18.0981231 C49.681512,18.1026462 49.440456,18.1136308 49.198104,18.1226769 L49.139136,18.0338308 C49.251564,17.2894615 49.321872,16.7764154 49.41648,15.9877846 C49.509792,15.2085231 49.612176,14.3762769 49.638744,13.5915231 L49.706784,13.5256154 C49.964688,13.4878154 50.212224,13.4442 50.468184,13.3941231 L50.542704,13.4852308 C50.406624,14.2476923 50.315904,15.0027231 50.223888,15.7703538 L50.224212,15.7706769 Z M53.831304,15.9076615 C53.776224,16.6194 53.646624,17.3214462 53.621352,18.0367385 L53.54748,18.0981231 C53.31258,18.1023231 53.0793,18.1136308 52.8444,18.1226769 L52.793208,18.0386769 L52.806816,17.9469231 C52.555068,18.0932769 52.2774,18.1730769 51.975108,18.1730769 C51.306696,18.1730769 50.880636,17.7524308 50.953212,17.1473077 C51.071148,16.1619231 52.262172,16.0333385 53.043012,15.9509538 C53.049492,15.8960308 53.054676,15.8475692 53.054352,15.8033077 C53.054352,15.7503231 53.047224,15.7089692 53.029404,15.6740769 C52.99182,15.5971846 52.887816,15.4963846 52.592004,15.4963846 C52.212924,15.4963846 51.941412,15.5952462 51.600564,15.7225385 L51.489432,15.6546923 L51.568488,15.1765385 L51.637824,15.1196769 C52.008156,15.0040154 52.3908,14.9232462 52.784784,14.9232462 C53.259444,14.9232462 53.743824,15.0712154 53.831304,15.5661692 C53.844912,15.6527538 53.841024,15.7784308 53.831304,15.9076615 L53.831304,15.9076615 Z M52.984044,16.5043846 C52.536276,16.5641538 51.717204,16.6336154 51.755112,17.2093385 C51.771312,17.4564923 51.939792,17.5818462 52.226856,17.5818462 C52.440696,17.5818462 52.644168,17.5165846 52.816536,17.4041538 L52.881336,17.3582769 L52.98372,16.5043846 L52.984044,16.5043846 Z M57.696948,16.8607385 C57.669408,17.1663692 57.614652,17.6878154 57.602988,18.0315692 L57.521988,18.0978 C57.290976,18.102 57.066768,18.1091077 56.835756,18.123 L56.755728,18.0406154 C56.764476,17.9685692 56.77938,17.8965231 56.788128,17.8241538 C56.82798,17.5430769 56.861676,17.262 56.895048,16.9802769 C57.001968,16.0918154 57.000672,16.0443231 56.984796,15.9328615 C56.946564,15.6853846 56.804652,15.5484 56.535084,15.5484 C56.195856,15.5484 55.907496,15.7218923 55.720548,15.8430462 C55.620108,16.6420154 55.553688,17.241 55.510596,18.0318923 L55.430568,18.0978 C55.186596,18.1023231 54.947808,18.1094308 54.704808,18.1236462 L54.645192,18.0338308 C54.695412,17.6736 54.750168,17.3166 54.793584,16.9554 C54.879768,16.2349385 54.907632,15.8236615 54.933552,15.1413231 L55.008072,15.0702462 C55.25496,15.0301846 55.500552,14.9878615 55.746792,14.9458615 L55.831032,15.0314769 L55.801872,15.2369538 C56.125872,15.0573231 56.485512,14.9397231 56.871072,14.9397231 C57.033072,14.9397231 57.240432,14.9629846 57.41442,15.057 C57.580632,15.1500462 57.708288,15.2934923 57.76434,15.4640769 C57.830112,15.6501692 57.81294,15.8356154 57.7773,16.1884154 L57.6963,16.8597692 L57.696948,16.8607385 Z M61.131996,14.9416615 C61.198092,14.4182769 61.222716,14.0945538 61.235028,13.5912 L61.303068,13.5256154 C61.551252,13.4868462 61.79166,13.4438769 62.038548,13.3954154 L62.128296,13.4729538 C61.988976,14.2690154 61.836048,15.4792615 61.737876,16.2985846 C61.659144,16.9570154 61.618644,17.3938154 61.582356,18.0270462 L61.512696,18.1039385 C61.256088,18.1039385 61.038036,18.1136308 60.811884,18.1223538 L60.726672,18.0486923 L60.745464,17.9414308 C60.48108,18.0900462 60.219936,18.1611231 59.930928,18.1611231 C58.28274,18.1611231 58.28922,16.1218615 59.350968,15.3438923 C59.875848,14.9503846 60.496632,14.9342308 60.82614,14.9342308 C60.942132,14.9342308 61.005636,14.9342308 61.131672,14.9419846 L61.131996,14.9416615 Z M60.747084,17.3566615 L60.823872,17.3056154 C60.921072,16.5909692 60.943752,16.4042308 61.04322,15.5261077 C60.969348,15.5202923 60.902928,15.5131846 60.802488,15.5131846 C60.608088,15.5131846 60.212808,15.5254615 59.8995,15.7684154 C59.756292,15.8814923 59.50746,16.1383385 59.448492,16.6316769 C59.41026,16.9482923 59.481864,17.1679846 59.584572,17.2962462 C59.673024,17.4028615 59.845392,17.5298308 60.149628,17.5298308 C60.365736,17.5298308 60.569856,17.4652154 60.746436,17.3560154 L60.747084,17.3566615 Z" id="Shape"></path>
                        <path d="M19.687536,8.20744615 C19.574136,8.32052308 19.437084,8.40129231 19.241712,8.45298462 C19.047312,8.50403077 18.876564,8.54021538 18.729792,8.56056923 C18.276192,8.63164615 17.808012,8.69852308 17.323632,8.75990769 C16.850592,8.81095385 16.413192,8.89236923 16.011432,9.00544615 C15.609672,9.11787692 15.268176,9.28167692 14.987592,9.49652308 C14.718672,9.70070769 14.561208,9.99729231 14.5152,10.3849846 C14.48604,10.6314923 14.510016,10.8508615 14.58648,11.0456769 C14.676228,11.2291846 14.800968,11.3923385 14.961672,11.5357846 C15.123672,11.6688923 15.3171,11.7709846 15.541632,11.8427077 C15.766488,11.9137846 16.001064,11.9493231 16.24536,11.9493231 C16.644852,11.9493231 17.034948,11.8937538 17.415,11.7813231 C17.79408,11.6688923 18.130068,11.5054154 18.42264,11.2902462 C18.725256,11.0757231 18.972792,10.8146769 19.1646,10.5084 C19.367748,10.2014769 19.49184,9.85384615 19.538496,9.46486154 L19.687536,8.20712308 L19.687536,8.20744615 Z M17.795376,5.20153846 C17.527428,5.20153846 17.051472,5.20606154 16.599168,5.19830769 L11.616048,5.19830769 L10.955088,10.7691231 C10.917504,11.0857385 10.932408,11.3367692 10.999476,11.5206 C11.078532,11.6944154 11.305656,11.7913385 11.680848,11.8120154 C11.980548,11.8120154 12.282192,11.7965077 12.58578,11.7658154 L12.489228,12.5783538 C12.333708,12.5783538 12.17754,12.5835231 12.021048,12.5935385 C11.864232,12.6032308 11.708388,12.6087231 11.552868,12.6087231 C10.853028,12.6087231 10.37934,12.4859538 10.130508,12.2404154 C9.883296,11.9851846 9.805536,11.5199538 9.89658,10.8447231 L10.566288,5.19733846 L7.58808,5.19733846 C7.602012,4.79026154 7.53786,4.45684615 7.391736,4.17512308 C7.256952,3.88338462 7.061256,3.64398462 6.803676,3.45595385 C6.557436,3.25887692 6.260004,3.11284615 5.912028,3.01883077 C5.575068,2.91544615 5.212188,2.86375385 4.825008,2.86375385 C4.467312,2.86375385 4.116744,2.90123077 3.772008,2.97683077 C3.43926,3.04241538 3.137616,3.15452308 2.866752,3.31476923 C2.60658,3.465 2.387232,3.66692308 2.210004,3.92118462 C2.031804,4.17512308 1.924884,4.4898 1.887948,4.86586154 C1.86462,5.10073846 1.884708,5.30718462 1.949508,5.48616923 C2.024676,5.65546154 2.132892,5.80084615 2.274156,5.92329231 C2.41542,6.04509231 2.579364,6.14395385 2.765988,6.21923077 C2.962656,6.29418462 3.170988,6.35556923 3.39066,6.40241538 L5.99562,7.00883077 C6.3747,7.10252308 6.725592,7.22044615 7.04862,7.36163077 C7.382988,7.4928 7.66746,7.66209231 7.90236,7.86886154 C8.1486,8.06593846 8.328744,8.31050769 8.44344,8.60224615 C8.567856,8.89301538 8.609976,9.24516923 8.5698,9.65870769 C8.558784,9.77178462 8.528328,9.92233846 8.479728,10.1103692 C8.440848,10.2984 8.359848,10.5006462 8.236728,10.7167846 C8.124624,10.9235538 7.965864,11.1351692 7.761096,11.3513077 C7.566696,11.5671231 7.301988,11.7642 6.968592,11.9425385 C6.645888,12.1121538 6.249312,12.2484923 5.78016,12.3518769 C5.309712,12.4649538 4.75308,12.5208462 4.110264,12.5208462 C3.467124,12.5208462 2.875824,12.4549385 2.337984,12.3231231 C1.800792,12.1825846 1.351404,11.9709692 0.991116,11.6889231 C0.631476,11.4078462 0.365796,11.0453538 0.194076,10.6033846 C0.033048,10.1620615 -0.00162,9.63092308 0.089748,9.01061538 L1.13076,9.01061538 C1.070496,9.52753846 1.115208,9.95949231 1.264572,10.3074462 C1.414584,10.6547538 1.637172,10.9319538 1.933632,11.1387231 C2.240136,11.3454923 2.6082,11.4963692 3.038472,11.5903846 C3.468744,11.6750308 3.934008,11.7173538 4.434264,11.7173538 C4.720032,11.7173538 5.03496,11.6798769 5.379372,11.6042769 C5.72346,11.5293231 6.046164,11.4117231 6.348132,11.2521231 C6.660468,11.0825077 6.925824,10.8715385 7.144524,10.6176 C7.364844,10.3539692 7.492176,10.0392923 7.52814,9.6726 C7.556004,9.39055385 7.5087,9.14598462 7.38558,8.93921538 C7.273152,8.73244615 7.111476,8.55863077 6.900552,8.41776923 C6.699672,8.27690769 6.471252,8.16415385 6.213672,8.07983077 C5.957712,7.98549231 5.704992,7.91086154 5.455512,7.85432308 L3.074112,7.30444615 C2.76534,7.22916923 2.463048,7.13515385 2.167884,7.0224 C1.882764,6.90996923 1.637496,6.75941538 1.431108,6.57170769 C1.225044,6.38367692 1.063692,6.15332308 0.947376,5.88096923 C0.841428,5.60829231 0.808056,5.27423077 0.846288,4.87943077 C0.870588,4.63486154 0.949968,4.34829231 1.083456,4.02004615 C1.217916,3.69050769 1.437264,3.38035385 1.741176,3.08893846 C2.055456,2.79816923 2.466936,2.55327692 2.976588,2.35555385 C3.486564,2.14878462 4.12452,2.0454 4.890132,2.0454 C5.431212,2.0454 5.94054,2.11130769 6.417792,2.24312308 C6.89472,2.37461538 7.304256,2.57169231 7.645752,2.83532308 C7.987896,3.09863077 8.246448,3.4272 8.42238,3.822 C8.50662,3.99646154 8.566884,4.1832 8.602848,4.38415385 L10.663488,4.38415385 L10.946016,2.00695385 L11.995128,2.00695385 L11.713248,4.38415385 L17.993988,4.38415385 C18.403524,4.38738462 18.776448,4.42292308 19.145808,4.49464615 C19.515816,4.55603077 19.84014,4.6788 20.118456,4.86230769 C20.396124,5.04646154 20.609316,5.30750769 20.758356,5.64512308 C20.908368,5.97143077 20.951784,6.40176923 20.888604,6.93323077 L20.389644,11.1364615 C20.343312,11.5241538 20.525724,11.7186462 20.937204,11.7186462 C21.059028,11.7186462 21.172428,11.6986154 21.277404,11.6572615 L21.180852,12.4704462 L20.842272,12.5163231 C20.7522,12.5266615 20.634912,12.5315077 20.490732,12.5315077 C20.22408,12.5315077 20.011212,12.5008154 19.851804,12.4397538 C19.705032,12.3686769 19.594224,12.2707846 19.520028,12.1483385 C19.445508,12.0255692 19.401444,11.8824462 19.387188,11.7186462 C19.386216,11.5448308 19.396908,11.3558308 19.38816,11.1513231 C19.168812,11.4065538 18.94752,11.6375538 18.722988,11.8417385 C18.511416,12.0362308 18.27522,12.1993846 18.015048,12.3328154 C17.76654,12.4652769 17.482392,12.5673692 17.162928,12.6387692 C16.85448,12.7104923 16.489008,12.7463538 16.06716,12.7463538 C15.667668,12.7463538 15.295392,12.7004769 14.95098,12.6080769 C14.616612,12.5263385 14.326632,12.3935538 14.082012,12.2094 C13.849704,12.0155538 13.6728,11.7745385 13.551624,11.4889385 C13.442112,11.1917077 13.411332,10.8444 13.458636,10.4454 C13.523436,9.89293846 13.708116,9.46389231 14.011056,9.15729231 C14.314968,8.83970769 14.693076,8.59933846 15.145704,8.43553846 C15.609024,8.27206154 16.117056,8.15995385 16.668504,8.09824615 C17.232264,8.02716923 17.800884,7.96029231 18.374364,7.89890769 C18.598896,7.87823077 18.796536,7.85303077 18.966636,7.82233846 C19.136736,7.79164615 19.281564,7.74027692 19.400796,7.66887692 C19.521972,7.58713846 19.617876,7.47955385 19.689156,7.34676923 C19.771452,7.21366154 19.825236,7.03984615 19.851156,6.82532308 C19.890036,6.49804615 19.860228,6.23215385 19.76238,6.02732308 C19.676844,5.81312308 19.53558,5.64447692 19.339236,5.52138462 C19.154556,5.39861538 18.924516,5.31687692 18.652356,5.27584615 C18.391536,5.22512308 18.106092,5.1996 17.795052,5.1996 L17.795376,5.20153846 Z M43.846596,2.09515385 L44.845812,2.09515385 L44.749584,2.90769231 L43.750044,2.90769231 L43.847244,2.09515385 L43.846596,2.09515385 Z M28.271916,4.35895385 L29.321028,4.35895385 L28.339308,12.4662462 L27.289548,12.4662462 L28.271268,4.35895385 L28.271916,4.35895385 Z M43.601976,4.35895385 L44.651736,4.35895385 L43.696584,12.4662462 L42.646824,12.4662462 L43.601976,4.35895385 L43.601976,4.35895385 Z M52.419312,7.03726154 C52.344792,6.44409231 52.134192,5.97886154 51.785244,5.64156923 C51.43662,5.30330769 50.912712,5.13498462 50.213196,5.13498462 C49.713588,5.13498462 49.263876,5.23190769 48.862764,5.4264 C48.461976,5.62089231 48.114972,5.87644615 47.822076,6.19306154 C47.540196,6.50967692 47.308536,6.87313846 47.126772,7.28183077 C46.95732,7.68083077 46.847484,8.08952308 46.797588,8.50952308 C46.74834,8.92855385 46.760004,9.34241538 46.833228,9.75175385 C46.919736,10.1504308 47.06586,10.5077538 47.272572,10.8253385 C47.490624,11.1419538 47.776716,11.3978308 48.131172,11.5923231 C48.485628,11.7861692 48.91266,11.8830923 49.412592,11.8830923 C49.734648,11.8830923 50.046012,11.8275231 50.348304,11.7150923 C50.650596,11.6026615 50.924052,11.4488769 51.16932,11.2547077 C51.41556,11.0502 51.627132,10.8101538 51.80436,10.5336 C51.981588,10.2576923 52.10568,9.95626154 52.178256,9.62898462 L53.228016,9.62898462 C52.968816,10.5901385 52.496748,11.3412923 51.81084,11.8834154 C51.12558,12.4152 50.29452,12.6814154 49.31766,12.6814154 C48.662532,12.6814154 48.092292,12.5735077 47.60694,12.3593077 C47.1339,12.1341231 46.747368,11.8326923 46.447992,11.4540462 C46.148616,11.0760462 45.939312,10.6360154 45.822024,10.1349231 C45.704736,9.62446154 45.680436,9.08233846 45.748152,8.50984615 C45.816192,7.93703077 45.968472,7.40007692 46.20564,6.89930769 C46.444104,6.38755385 46.757736,5.943 47.147184,5.56435385 C47.535984,5.18635385 47.993796,4.8846 48.520296,4.65973846 C49.058136,4.43423077 49.654296,4.3218 50.309748,4.3218 C51.23088,4.3218 51.981588,4.54698462 52.5609,4.99703077 C53.151552,5.44675385 53.454168,6.12683077 53.4681,7.03693846 L52.41834,7.03693846 L52.419312,7.03726154 Z M60.167772,6.86829231 C60.192072,6.57106154 60.15546,6.31583077 60.059232,6.10066154 C59.963652,5.87612308 59.818824,5.69164615 59.625072,5.5482 C59.441688,5.4054 59.221044,5.30266154 58.96152,5.24192308 C58.703616,5.17084615 58.424976,5.13466154 58.124952,5.13466154 C57.891672,5.13466154 57.649644,5.16050769 57.399192,5.21123077 C57.161376,5.25258462 56.935872,5.32915385 56.72268,5.44158462 C56.510784,5.54432308 56.333232,5.68195385 56.190348,5.85512308 C56.047788,6.02958462 55.960956,6.24443077 55.931148,6.49998462 C55.905228,6.71450769 55.938924,6.89898462 56.031588,7.0518 C56.136564,7.19524615 56.271996,7.31769231 56.43756,7.42010769 C56.6028,7.5222 56.78748,7.60910769 56.989656,7.68083077 C57.193776,7.74221538 57.381696,7.79326154 57.554388,7.83429231 L58.919076,8.12570769 C59.213916,8.16673846 59.499036,8.24330769 59.774436,8.35573846 C60.062796,8.45815385 60.307092,8.59610769 60.50862,8.76927692 C60.72084,8.94373846 60.88446,9.15858462 60.99786,9.41413846 C61.112556,9.66936923 61.148844,9.97112308 61.107372,10.3187538 C61.056504,10.7484462 60.907464,11.1167538 60.660252,11.4236769 C60.414012,11.7196154 60.112692,11.9654769 59.756292,12.1596462 C59.412852,12.3438 59.030532,12.4762615 58.609332,12.5583231 C58.189104,12.6400615 57.779244,12.6810923 57.379104,12.6810923 C56.368224,12.6810923 55.57248,12.4614 54.991872,12.0220154 C54.42228,11.5819846 54.150768,10.8763846 54.176688,9.90489231 L55.226448,9.90489231 C55.1934,10.5588 55.390068,11.0550462 55.816128,11.3926615 C56.2545,11.7189692 56.823768,11.8830923 57.523608,11.8830923 C57.77892,11.8830923 58.042656,11.8572462 58.315788,11.8065231 C58.599612,11.7554769 58.865292,11.6685692 59.112828,11.5458 C59.361012,11.4230308 59.5674,11.2695692 59.733936,11.0850923 C59.912136,10.8912462 60.018084,10.6554 60.050808,10.3798154 C60.078672,10.1449385 60.046272,9.95012308 59.953608,9.79730769 C59.872608,9.63383077 59.749488,9.50072308 59.584248,9.39830769 C59.41998,9.2862 59.22558,9.19412308 59.0004,9.1224 C58.787208,9.05132308 58.566888,8.98993846 58.33944,8.93824615 L57.024,8.66266154 C56.689632,8.58092308 56.383776,8.48916923 56.10708,8.38675385 C55.83168,8.27367692 55.59192,8.14121538 55.388772,7.98743077 C55.197612,7.82395385 55.053432,7.62978462 54.957852,7.40492308 C54.863892,7.17004615 54.836676,6.8838 54.876852,6.54618462 C54.924156,6.14750769 55.05894,5.80472308 55.281852,5.5188 C55.515132,5.23223077 55.798308,5.00187692 56.12976,4.82838462 C56.461212,4.65456923 56.820528,4.52663077 57.208032,4.44489231 C57.606552,4.36283077 57.99438,4.32212308 58.372164,4.32212308 C58.805676,4.32212308 59.199336,4.37316923 59.553144,4.47526154 C59.918616,4.57767692 60.227712,4.73598462 60.479784,4.95083077 C60.743196,5.16567692 60.939864,5.43124615 61.068168,5.74883077 C61.197768,6.06544615 61.247664,6.4386 61.218828,6.86829231 L60.169068,6.86829231 L60.167772,6.86829231 Z M24.788592,4.38512308 L27.3213,4.38512308 L27.224748,5.19766154 L24.69204,5.19766154 L24.03108,10.7684769 C23.993496,11.0850923 24.0084,11.3361231 24.075468,11.5199538 C24.154524,11.6937692 24.381648,11.7906923 24.757164,11.8113692 C25.056864,11.8113692 25.358508,11.7958615 25.662096,11.7651692 L25.565868,12.5777077 C25.410348,12.5777077 25.25418,12.5828769 25.097688,12.5928923 C24.941196,12.6025846 24.785028,12.6080769 24.629832,12.6080769 C23.929992,12.6080769 23.45598,12.4853077 23.207472,12.2397692 C22.96026,11.9845385 22.882176,11.5193077 22.972896,10.8440769 L23.643576,5.19669231 L21.978216,5.19669231 L22.075416,4.38383077 L23.739804,4.38383077 L24.021684,2.00663077 L25.070796,2.00663077 L24.788916,4.38383077 L24.788592,4.38512308 Z M28.539864,1.94169231 L29.539404,1.94169231 L29.443176,2.75455385 L28.44396,2.75455385 L28.539864,1.94169231 L28.539864,1.94169231 Z M40.300092,4.31953846 L42.8328,4.31953846 L42.736248,5.13175385 L40.20354,5.13175385 L39.54258,10.7028923 C39.504996,11.0195077 39.5199,11.2705385 39.586968,11.4543692 C39.666024,11.6281846 39.893148,11.7257538 40.268664,11.7457846 C40.568364,11.7457846 40.870332,11.7302769 41.173596,11.6999077 L41.077044,12.5127692 C40.921524,12.5127692 40.765356,12.5176154 40.60854,12.5279538 C40.451724,12.5376462 40.295556,12.5431385 40.14036,12.5431385 C39.44052,12.5431385 38.96748,12.4203692 38.718,12.1754769 C38.471112,11.9196 38.393028,11.4543692 38.484072,10.7797846 L39.154104,5.13175385 L34.32456,5.13175385 C34.25652,5.12367692 34.18848,5.13498462 34.123032,5.13498462 C33.889752,5.13498462 33.648048,5.16083077 33.397272,5.21155385 C33.159456,5.25290769 32.933952,5.32947692 32.72076,5.44190769 C32.508864,5.54464615 32.331312,5.68227692 32.188752,5.85544615 C32.046192,6.02990769 31.95936,6.24475385 31.928904,6.50030769 C31.903632,6.71483077 31.937004,6.89930769 32.029992,7.05212308 C32.134968,7.19556923 32.2704,7.31801538 32.435964,7.42043077 C32.601852,7.52252308 32.785884,7.60943077 32.988384,7.68115385 C33.192504,7.74253846 33.380424,7.79358462 33.553116,7.83461538 L34.917804,8.12603077 C35.212644,8.16706154 35.497764,8.24363077 35.773164,8.35606154 C36.061524,8.45847692 36.30582,8.59643077 36.507348,8.7696 C36.719568,8.94406154 36.883188,9.15890769 36.996588,9.41446154 C37.111284,9.66969231 37.147572,9.97144615 37.106748,10.3190769 C37.054908,10.7487692 36.905868,11.1170769 36.65898,11.424 C36.41274,11.7199385 36.11142,11.9658 35.75502,12.1599692 C35.41158,12.3441231 35.02926,12.4765846 34.60806,12.5586462 C34.187832,12.6403846 33.777972,12.6814154 33.378156,12.6814154 C32.367276,12.6814154 31.571856,12.4617231 30.990924,12.0223385 C30.421332,11.5823077 30.14982,10.8767077 30.176064,9.90521538 L31.225824,9.90521538 C31.192452,10.5591231 31.38912,11.0553692 31.815504,11.3929846 C32.253876,11.7192923 32.823144,11.8834154 33.522336,11.8834154 C33.778296,11.8834154 34.042032,11.8575692 34.314516,11.8068462 C34.59834,11.7558 34.86402,11.6688923 35.111556,11.5461231 C35.359416,11.4233538 35.566452,11.2698923 35.73234,11.0854154 C35.911188,10.8915692 36.016812,10.6557231 36.04986,10.3801385 C36.0774,10.1452615 36.045,9.95044615 35.95266,9.79763077 C35.87166,9.63415385 35.74854,9.50104615 35.5833,9.39863077 C35.41806,9.28652308 35.224308,9.19444615 34.999452,9.12272308 C34.785612,9.05164615 34.565292,8.99026154 34.338492,8.93856923 L33.021756,8.66233846 C32.687388,8.5806 32.381856,8.48884615 32.104836,8.38643077 C31.829436,8.27335385 31.590324,8.14089231 31.386204,7.98710769 C31.195044,7.82363077 31.051188,7.62946154 30.955284,7.4046 C30.861324,7.16972308 30.834432,6.88347692 30.874284,6.54586154 C30.921912,6.14718462 31.056696,5.8044 31.279284,5.51847692 C31.513212,5.23190769 31.796064,5.00155385 32.128164,4.82806154 C32.459292,4.65424615 32.818284,4.52630769 33.206112,4.44456923 C33.604632,4.36250769 33.992136,4.3218 34.36992,4.3218 L39.250656,4.31856923 L39.532536,1.94136923 L40.582296,1.94136923 L40.300416,4.31921538 L40.300092,4.31953846 Z" id="Shape"></path>
                    </g>
                </g>
            </g>
            <path d="M12.55,1.12 L10,7.42 L11.26,7.42 L11.87,5.86 L14.55,5.86 L15.18,7.42 L16.51,7.42 L13.94,1.12 L12.55,1.12 Z M13.18,2.54 L13.22,2.54 L14.17,4.9 L12.25,4.9 L13.18,2.54 Z M19.1933334,1.12 L17.9533334,1.12 L17.9533334,7.42 L19.1133334,7.42 L19.1133334,2.98 L22.3333334,7.42 L23.3333334,7.42 L23.3333334,1.12 L22.1733334,1.12 L22.1733334,5.32 L19.1933334,1.12 Z M26.5166667,6.42 L26.5166667,2.12 L27.5666667,2.12 C28.8966667,2.12 29.6466667,2.92 29.6466667,4.26 C29.6466667,5.62 28.8966667,6.42 27.5666667,6.42 L26.5166667,6.42 Z M25.2666667,7.42 L27.6466667,7.42 C29.6766667,7.42 30.9366667,6.24 30.9366667,4.27 C30.9366667,2.3 29.6766667,1.12 27.6466667,1.12 L25.2666667,1.12 L25.2666667,7.42 Z M41.3233335,4.27 C41.3233335,2.33 39.9633335,1 38.1333335,1 C36.2933335,1 34.9333335,2.33 34.9333335,4.27 C34.9333335,6.21 36.2933335,7.54 38.1333335,7.54 C39.9633335,7.54 41.3233335,6.21 41.3233335,4.27 L41.3233335,4.27 Z M40.0333335,4.27 C40.0333335,5.59 39.2933335,6.44 38.1333335,6.44 C36.9733335,6.44 36.2333335,5.59 36.2333335,4.27 C36.2333335,2.95 36.9733335,2.1 38.1333335,2.1 C39.2933335,2.1 40.0333335,2.95 40.0333335,4.27 L40.0333335,4.27 Z M45.5966669,7.54 C47.1066669,7.54 48.3066669,6.81 48.3066669,4.97 L48.3066669,1.12 L47.0566669,1.12 L47.0566669,4.85 C47.0566669,5.93 46.5966669,6.49 45.5966669,6.49 C44.6066669,6.49 44.1466669,5.93 44.1466669,4.84 L44.1466669,1.12 L42.9066669,1.12 L42.9066669,4.97 C42.9066669,6.81 44.0866669,7.54 45.5966669,7.54 L45.5966669,7.54 Z M55.5100002,7.42 C55.3000002,7.19 55.2700002,6.87 55.1900002,5.94 C55.1200002,5.2 54.7500002,4.78 54.0300002,4.64 C54.8000002,4.54 55.4200002,3.99 55.4200002,3.04 C55.4200002,1.87 54.6300002,1.12 53.0200002,1.12 L50.1700002,1.12 L50.1700002,7.42 L51.4000002,7.42 L51.4000002,5.09 L52.8800002,5.09 C53.6000002,5.09 53.9200002,5.41 53.9700002,6.12 C54.0200002,6.82 54.1000002,7.25 54.2300002,7.42 L55.5100002,7.42 Z M51.4000002,4.11 L51.4000002,2.13 L52.8500002,2.13 C53.7600002,2.13 54.1800002,2.5 54.1800002,3.13 C54.1800002,3.81 53.7600002,4.11 52.8500002,4.11 L51.4000002,4.11 Z M11.74,16.4200041 L11.74,12.1200041 L12.79,12.1200041 C14.12,12.1200041 14.87,12.9200041 14.87,14.2600041 C14.87,15.6200041 14.12,16.4200041 12.79,16.4200041 L11.74,16.4200041 Z M10.49,17.4200041 L12.87,17.4200041 C14.9,17.4200041 16.16,16.2400041 16.16,14.2700041 C16.16,12.3000041 14.9,11.1200041 12.87,11.1200041 L10.49,11.1200041 L10.49,17.4200041 Z M19.5733334,11.1200041 L17.0233334,17.4200041 L18.2833334,17.4200041 L18.8933334,15.8600041 L21.5733334,15.8600041 L22.2033334,17.4200041 L23.5333334,17.4200041 L20.9633334,11.1200041 L19.5733334,11.1200041 Z M20.2033334,12.5400041 L20.2433334,12.5400041 L21.1933334,14.9000041 L19.2733334,14.9000041 L20.2033334,12.5400041 Z M27.3266667,17.4200041 L27.3266667,12.1600041 L29.5866667,12.1600041 L29.5866667,11.1200041 L23.8466667,11.1200041 L23.8466667,12.1600041 L26.0766667,12.1600041 L26.0766667,17.4200041 L27.3266667,17.4200041 Z M32.4500001,11.1200041 L29.9000001,17.4200041 L31.1600001,17.4200041 L31.7700001,15.8600041 L34.4500001,15.8600041 L35.0800001,17.4200041 L36.4100001,17.4200041 L33.8400001,11.1200041 L32.4500001,11.1200041 Z M33.0800001,12.5400041 L33.1200001,12.5400041 L34.0700001,14.9000041 L32.1500001,14.9000041 L33.0800001,12.5400041 Z M41.7266669,14.2300041 L41.7266669,12.1300041 L42.9566669,12.1300041 C43.8966669,12.1300041 44.3066669,12.5100041 44.3066669,13.1900041 C44.3066669,13.8700041 43.8966669,14.2300041 42.9566669,14.2300041 L41.7266669,14.2300041 Z M41.7266669,15.2500041 L42.9966669,15.2500041 C44.6066669,15.2500041 45.5266669,14.4900041 45.5266669,13.1800041 C45.5266669,11.8700041 44.6066669,11.1200041 42.9966669,11.1200041 L40.4866669,11.1200041 L40.4866669,17.4200041 L41.7266669,17.4200041 L41.7266669,15.2500041 Z M48.5600002,11.1200041 L46.0100002,17.4200041 L47.2700002,17.4200041 L47.8800002,15.8600041 L50.5600002,15.8600041 L51.1900002,17.4200041 L52.5200002,17.4200041 L49.9500002,11.1200041 L48.5600002,11.1200041 Z M49.1900002,12.5400041 L49.2300002,12.5400041 L50.1800002,14.9000041 L48.2600002,14.9000041 L49.1900002,12.5400041 Z M59.3033336,17.4200041 C59.0933336,17.1900041 59.0633336,16.8700041 58.9833336,15.9400041 C58.9133336,15.2000041 58.5433336,14.7800041 57.8233336,14.6400041 C58.5933336,14.5400041 59.2133336,13.9900041 59.2133336,13.0400041 C59.2133336,11.8700041 58.4233336,11.1200041 56.8133336,11.1200041 L53.9633336,11.1200041 L53.9633336,17.4200041 L55.1933336,17.4200041 L55.1933336,15.0900041 L56.6733336,15.0900041 C57.3933336,15.0900041 57.7133336,15.4100041 57.7633336,16.1200041 C57.8133336,16.8200041 57.8933336,17.2500041 58.0233336,17.4200041 L59.3033336,17.4200041 Z M55.1933336,14.1100041 L55.1933336,12.1300041 L56.6433336,12.1300041 C57.5533336,12.1300041 57.9733336,12.5000041 57.9733336,13.1300041 C57.9733336,13.8100041 57.5533336,14.1100041 56.6433336,14.1100041 L55.1933336,14.1100041 Z M63.966667,17.4200041 L63.966667,12.1600041 L66.226667,12.1600041 L66.226667,11.1200041 L60.486667,11.1200041 L60.486667,12.1600041 L62.716667,12.1600041 L62.716667,17.4200041 L63.966667,17.4200041 Z M69.0800004,11.1200041 L67.8400004,11.1200041 L67.8400004,17.4200041 L69.0000004,17.4200041 L69.0000004,12.9800041 L72.2200004,17.4200041 L73.2200004,17.4200041 L73.2200004,11.1200041 L72.0600004,11.1200041 L72.0600004,15.3200041 L69.0800004,11.1200041 Z M79.8633337,16.3800041 L76.3833337,16.3800041 L76.3833337,14.7200041 L79.0433337,14.7200041 L79.0433337,13.6900041 L76.3833337,13.6900041 L76.3833337,12.1600041 L79.7733337,12.1600041 L79.7733337,11.1200041 L75.1533337,11.1200041 L75.1533337,17.4200041 L79.8633337,17.4200041 L79.8633337,16.3800041 Z M86.9166671,17.4200041 C86.7066671,17.1900041 86.6766671,16.8700041 86.5966671,15.9400041 C86.5266671,15.2000041 86.1566671,14.7800041 85.4366671,14.6400041 C86.2066671,14.5400041 86.8266671,13.9900041 86.8266671,13.0400041 C86.8266671,11.8700041 86.0366671,11.1200041 84.4266671,11.1200041 L81.5766671,11.1200041 L81.5766671,17.4200041 L82.8066671,17.4200041 L82.8066671,15.0900041 L84.2866671,15.0900041 C85.0066671,15.0900041 85.3266671,15.4100041 85.3766671,16.1200041 C85.4266671,16.8200041 85.5066671,17.2500041 85.6366671,17.4200041 L86.9166671,17.4200041 Z M82.8066671,14.1100041 L82.8066671,12.1300041 L84.2566671,12.1300041 C85.1666671,12.1300041 85.5866671,12.5000041 85.5866671,13.1300041 C85.5866671,13.8100041 85.1666671,14.1100041 84.2566671,14.1100041 L82.8066671,14.1100041 Z" id="AND-OUR"></path>
        </g>
    </g>
</svg>