<?xml version="1.0" encoding="UTF-8" standalone="no"?>
<svg width="216px" height="70px" viewBox="0 0 216 70" version="1.1" xmlns="http://www.w3.org/2000/svg" xmlns:xlink="http://www.w3.org/1999/xlink" xmlns:sketch="http://www.bohemiancoding.com/sketch/ns">
    <!-- Generator: Sketch 3.5.2 (25235) - http://www.bohemiancoding.com/sketch -->
    <title>stats_promo</title>
    <desc>Created with Sketch.</desc>
    <defs></defs>
    <g id="Page-1" stroke="none" stroke-width="1" fill="none" fill-rule="evenodd" sketch:type="MSPage">
        <g id="stats_promo" sketch:type="MSArtboardGroup">
            <g id="Group-2" sketch:type="MSLayerGroup" transform="translate(112.000000, 20.000000)" fill="#4C4C4C">
                <g id="statsnz" sketch:type="MSShapeGroup">
                    <g id="Group">
                        <path d="M89.75144,8.65151538 C92.56268,8.65151538 94.84192,10.9119231 94.84192,13.7007769 C94.84192,16.0851923 93.17448,18.0843923 90.93324,18.6132154 C91.2399,19.3361538 91.43332,20.0726615 91.43332,20.8521385 C91.43332,23.4257692 89.33002,25.5116615 86.73652,25.5116615 C84.16012,25.5116615 82.06822,23.4547923 82.03858,20.9067923 C80.25524,20.1386231 79.02366,18.4285231 79.02366,16.4312077 C79.02366,14.9687462 79.69436,13.6404692 80.731,12.7637462 L80.7272,12.3992615 C80.7272,12.0607846 80.76406,11.7306 80.8336,11.4117231 C79.64116,10.6175462 78.86406,9.32093077 78.86406,7.84226154 L78.8557,7.65003077 C77.76054,6.90108462 77.02866,5.62444615 77.02866,4.20118462 C77.02866,1.90308462 78.90662,0.0399538462 81.22386,0.0399538462 C83.53996,0.0399538462 85.41792,1.90308462 85.41792,4.20118462 L85.42628,4.39341538 C86.52182,5.14273846 87.25408,6.41824615 87.25408,7.84150769 L87.24648,8.1046 C87.69184,8.29456923 88.08438,8.52939231 88.42448,8.80756154 C88.86148,8.70503846 89.30608,8.65113846 89.75144,8.65113846 L89.75144,8.65151538 Z M88.32188,9.52974615 C87.80014,9.07253846 87.2252,8.72765385 86.58908,8.53843846 C86.5982,8.27949231 86.61834,8.06351538 86.61834,7.84301538 C86.61834,6.50682308 85.86328,5.34401538 84.76128,4.74395385 C84.75634,4.52345385 84.78332,4.3708 84.78332,4.20118462 C84.78332,2.25173846 83.18922,0.670546154 81.22348,0.670546154 C79.25736,0.670546154 77.66288,2.25136154 77.66288,4.20118462 C77.66288,5.53737692 78.41908,6.70018462 79.52108,7.30024615 C79.52602,7.52036923 79.49828,7.67264615 79.49828,7.84226154 C79.49828,9.25949231 80.34074,10.4814769 81.5556,11.0434692 C81.43856,11.5070846 81.36256,11.9443154 81.36256,12.4003923 C81.36256,12.6046846 81.40246,12.7863615 81.43324,12.9831154 C80.36316,13.8078231 79.65788,15.0486538 79.65788,16.4312077 C79.65788,18.3184615 80.92518,19.9120923 82.66178,20.4213154 C82.68002,20.5928154 82.67394,20.7221 82.67394,20.8525154 C82.67394,23.0778692 84.49262,24.8818231 86.73614,24.8818231 C88.98004,24.8818231 90.79834,23.0778692 90.79834,20.8525154 C90.79834,19.8348231 90.41834,18.9049538 89.79134,18.1959615 C92.25146,18.0806231 94.20694,16.1176077 94.20694,13.7004 C94.20694,11.2590692 92.2127,9.28022308 89.75144,9.28022308 C89.24528,9.28022308 88.77712,9.37445385 88.32264,9.52899231 L88.32188,9.52974615 Z M83.2276,20.8525154 C83.2276,20.5811308 83.25914,20.3157769 83.3188,20.0617308 C81.53926,19.7225 80.2123,18.2298846 80.2123,16.4319615 C80.2123,15.1074538 80.9305,13.9510538 82.00058,13.3231 C81.95498,12.9883923 81.91698,12.6985385 81.91698,12.4007692 C81.91698,11.8225692 82.0591,11.2775385 82.31028,10.7988462 C80.99548,10.3804615 80.05308,9.22029231 80.05308,7.84301538 C80.05308,7.56673077 80.09184,7.29798462 80.16328,7.04393846 C79.01074,6.5464 78.21768,5.46538462 78.21768,4.20193846 C78.21768,2.55478462 79.56364,1.22047692 81.22348,1.22047692 C82.88408,1.22047692 84.22928,2.55478462 84.22928,4.20193846 C84.22928,4.47822308 84.19128,4.74659231 84.11984,5.00101538 C85.272,5.49855385 86.06468,6.57919231 86.06468,7.84301538 C86.06468,8.20863077 85.99818,8.55916923 85.87696,8.88332308 C86.79162,9.07668462 87.5596,9.51655385 88.10148,10.1497846 C88.64982,9.95001538 89.18752,9.83090769 89.7522,9.83090769 C91.9068,9.83090769 93.65366,11.5636231 93.65366,13.7007769 C93.65366,15.8379308 91.90642,17.5702692 89.75182,17.5702692 C88.93102,17.5702692 88.17026,17.3192385 87.54212,16.8899231 C87.438,17.0746154 87.40684,17.2238769 87.36732,17.3701231 C89.02526,17.7481769 90.24468,19.1593769 90.24468,20.8528923 C90.24468,22.7744462 88.67414,24.3326462 86.73728,24.3326462 C84.79928,24.3326462 83.22836,22.7744462 83.22836,20.8528923 L83.2276,20.8525154 Z M86.8566,16.4312077 C86.8566,15.9449769 86.7388,15.4858846 86.5298,15.0803154 C87.25484,16.1368308 88.40776,16.9408077 89.75106,16.9408077 C91.5553,16.9408077 93.01754,15.4896538 93.01754,13.7004 C93.01754,11.9107692 91.5553,10.4596154 89.75144,10.4596154 C89.09556,10.4596154 88.48528,10.6518462 87.9738,10.9812769 C87.41064,10.1196308 86.4861,9.54972308 85.42514,9.54972308 C85.1827,9.54972308 84.94786,9.57987692 84.72328,9.63528462 C85.14052,9.13020769 85.42932,8.51959231 85.42932,7.84226154 C85.42932,6.61575385 84.48312,5.60861538 83.27586,5.50043846 C83.46472,5.07715385 83.5943,4.65462308 83.5943,4.20080769 C83.5943,2.90230769 82.53258,1.84956154 81.2231,1.84956154 C79.914,1.84956154 78.8519,2.90193077 78.8519,4.20043077 C78.8519,5.42693846 79.79886,6.4337 81.0065,6.54300769 C80.81726,6.96516154 80.68806,7.38844615 80.68806,7.84188462 C80.68806,9.14038462 81.7494,10.1931308 83.05926,10.1931308 C83.21658,10.1931308 83.37086,10.1780538 83.52096,10.1490308 C82.9445,10.7521077 82.55196,11.5293231 82.55196,12.3992615 C82.55196,12.8206615 82.64392,13.2209538 82.8096,13.5812923 C81.65212,14.0705385 80.8469,15.1568308 80.8469,16.4300769 C80.8469,18.0761 82.1921,19.4100308 83.85156,19.4100308 C83.9648,19.4100308 84.07728,19.404 84.18748,19.3919385 C83.99672,19.8668615 83.86258,20.3429154 83.86258,20.8513846 C83.86258,22.4254154 85.14926,23.7016769 86.73652,23.7016769 C88.32302,23.7016769 89.60932,22.4254154 89.60932,20.8513846 C89.60932,19.2769769 88.32302,18.0018462 86.73652,18.0018462 L86.48002,18.0124 C86.70346,17.5043077 86.85622,16.9852846 86.85622,16.4300769 L86.8566,16.4312077 Z M81.40132,16.4312077 C81.40132,15.1572077 82.39046,14.112 83.64788,14.0098538 C83.32488,13.5153308 83.10562,12.9827385 83.10562,12.4003923 C83.10562,11.1301615 84.14416,10.0996538 85.42476,10.0996538 C86.51156,10.0996538 87.42356,10.8414385 87.67436,11.8421692 C88.26184,11.3389769 88.96788,11.0091692 89.75068,11.0091692 C91.24864,11.0091692 92.46274,12.2141923 92.46274,13.7004 C92.46274,15.1854769 91.24864,16.3905 89.75068,16.3905 C88.40168,16.3905 87.28258,15.4135154 87.0732,14.1334846 C86.6324,14.4199462 86.17944,14.6317769 85.68012,14.6860538 C86.05328,15.2092231 86.3018,15.7911923 86.3018,16.4304538 C86.3018,17.7723 85.20474,18.8608538 83.85156,18.8608538 C82.49876,18.8608538 81.40132,17.7723 81.40132,16.4304538 L81.40132,16.4312077 Z M85.42552,10.7298692 C84.49452,10.7298692 83.7406,11.4780615 83.7406,12.4007692 C83.7406,13.3231 84.4949,14.0712923 85.42514,14.0712923 C86.355,14.0712923 87.1093,13.3231 87.1093,12.4007692 C87.1093,11.4780615 86.355,10.7298692 85.42514,10.7298692 L85.42552,10.7298692 Z M89.75106,11.6397615 C88.60346,11.6397615 87.6736,12.5632231 87.6736,13.7015308 C87.6736,14.8390846 88.60384,15.7621692 89.75144,15.7621692 C90.89904,15.7621692 91.82852,14.8387077 91.82852,13.7011538 C91.82852,12.5628462 90.89866,11.6393846 89.75144,11.6393846 L89.75106,11.6397615 Z M83.85156,14.6314 C82.84912,14.6314 82.0363,15.4372615 82.0363,16.4319615 C82.0363,17.4262846 82.8495,18.2321462 83.85156,18.2321462 C84.85476,18.2321462 85.66682,17.4262846 85.66682,16.4319615 C85.66682,15.4368846 84.85362,14.6314 83.85118,14.6314 L83.85156,14.6314 Z M79.40708,4.20193846 C79.40708,3.20686154 80.22028,2.40024615 81.22348,2.40024615 C82.22668,2.40024615 83.03988,3.20686154 83.03988,4.20193846 C83.03988,5.19701538 82.22668,6.00363077 81.22348,6.00363077 C80.22028,6.00363077 79.40708,5.19701538 79.40708,4.20193846 L79.40708,4.20193846 Z M81.22348,3.03046154 C80.57102,3.03046154 80.04168,3.55438462 80.04168,4.20156154 C80.04168,4.84911538 80.57102,5.37379231 81.22348,5.37379231 C81.87594,5.37379231 82.40528,4.84911538 82.40528,4.20156154 C82.40528,3.55438462 81.87594,3.03008462 81.22348,3.03008462 L81.22348,3.03046154 Z M84.417,20.8528923 C84.417,19.5826615 85.45554,18.5529077 86.73614,18.5529077 C88.01674,18.5529077 89.0549,19.5826615 89.0549,20.8528923 C89.0549,22.1231231 88.01674,23.1528769 86.73614,23.1528769 C85.45554,23.1528769 84.417,22.1231231 84.417,20.8528923 L84.417,20.8528923 Z M86.73614,19.1823692 C85.80514,19.1823692 85.05198,19.9301846 85.05198,20.8528923 C85.05198,21.7756 85.8059,22.5234154 86.73652,22.5234154 C87.66638,22.5234154 88.42068,21.7756 88.42068,20.8528923 C88.42068,19.9301846 87.66638,19.1823692 86.73652,19.1823692 L86.73614,19.1823692 Z M81.24248,7.84301538 C81.24248,6.84793846 82.05568,6.04132308 83.05888,6.04132308 C84.06208,6.04132308 84.87528,6.84793846 84.87528,7.84301538 C84.87528,8.83809231 84.06208,9.64470769 83.05888,9.64470769 C82.05568,9.64470769 81.24248,8.83809231 81.24248,7.84301538 L81.24248,7.84301538 Z M83.05888,6.67078462 C82.40604,6.67078462 81.87708,7.19546154 81.87708,7.84301538 C81.87708,8.49019231 82.40604,9.01449231 83.05888,9.01449231 C83.71134,9.01449231 84.24068,8.49056923 84.24068,7.84301538 C84.24068,7.19546154 83.71134,6.67078462 83.05888,6.67078462 L83.05888,6.67078462 Z M73.777,26.2903846 C73.777,24.0880231 75.57668,22.3025385 77.7974,22.3025385 C79.30904,22.3025385 80.636,23.1415692 81.32266,24.3605385 C82.75146,24.9040615 83.78126,26.2885 83.78126,27.8990923 C83.78126,29.3683385 82.92246,30.6544 81.68974,31.2785846 C81.19802,32.7659231 79.93794,33.9264692 78.38374,34.2788923 C78.41414,34.6791846 78.45214,35.0289692 78.45214,35.3878 C78.45214,37.7096462 76.87058,39.6636154 74.72054,40.2546308 L74.68482,40.5248846 C74.68482,42.9560385 73.08198,45.0415538 70.88254,45.7773077 C70.7465,47.5277385 69.2531,48.9295154 67.45304,48.9295154 C65.5633,48.9295154 64.03152,47.4105154 64.03152,45.5360769 C64.03152,44.8726923 64.22418,44.2545385 64.55592,43.7317462 C63.92892,42.7803923 63.56108,41.6948538 63.56108,40.5260154 C63.56108,37.7782462 65.58572,35.4997462 68.23698,35.0794769 C68.45434,32.5910308 70.37258,30.6299 72.80458,30.3679385 C72.84068,30.1757077 72.83422,30.0362462 72.83422,29.8945231 C72.83422,28.8278308 73.21574,27.8244615 73.84046,27.0544077 C73.79486,26.8131769 73.77662,26.5436769 73.77662,26.2907615 L73.777,26.2903846 Z M81.1357,30.8481385 C82.34106,30.3317538 83.14666,29.2209615 83.14666,27.8990923 C83.14666,26.4724385 82.20692,25.2832462 80.89554,24.8969 C80.31034,23.7133615 79.1578,22.9323769 77.7974,22.9323769 C75.9278,22.9323769 74.4116,24.4363 74.4116,26.2907615 C74.4116,26.6111462 74.4572,26.9153231 74.54194,27.2104538 C73.87314,27.9341462 73.47034,28.8643923 73.47034,29.8949 C73.47034,30.2499615 73.51784,30.5944692 73.60866,30.9208846 L73.359,30.9687538 C70.89812,30.9687538 68.9054,32.9483538 68.9054,35.3893077 L68.91034,35.5966154 C66.26554,35.7786692 64.19644,37.9124308 64.19644,40.5267692 C64.19644,41.7231231 64.62736,42.8109231 65.34556,43.659 C64.92148,44.2191077 64.66726,44.8432923 64.66726,45.5368308 C64.66726,47.0633692 65.9148,48.3008077 67.45342,48.3008077 C68.99242,48.3008077 70.23882,47.0622385 70.23882,45.5357 L70.23122,45.3302769 C72.43598,44.7686615 74.04946,42.8350462 74.04946,40.5267692 C74.04946,40.2836538 74.03122,40.0443077 73.99626,39.8106154 C76.1748,39.4336923 77.8164,37.6010923 77.8164,35.3885538 C77.8164,34.8367385 77.71494,34.3082923 77.5276,33.8205538 C79.30714,33.6709154 80.7272,32.4738077 81.1357,30.8488923 L81.1357,30.8481385 Z M75.15754,27.4049462 C75.03898,27.0193538 74.96602,26.6624077 74.96602,26.2907615 C74.96602,24.7401 76.23294,23.4826846 77.79702,23.4826846 C79.01682,23.4826846 80.07588,24.2644231 80.4745,25.3371462 C81.67074,25.5764923 82.59186,26.6420538 82.59186,27.8994692 C82.59186,29.0811231 81.77676,30.0999462 80.6873,30.4135462 C80.4232,31.9928538 79.0286,33.2125769 77.36838,33.2125769 C77.12138,33.2125769 76.88008,33.1861923 76.6479,33.1356846 C77.01498,33.8367615 77.26236,34.5845769 77.26236,35.3881769 C77.26236,37.5200538 75.52424,39.249 73.37762,39.2580462 C73.43576,39.7065846 73.49542,40.1098923 73.49542,40.5263923 C73.49542,42.7487308 71.80974,44.5802 69.63766,44.8334923 C69.65286,45.1011077 69.68516,45.3144462 69.68516,45.5364538 C69.68516,46.7591923 68.68576,47.7505 67.45304,47.7505 C66.22032,47.7505 65.22092,46.7591923 65.22092,45.5364538 C65.22092,44.8105 65.57318,44.1663385 66.11696,43.7626538 C65.27716,42.8904538 64.7501,41.7694846 64.7501,40.5263923 C64.7501,38.1306692 66.7071,36.1891385 69.12124,36.1891385 L69.5457,36.2061 C69.48414,35.8970231 69.45906,35.6456154 69.45906,35.3881769 C69.45906,33.2510231 71.20554,31.5186846 73.35976,31.5186846 C73.73064,31.5186846 74.0886,31.5695692 74.42756,31.6656846 C74.1931,31.0916308 74.02286,30.5123 74.02286,29.8949 C74.02286,28.9024615 74.46214,28.0129231 75.1564,27.4053231 L75.15754,27.4049462 Z M69.12314,44.2330538 C71.1873,44.2330538 72.86082,42.5730846 72.86082,40.5260154 C72.86082,39.7853615 72.64156,39.0959692 72.26422,38.5170154 C72.64156,38.5682769 72.99382,38.6282077 73.36052,38.6282077 C75.16552,38.6282077 76.62738,37.1770538 76.62738,35.3878 C76.62738,33.5981692 75.16514,32.1477692 73.36052,32.1477692 C71.55666,32.1477692 70.09404,33.5981692 70.09404,35.3878 C70.09404,35.9795692 70.25364,36.5344 70.53294,37.0123385 C70.06174,36.9086846 69.60346,36.8182231 69.122,36.8182231 C67.0586,36.8182231 65.3847,38.4785692 65.3847,40.5263923 C65.3847,42.0009154 66.25262,43.2749154 67.50966,43.8719615 C66.52736,43.9986077 65.85514,44.6876231 65.85514,45.5364538 C65.85514,46.4109154 66.57068,47.1206615 67.45228,47.1206615 C68.33388,47.1206615 69.04904,46.4112923 69.04904,45.5364538 C69.04904,44.9755923 68.75568,44.4833308 68.3126,44.2021462 C68.58734,44.2047846 68.85068,44.2334308 69.12124,44.2334308 L69.12314,44.2330538 Z M75.98708,27.5248077 C75.18528,28.0600385 74.65898,28.9156538 74.65898,29.8945231 C74.65898,31.3796 75.8727,32.5827385 77.36914,32.5827385 C78.85798,32.5827385 80.06714,31.3924154 80.0793,29.9054538 C81.14786,29.7855923 81.95764,28.9367615 81.95764,27.8994692 C81.95764,26.8222231 81.08554,25.9477615 80.00292,25.9330615 C79.77036,24.8822 78.87508,24.1125231 77.79778,24.1125231 C76.58406,24.1125231 75.60138,25.088 75.60138,26.2911385 C75.60138,26.7498538 75.7435,27.1750231 75.98746,27.5255615 L75.98708,27.5248077 Z M66.41108,45.5360769 C66.41108,44.9646615 66.87772,44.5018 67.45342,44.5018 C68.02912,44.5018 68.49614,44.9646615 68.49614,45.5360769 C68.49614,46.1074923 68.02874,46.5703538 67.45304,46.5703538 C66.87696,46.5703538 66.40994,46.1074923 66.40994,45.5360769 L66.41108,45.5360769 Z M67.45342,45.1316385 C67.22808,45.1316385 67.0453,45.3125615 67.0453,45.5360769 C67.0453,45.7595923 67.2277,45.9408923 67.45304,45.9408923 C67.678,45.9408923 67.8604,45.7599692 67.8604,45.5360769 C67.8604,45.3125615 67.678,45.1316385 67.45266,45.1316385 L67.45342,45.1316385 Z M70.64846,35.3881769 C70.64846,33.9019692 71.86294,32.6977 73.36052,32.6977 C74.85886,32.6977 76.07258,33.9015923 76.07258,35.3874231 C76.07258,36.8732538 74.85886,38.0779 73.36052,38.0779 C71.86332,38.0779 70.64846,36.8732538 70.64846,35.3874231 L70.64846,35.3881769 Z M73.36052,33.3271615 C72.21292,33.3271615 71.28306,34.2494923 71.28306,35.3874231 C71.28306,36.5257308 72.2133,37.4484385 73.36052,37.4484385 C74.50812,37.4484385 75.43798,36.5249769 75.43798,35.3874231 C75.43798,34.2491154 74.50812,33.3267846 73.36052,33.3267846 L73.36052,33.3271615 Z M65.93912,40.5256385 C65.93912,38.7816154 67.36412,37.3677769 69.12238,37.3677769 C70.88102,37.3677769 72.30602,38.7812385 72.30602,40.5256385 C72.30602,42.2692846 70.88102,43.6827462 69.12238,43.6827462 C67.3645,43.6827462 65.9395,42.2692846 65.9395,40.5256385 L65.93912,40.5256385 Z M69.12238,37.9976154 C67.71524,37.9976154 66.57448,39.1295154 66.57448,40.5260154 C66.57448,41.9217615 67.71524,43.0536615 69.12238,43.0536615 C70.53028,43.0536615 71.67104,41.9217615 71.67104,40.5260154 C71.67104,39.1295154 70.5299,37.9979923 69.122,37.9979923 L69.12238,37.9976154 Z M79.51158,29.2390538 C79.49524,29.4885769 79.5245,29.6883462 79.5245,29.8949 C79.5245,31.0754231 78.5593,32.0328077 77.36838,32.0328077 C76.17822,32.0328077 75.21264,31.0754231 75.21264,29.8945231 C75.21264,28.8553462 75.9601,27.9891769 76.95076,27.7961923 C76.4807,27.4155 76.15428,26.8900692 76.15428,26.2907615 C76.15428,25.3914231 76.88958,24.6624538 77.79664,24.6624538 C78.70294,24.6624538 79.43824,25.3914231 79.43824,26.2907615 C79.43824,26.3638846 79.4333,26.4358769 79.42418,26.5063615 C79.64154,26.5116385 79.80418,26.4826154 79.97404,26.4826154 C80.76254,26.4826154 81.40208,27.1166 81.40208,27.8990923 C81.40208,28.6812077 80.76254,29.3151923 79.97404,29.3151923 C79.81178,29.3151923 79.65598,29.2888077 79.51044,29.2390538 L79.51158,29.2390538 Z M78.15726,27.8934385 L78.55246,28.0988615 L78.54866,27.7468154 L78.15726,27.8930615 L78.15726,27.8934385 Z M79.97442,27.1120769 C79.53666,27.1120769 79.18098,27.4641231 79.18098,27.8990923 C79.18098,28.3333077 79.53666,28.6857308 79.97442,28.6857308 C80.41256,28.6857308 80.76786,28.3333077 80.76786,27.8990923 C80.76786,27.4641231 80.41256,27.1120769 79.97442,27.1120769 L79.97442,27.1120769 Z M77.79702,25.2915385 C77.24032,25.2915385 76.78926,25.7385692 76.78926,26.2903846 C76.78926,26.8425769 77.24032,27.2892308 77.79702,27.2892308 C78.35296,27.2892308 78.80402,26.8425769 78.80402,26.2903846 C78.80402,25.7385692 78.35296,25.2915385 77.79702,25.2915385 L77.79702,25.2915385 Z M77.36838,28.3860769 C76.52858,28.3860769 75.84762,29.0615231 75.84762,29.8945231 C75.84762,30.7275231 76.52896,31.4033462 77.36838,31.4033462 C78.20894,31.4033462 78.8899,30.7275231 78.8899,29.8945231 C78.8899,29.0615231 78.20894,28.3860769 77.36838,28.3860769 L77.36838,28.3860769 Z" id="Shape"></path>
                        <path d="M2.87508,23.8618692 C2.89028,23.7273077 2.90168,23.6771769 2.93588,23.5151 L2.91422,23.4823077 C2.53118,23.4872077 2.14814,23.4917308 1.76586,23.4917308 C1.4079,23.4966308 0.83676,23.4966308 0.47918,23.4966308 L0.4503,23.5286692 C0.42142,23.6907462 0.4199,23.7095923 0.39064,23.8716692 L0.4161,23.9033308 C0.85994,23.8897615 0.90934,23.8897615 1.34216,23.8844846 C1.32316,24.0842538 1.30492,24.3292538 1.24944,24.8004077 C1.17344,25.4487154 1.09364,26.0958923 0.99256,26.7434462 L1.01346,26.7758615 C1.2882,26.7615385 1.3034,26.7615385 1.5865,26.7615385 L1.6207,26.7295 C1.6378,26.4520846 1.67162,25.9945 1.80766,24.8335769 C1.85554,24.4212231 1.86466,24.3473462 1.9285,23.8848615 C2.35562,23.8848615 2.42516,23.8848615 2.84126,23.8942846 L2.8747,23.8618692 L2.87508,23.8618692 Z M5.00194,23.5102 L4.97078,23.4777846 C4.65158,23.4917308 4.60712,23.4917308 4.25904,23.4966308 L4.21534,23.5286692 C4.01964,23.9726846 3.87486,24.2734692 3.48118,25.0921462 C3.24406,25.5919462 3.00238,26.0898615 2.75538,26.5874 C2.72954,26.6333846 2.70446,26.6793692 2.68318,26.7298769 L2.69952,26.7622923 C2.94956,26.7487231 2.99972,26.7487231 3.21252,26.7487231 L3.25128,26.7166846 C3.41848,26.3058385 3.46104,26.1957769 3.65598,25.7630692 C3.85472,25.7630692 4.08348,25.7585462 4.30198,25.7585462 C4.50072,25.7585462 4.69338,25.7630692 4.8925,25.7630692 C4.9723,26.1791923 4.99776,26.3043308 5.0711,26.7393 L5.10226,26.7717154 C5.31202,26.7622923 5.42146,26.7573923 5.67986,26.7528692 L5.70456,26.7163077 C5.60804,26.2715385 5.44312,25.5591538 5.34128,25.1151385 C5.24362,24.6756462 5.12202,24.1023462 5.01828,23.5935 L5.00308,23.5105769 L5.00194,23.5102 Z M4.5277,23.8294538 L4.82144,25.3936846 C4.6474,25.3936846 4.46804,25.3974538 4.29932,25.3974538 C4.13972,25.3974538 3.98202,25.3936846 3.82318,25.3936846 L4.52808,23.8294538 L4.5277,23.8294538 Z M8.94102,23.8622462 C8.95622,23.7276846 8.96762,23.6775538 9.00106,23.5154769 L8.98016,23.4826846 C8.59636,23.4875846 8.21408,23.4921077 7.8318,23.4921077 C7.47384,23.4970077 6.9027,23.4970077 6.5455,23.4970077 L6.517,23.5290462 C6.48812,23.6911231 6.48584,23.7099692 6.45696,23.8720462 L6.4828,23.9037077 C6.92664,23.8901385 6.97604,23.8901385 7.40848,23.8848615 C7.39024,24.0846308 7.37162,24.3296308 7.31652,24.8007846 C7.24052,25.4490923 7.15958,26.0962692 7.05926,26.7438231 L7.08016,26.7762385 C7.3549,26.7615385 7.36972,26.7615385 7.6532,26.7615385 L7.68626,26.7295 C7.70412,26.4520846 7.73794,25.9945 7.8736,24.8335769 C7.92186,24.4212231 7.9306,24.3473462 7.9952,23.8848615 C8.42156,23.8848615 8.4911,23.8848615 8.9072,23.8942846 L8.9414,23.8618692 L8.94102,23.8622462 Z M11.52426,23.5105769 L11.4931,23.4781615 C11.1739,23.4921077 11.12906,23.4921077 10.78098,23.4970077 L10.73766,23.5290462 C10.54158,23.9730615 10.39718,24.2738462 10.00312,25.0925231 C9.766,25.5923231 9.52432,26.0902385 9.27732,26.5877769 C9.25186,26.6337615 9.2264,26.6797462 9.20512,26.7302538 L9.22184,26.7626692 C9.47112,26.7491 9.5209,26.7491 9.73484,26.7491 L9.77284,26.7170615 C9.94004,26.3062154 9.98298,26.1961538 10.17754,25.7634462 C10.37628,25.7634462 10.60504,25.7589231 10.82354,25.7589231 C11.02228,25.7589231 11.21494,25.7634462 11.41406,25.7634462 C11.49386,26.1795692 11.51932,26.3047077 11.59266,26.7396769 L11.62306,26.7720923 C11.8332,26.7626692 11.94302,26.7577692 12.2018,26.7532462 L12.22574,26.7166846 C12.12884,26.2719154 11.96354,25.5595308 11.8617,25.1155154 C11.76442,24.6760231 11.64282,24.1027231 11.5387,23.5938769 L11.5235,23.5109538 L11.52426,23.5105769 Z M11.04926,23.8298308 L11.34338,25.3940615 C11.16972,25.3940615 10.98998,25.3978308 10.82164,25.3978308 C10.66204,25.3978308 10.50396,25.3940615 10.34474,25.3940615 L11.04926,23.8298308 L11.04926,23.8298308 Z M16.35178,23.4830615 C16.15228,23.4924846 16.12226,23.4924846 15.8935,23.4973846 L15.865,23.5294231 C15.8384,24.0571154 15.76354,24.7367077 15.70084,25.2734462 C15.65828,25.6341615 15.62788,25.8976308 15.49564,26.0913692 C15.26688,26.4343692 14.87358,26.4434154 14.74932,26.4434154 C14.40656,26.4434154 14.22872,26.3141308 14.15538,26.2172615 C14.00338,26.0272923 14.02694,25.7449769 14.0809,25.2824923 C14.1341,24.8339538 14.23176,23.9964308 14.30776,23.5158538 L14.28724,23.4830615 C14.03796,23.4924846 14.003,23.4924846 13.7294,23.4973846 L13.69064,23.5294231 C13.63516,24.1309923 13.62604,24.2093923 13.54776,24.8799385 L13.49228,25.3522231 C13.4292,25.8923538 13.39652,26.1701462 13.63098,26.4566077 C13.74422,26.5907923 14.03378,26.8316462 14.67446,26.8316462 C15.0765,26.8316462 15.47094,26.7298769 15.73732,26.4894 C16.06032,26.1980385 16.10592,25.8003846 16.13898,25.5225923 L16.1823,25.1064692 C16.21802,24.7597 16.2355,24.6115692 16.2583,24.4129308 C16.30162,24.0473154 16.3191,23.9361231 16.37876,23.5158538 L16.35292,23.4826846 L16.35178,23.4830615 Z M18.10662,26.7253538 C18.12182,26.3386308 18.20048,25.6285077 18.23012,25.3752154 C18.4034,25.3789846 18.4338,25.3752154 18.58808,25.3703154 C18.68992,25.5180692 18.71424,25.5640538 18.96314,25.9831923 C19.09614,26.2093462 19.23864,26.4306 19.3553,26.6654231 L19.40356,26.7626692 L19.43548,26.7860385 C19.54112,26.7769923 19.64562,26.7724692 19.75088,26.7671923 C19.85044,26.7634231 19.95456,26.7634231 20.05412,26.7634231 L20.0792,26.7170615 C19.81586,26.3386308 19.75734,26.2459077 19.627,26.0435 C19.55176,25.9236385 19.2261,25.3978308 19.1539,25.2919154 C19.80864,25.1298385 20.0659,24.7548 20.10922,24.3846615 C20.1609,23.9406462 19.94734,23.6866 19.57912,23.5667385 C19.34504,23.4875846 19.08132,23.4875846 18.80848,23.4875846 L18.50524,23.4921077 C18.33576,23.4921077 18.09218,23.4970077 18.0025,23.4970077 L17.87824,23.4970077 L17.8448,23.5290462 C17.82048,23.9919077 17.79768,24.3571462 17.67646,25.3929308 C17.62326,25.8399615 17.5655,26.2922692 17.49786,26.7385462 L17.52446,26.7717154 C17.78438,26.7573923 17.78932,26.7573923 18.07242,26.7573923 L18.10586,26.7249769 L18.10662,26.7253538 Z M18.26432,24.9952769 C18.3198,24.4826615 18.32892,24.4084077 18.39618,23.8720462 C18.56566,23.8671462 18.65458,23.8671462 18.71918,23.8671462 C19.09158,23.8671462 19.35872,23.8807154 19.49058,24.1072462 C19.54758,24.2135385 19.55898,24.3296308 19.54758,24.4265 C19.53048,24.5742538 19.44878,24.7178615 19.31388,24.8147308 C19.05244,25.0092231 18.64128,24.9994231 18.26432,24.9956538 L18.26432,24.9952769 Z M23.1686,23.5109538 L23.1382,23.4785385 C22.81824,23.4924846 22.7734,23.4924846 22.4257,23.4973846 L22.382,23.5294231 C22.18592,23.9734385 22.04152,24.2742231 21.64784,25.0929 C21.41034,25.5927 21.16904,26.0906154 20.92204,26.5881538 C20.8962,26.6341385 20.87074,26.6801231 20.84984,26.7306308 L20.86618,26.7630462 C21.11698,26.7494769 21.16638,26.7494769 21.37994,26.7494769 L21.41794,26.7174385 C21.58514,26.3065923 21.62808,26.1965308 21.82302,25.7638231 C22.02138,25.7638231 22.25052,25.7593 22.46902,25.7593 C22.66776,25.7593 22.86042,25.7638231 23.05954,25.7638231 C23.1401,26.1799462 23.1648,26.3050846 23.23814,26.7400538 L23.2693,26.7724692 C23.47906,26.7630462 23.5885,26.7581462 23.8469,26.7536231 L23.8716,26.7170615 C23.77432,26.2722923 23.6094,25.5599077 23.50756,25.1158923 C23.4099,24.6764 23.28792,24.1031 23.18456,23.5942538 L23.16936,23.5113308 L23.1686,23.5109538 Z M22.69474,23.8302077 L22.9881,25.3944385 C22.81444,25.3944385 22.6347,25.3982077 22.46598,25.3982077 C22.30752,25.3982077 22.14944,25.3944385 21.99098,25.3944385 L22.69512,23.8302077 L22.69474,23.8302077 Z M27.66894,26.5365154 C27.70998,26.1015462 27.75634,25.6620538 27.80726,25.2270846 C27.87376,24.6579308 27.95166,24.0804846 28.02766,23.5158538 L28.00106,23.4834385 C27.80194,23.4928615 27.7514,23.4977615 27.52834,23.4977615 L27.49414,23.5298 C27.47704,23.8490538 27.46982,23.9557231 27.40446,24.6816769 L27.26386,26.2168846 L26.7672,25.2040923 C26.50196,24.6673538 26.2238,24.0801077 25.95172,23.5154769 L25.90612,23.4830615 C25.62188,23.4924846 25.57172,23.4924846 25.26392,23.4973846 L25.23504,23.5294231 C25.1864,24.1588846 25.11724,24.7921154 25.04352,25.4215769 C24.99184,25.8606923 24.93484,26.3047077 24.8634,26.7445769 L24.89,26.7766154 C25.1294,26.7626692 25.14954,26.7626692 25.36804,26.7626692 L25.40148,26.7306308 C25.41402,26.5410385 25.41478,26.5316154 25.4448,26.1479077 C25.46266,25.9530385 25.4752,25.7634462 25.49268,25.5693308 L25.62948,23.9824846 L26.26028,25.2866385 C26.50196,25.7728692 26.73794,26.2591 26.97392,26.7442 L27.01002,26.7766154 C27.30908,26.7626692 27.32922,26.7626692 27.62182,26.7626692 L27.6507,26.7306308 L27.66856,26.5361385 L27.66894,26.5365154 Z M31.93064,25.1581077 C31.69618,25.1675308 31.64184,25.1675308 31.37318,25.1675308 L31.34012,25.1995692 C31.32986,25.3706923 31.31732,25.6481077 31.27552,26.0043 L31.22992,26.3510692 C31.11212,26.3834846 30.95784,26.4302231 30.70932,26.4302231 C29.9098,26.4302231 29.54082,25.9349462 29.63012,25.1713 C29.6552,24.9590923 29.72626,24.5614385 30.01164,24.2467077 C30.36504,23.8584769 30.799,23.8396308 30.97798,23.8396308 C31.43968,23.8396308 31.7167,24.0205538 31.85958,24.1174231 L31.89986,24.108 C31.9447,23.8954154 31.96332,23.8215385 32.00702,23.6594615 L31.98612,23.6270462 C31.85388,23.5674923 31.53278,23.4284077 30.99622,23.4284077 C30.73326,23.4284077 30.14882,23.4517769 29.64722,23.9184077 C29.33562,24.2048692 29.09242,24.6356923 29.02896,25.1720538 C28.9674,25.7035154 29.1137,26.1060692 29.3284,26.3518231 C29.65254,26.7212077 30.1758,26.8324 30.6622,26.8324 C31.0346,26.8324 31.3747,26.7720923 31.7376,26.6428077 L31.77104,26.6100154 C31.78244,26.4716846 31.78738,26.3883846 31.80904,26.1991692 C31.8421,25.9213769 31.88998,25.5508615 31.95344,25.186 L31.9314,25.1581077 L31.93064,25.1581077 Z M35.08198,23.5109538 L35.05158,23.4789154 C34.73238,23.4928615 34.68754,23.4928615 34.33946,23.4977615 L34.29576,23.5298 C34.10006,23.9738154 33.95566,24.2746 33.5616,25.0932769 C33.32448,25.5930769 33.0828,26.0909923 32.8358,26.5885308 C32.81034,26.6345154 32.78526,26.6805 32.7636,26.7310077 L32.78032,26.7634231 C33.02998,26.7498538 33.07976,26.7498538 33.29332,26.7498538 L33.33208,26.7178154 C33.49928,26.3069692 33.54184,26.1969077 33.7364,25.7642 C33.93514,25.7642 34.16428,25.7596769 34.3824,25.7596769 C34.58114,25.7596769 34.7738,25.7642 34.9733,25.7642 C35.0531,26.1803231 35.07856,26.3054615 35.1519,26.7404308 L35.1823,26.7728462 C35.39244,26.7634231 35.50226,26.7585231 35.76104,26.754 L35.78498,26.7174385 C35.6877,26.2726692 35.52278,25.5602846 35.42094,25.1162692 C35.32366,24.6767769 35.20206,24.1034769 35.09794,23.5946308 L35.08274,23.5117077 L35.08198,23.5109538 Z M34.60812,23.8305846 L34.90186,25.3948154 C34.72782,25.3948154 34.54846,25.3985846 34.37974,25.3985846 C34.2209,25.3985846 34.06244,25.3948154 33.9036,25.3948154 L34.60774,23.8305846 L34.60812,23.8305846 Z M41.26762,23.5117077 L41.23646,23.4792923 C40.91726,23.4932385 40.87242,23.4932385 40.52396,23.4981385 L40.48102,23.5301769 C40.28494,23.9741923 40.14054,24.2749769 39.74686,25.0936538 C39.50936,25.5934538 39.2673,26.0913692 39.0203,26.5889077 C38.99522,26.6348923 38.96976,26.6808769 38.94886,26.7313846 L38.9652,26.7638 C39.21524,26.7502308 39.2654,26.7502308 39.4782,26.7502308 L39.5162,26.7181923 C39.6834,26.3073462 39.72672,26.1972846 39.92128,25.7645769 C40.12002,25.7645769 40.34878,25.7600538 40.56728,25.7600538 C40.76602,25.7600538 40.95944,25.7645769 41.1578,25.7645769 C41.23836,26.1807 41.26344,26.3058385 41.3364,26.7408077 L41.36756,26.7732231 C41.57732,26.7638 41.68676,26.7589 41.94592,26.7543769 L41.97024,26.7178154 C41.87296,26.2730462 41.70804,25.5606615 41.6062,25.1166462 C41.50854,24.6771538 41.38694,24.1038538 41.2832,23.5950077 L41.268,23.5120846 L41.26762,23.5117077 Z M40.79262,23.8309615 L41.08674,25.3951923 C40.91308,25.3951923 40.73334,25.3989615 40.56462,25.3989615 C40.40578,25.3989615 40.24732,25.3951923 40.08848,25.3951923 L40.793,23.8309615 L40.79262,23.8309615 Z M44.24302,26.8331538 C45.22114,26.8331538 45.93022,26.2504308 46.05942,25.1445385 C46.18482,24.0718154 45.63952,23.4287846 44.65646,23.4287846 C43.62856,23.4287846 42.95178,24.1185538 42.83056,25.1539615 C42.71048,26.1807 43.21588,26.8286308 44.2434,26.8331538 L44.24302,26.8331538 Z M44.2985,26.4449231 C43.93066,26.4449231 43.67226,26.2783231 43.5347,26.0099538 C43.3979,25.7374385 43.4093,25.3439308 43.4359,25.1223 C43.45946,24.9138615 43.54534,24.4792692 43.76574,24.2063769 C43.88848,24.0492 44.15486,23.8132462 44.61162,23.8132462 C44.73056,23.8132462 45.15236,23.8181462 45.36402,24.2109 C45.51982,24.4973615 45.49132,24.9508 45.47118,25.1223 C45.3891,25.8252615 45.02772,26.4490692 44.2985,26.4453 L44.2985,26.4449231 Z M49.47714,23.8637538 C49.4931,23.7291923 49.50374,23.6790615 49.53794,23.5169846 L49.51704,23.4841923 C49.13324,23.4890923 48.75096,23.4936154 48.3683,23.4936154 C48.01034,23.4985154 47.4392,23.4985154 47.08162,23.4985154 L47.05274,23.5305538 C47.02424,23.6926308 47.02234,23.7114769 46.99308,23.8735538 L47.01968,23.9052154 C47.46276,23.8916462 47.51254,23.8916462 47.94498,23.8863692 C47.92674,24.0861385 47.90812,24.3311385 47.85264,24.8022923 C47.77664,25.4506 47.69608,26.0977769 47.59538,26.7453308 L47.61628,26.7777462 C47.8914,26.7638 47.90584,26.7638 48.18894,26.7638 L48.22314,26.7317615 C48.24024,26.4543462 48.27406,25.9967615 48.4101,24.8358385 C48.45798,24.4234846 48.4671,24.3496077 48.5317,23.8871231 C48.95806,23.8871231 49.0276,23.8871231 49.4437,23.8965462 L49.47714,23.8641308 L49.47714,23.8637538 Z M52.42898,26.3522 C51.78526,26.3748154 51.63098,26.3748154 50.88162,26.3748154 C50.92798,25.9353231 50.93786,25.8056615 51.01082,25.2693 C51.68608,25.2693 51.81034,25.2693 52.38452,25.2832462 L52.41872,25.2508308 C52.44076,25.1030769 52.44608,25.0567154 52.48484,24.8946385 L52.46394,24.8626 C51.85708,24.8716462 51.66746,24.8761692 51.05794,24.8716462 C51.10734,24.4457231 51.12254,24.3119154 51.18714,23.8863692 C51.81794,23.8912692 52.03074,23.8912692 52.6699,23.9097385 L52.70334,23.8769462 C52.7326,23.7111 52.74894,23.6545615 52.78048,23.5166077 L52.75464,23.4838154 C51.8396,23.4932385 51.6458,23.4932385 50.6673,23.4981385 L50.6331,23.5301769 C50.60574,24.0623923 50.55406,24.5064077 50.46286,25.2828692 C50.36406,26.1298154 50.3196,26.3797154 50.26222,26.7453308 L50.28274,26.7773692 C51.22742,26.7679462 51.38246,26.7634231 52.35108,26.7634231 L52.38908,26.7313846 C52.41758,26.5738308 52.42138,26.5417923 52.45482,26.3846154 L52.42898,26.3522 L52.42898,26.3522 Z M55.64644,23.5117077 L55.61528,23.4792923 C55.29608,23.4932385 55.25124,23.4932385 54.90316,23.4981385 L54.85984,23.5301769 C54.66414,23.9741923 54.51936,24.2749769 54.12568,25.0936538 C53.88856,25.5934538 53.64612,26.0913692 53.39988,26.5889077 C53.37404,26.6348923 53.34896,26.6808769 53.32768,26.7313846 L53.34402,26.7638 C53.59406,26.7502308 53.64346,26.7502308 53.85702,26.7502308 L53.89578,26.7181923 C54.06298,26.3073462 54.10478,26.1972846 54.3001,25.7645769 C54.49846,25.7645769 54.7276,25.7600538 54.9461,25.7600538 C55.14484,25.7600538 55.3375,25.7645769 55.53624,25.7645769 C55.6168,26.1807 55.64264,26.3058385 55.71484,26.7408077 L55.746,26.7732231 C55.95576,26.7638 56.0652,26.7589 56.3236,26.7543769 L56.3483,26.7178154 C56.2514,26.2730462 56.0861,25.5606615 55.98426,25.1166462 C55.8866,24.6771538 55.76538,24.1038538 55.66126,23.5950077 L55.64606,23.5120846 L55.64644,23.5117077 Z M55.17144,23.8309615 L55.46556,25.3951923 C55.29228,25.3951923 55.11292,25.3989615 54.9442,25.3989615 C54.7846,25.3989615 54.62652,25.3951923 54.46768,25.3951923 L55.1722,23.8309615 L55.17144,23.8309615 Z M58.06818,26.7264846 C58.08338,26.3397615 58.16166,25.6296385 58.19168,25.3763462 C58.36458,25.3801154 58.39498,25.3763462 58.54964,25.3714462 C58.65148,25.5192 58.6758,25.5651846 58.9247,25.9843231 C59.0577,26.2104769 59.20058,26.4317308 59.3161,26.6665538 C59.33282,26.6989692 59.34878,26.7313846 59.36474,26.7638 L59.39704,26.7871692 C59.5023,26.7781231 59.60718,26.7736 59.71244,26.7683231 C59.81124,26.7645538 59.91612,26.7645538 60.01568,26.7645538 L60.04076,26.7181923 C59.77742,26.3397615 59.7189,26.2470385 59.58856,26.0446308 C59.51332,25.9247692 59.18728,25.3989615 59.11546,25.2930462 C59.76982,25.1309692 60.02746,24.7559308 60.07078,24.3857923 C60.12246,23.9417769 59.9089,23.6877308 59.5403,23.5678692 C59.30622,23.4887154 59.04326,23.4887154 58.77004,23.4887154 L58.46604,23.4932385 C58.29808,23.4932385 58.05374,23.4981385 57.96444,23.4981385 L57.84056,23.4981385 L57.80712,23.5301769 C57.7828,23.9930385 57.76,24.3582769 57.6384,25.3940615 C57.58596,25.8410923 57.5282,26.2934 57.46094,26.7396769 L57.48754,26.7728462 C57.74708,26.7585231 57.7524,26.7585231 58.0355,26.7585231 L58.06894,26.7261077 L58.06818,26.7264846 Z M58.22588,24.9964077 C58.28136,24.4837923 58.28972,24.4095385 58.35774,23.8731769 C58.52722,23.8682769 58.61614,23.8682769 58.68074,23.8682769 C59.05314,23.8682769 59.32028,23.8818462 59.45214,24.1083769 C59.50914,24.2146692 59.52054,24.3307615 59.50914,24.4276308 C59.49204,24.5753846 59.41034,24.7189923 59.27506,24.8158615 C59.014,25.0103538 58.60322,25.0005538 58.22626,24.9967846 L58.22588,24.9964077 Z M62.56244,26.8331538 C63.54094,26.8331538 64.24964,26.2504308 64.37884,25.1445385 C64.50424,24.0718154 63.95894,23.4287846 62.97588,23.4287846 C61.94798,23.4287846 61.2712,24.1185538 61.14998,25.1539615 C61.0299,26.1807 61.53492,26.8286308 62.56244,26.8331538 L62.56244,26.8331538 Z M62.61792,26.4449231 C62.25008,26.4449231 61.99206,26.2783231 61.85412,26.0099538 C61.71732,25.7374385 61.72872,25.3439308 61.75532,25.1223 C61.77888,24.9138615 61.86476,24.4792692 62.08592,24.2063769 C62.20828,24.0492 62.47352,23.8132462 62.93104,23.8132462 C63.05036,23.8132462 63.4714,23.8181462 63.68344,24.2109 C63.83924,24.4973615 63.81074,24.9508 63.7906,25.1223 C63.70776,25.8252615 63.34676,26.4490692 62.61754,26.4453 L62.61792,26.4449231 Z M67.30104,23.5124615 L67.27064,23.4796692 C66.95144,23.4936154 66.90584,23.4936154 66.55814,23.4985154 L66.51444,23.5305538 C66.31836,23.9745692 66.17396,24.2753538 65.78028,25.0940308 C65.54316,25.5938308 65.30072,26.0917462 65.05372,26.5892846 C65.02864,26.6352692 65.00356,26.6812538 64.98266,26.7317615 L64.99862,26.7641769 C65.24866,26.7506077 65.29882,26.7506077 65.51238,26.7506077 L65.55038,26.7185692 C65.71758,26.3077231 65.76052,26.1976615 65.95508,25.7649538 C66.15382,25.7649538 66.38258,25.7604308 66.60108,25.7604308 C66.79944,25.7604308 66.99248,25.7649538 67.1916,25.7649538 C67.2714,26.1810769 67.29686,26.3062154 67.3702,26.7411846 L67.4006,26.7736 C67.61074,26.7641769 67.72056,26.7592769 67.97934,26.7547538 L68.00328,26.7181923 C67.90676,26.2734231 67.74108,25.5610385 67.63924,25.1170231 C67.54196,24.6775308 67.42036,24.1042308 67.31624,23.5953846 L67.30104,23.5124615 L67.30104,23.5124615 Z M66.8268,23.8313385 L67.12054,25.3955692 C66.9465,25.3955692 66.76714,25.3993385 66.59842,25.3993385 C66.43882,25.3993385 66.28074,25.3955692 66.1219,25.3955692 L66.82604,23.8313385 L66.8268,23.8313385 Z" id="Shape"></path>
                        <path d="M30.68272,18.8348462 C30.60672,19.4643077 30.53832,20.1005538 30.47752,20.7300154 L30.44826,21.0330615 L30.3677,21.1220154 C30.00746,21.1220154 29.7141,21.1295538 29.38996,21.1438769 L29.3018,21.0666077 C28.9484,20.3579923 28.595,19.6501308 28.234,18.9445308 L27.417,17.3022769 L27.2384,19.3293692 C27.21256,19.6113077 27.19394,19.8857077 27.16772,20.1676462 C27.14416,20.4571231 27.1206,20.7458462 27.1016,21.0360769 L27.0085,21.1227692 C26.72122,21.1227692 26.4822,21.1310615 26.22722,21.1453846 L26.14362,21.0447462 C26.25192,20.3983231 26.33742,19.7526538 26.4157,19.1028385 C26.52666,18.1823923 26.62964,17.2653385 26.70298,16.3418769 L26.78392,16.2529231 C27.12402,16.2484 27.46146,16.2423692 27.80118,16.2314385 L27.90758,16.3045615 C28.31304,17.1247462 28.71318,17.9490769 29.12814,18.7658692 L29.74564,19.9908692 L29.9288,18.0316231 C29.98352,17.4398538 30.0314,16.9215846 30.06446,16.3399923 L30.15718,16.2525462 C30.44066,16.2525462 30.68158,16.2419923 30.93124,16.2306846 L31.0137,16.3298154 C30.89818,17.1658308 30.78266,17.9995846 30.68196,18.8363538 L30.68272,18.8348462 Z M34.30792,20.4303615 C34.54846,20.3455538 34.70122,20.2532077 34.89844,20.1148769 L35.04398,20.2038308 C34.98698,20.4254615 34.93834,20.6391769 34.89844,20.8642 L34.82244,20.9350615 C34.42344,21.1159846 34.01228,21.2026769 33.56312,21.2026769 C32.30646,21.2026769 31.58332,20.5377846 31.72924,19.3293692 C31.88314,18.0497154 32.81528,17.4108308 33.82532,17.4108308 C34.4318,17.4108308 34.83612,17.6407538 35.04398,17.9015846 C35.38864,18.3312769 35.35482,18.8985462 35.28338,19.3942 L35.18078,19.4673231 C34.32578,19.4620462 33.51524,19.4616692 32.66138,19.4665692 C32.64504,19.6912154 32.64998,19.9641077 32.83238,20.1940308 C33.07178,20.4929308 33.45444,20.5264769 33.67978,20.5264769 C33.88498,20.5264769 34.10082,20.4948154 34.30792,20.4303615 L34.30792,20.4303615 Z M32.74802,18.8186385 C33.53348,18.8235385 33.82722,18.8186385 34.43142,18.8111 L34.43218,18.7082 C34.43028,18.6441231 34.42344,18.5747692 34.40444,18.5024 C34.31058,18.1695769 34.03964,18.0327538 33.7364,18.0327538 C33.37616,18.0327538 32.9156,18.2438308 32.74726,18.8186385 L32.74802,18.8186385 Z M42.02192,17.6426385 C41.58036,18.5472538 40.84126,20.2019462 40.51522,21.0477615 L40.42022,21.1156077 C40.05998,21.1205077 39.71152,21.1284231 39.35166,21.1442538 L39.26426,21.0553 C39.2179,20.5758538 39.1476,20.0873615 39.0792,19.6109308 L38.88654,18.2966 L38.35948,19.6625692 C38.20558,20.0538154 37.97568,20.6188231 37.82748,21.0451231 L37.74122,21.1159846 C37.37376,21.1208846 37.01694,21.1288 36.65062,21.1446308 L36.57462,21.0541692 C36.46252,20.3052231 36.13762,18.4635769 35.94078,17.6139923 L36.01602,17.5137308 C36.31318,17.4971462 36.60502,17.4824462 36.90142,17.4545538 L36.98502,17.5393615 C37.01998,17.9754615 37.16742,19.0029538 37.19896,19.2317462 L37.34716,20.3135154 L37.9354,18.7964 C38.0988,18.3554 38.22648,18.0124 38.3648,17.5894923 L38.4598,17.5118462 C38.8588,17.5118462 39.20992,17.5043077 39.57928,17.4892308 L39.65528,17.5815769 C39.71114,18.1205769 39.8012,18.6746538 39.87682,19.2106385 L40.05314,20.3429154 L40.54942,19.0576077 L40.81162,18.3550231 C40.94006,18.0301154 41.00048,17.8876385 41.09282,17.5747923 L41.19086,17.5046846 C41.33526,17.5046846 41.46066,17.5122231 41.57846,17.5122231 C41.68942,17.5122231 41.80114,17.5046846 41.9121,17.5046846 L42.04206,17.6019308 L42.02192,17.6433923 L42.02192,17.6426385 Z M48.26076,20.5336385 C48.21022,20.7107923 48.17336,20.8879462 48.13536,21.0673615 L48.03276,21.1291769 C47.0687,21.1216385 46.10008,21.1216385 45.13602,21.1216385 C44.8989,21.1216385 44.66216,21.1246538 44.42542,21.1299308 L44.34258,20.9949923 C45.01898,20.0760538 45.68018,19.1495769 46.33834,18.2197077 L47.24198,16.9400538 C46.5291,16.9400538 45.81926,16.9453308 45.10638,16.954 L45.03608,16.8484615 C45.08168,16.6720615 45.12158,16.4990538 45.15616,16.3207692 L45.24584,16.2367154 C46.01192,16.2435 46.778,16.2502846 47.54484,16.2502846 C47.91838,16.2502846 48.28964,16.2450077 48.66204,16.2352077 L48.72664,16.3829615 C48.19844,17.0776308 47.73484,17.7135 47.21918,18.4356846 C46.73924,19.1028385 46.26538,19.7707462 45.79912,20.4386538 C46.6222,20.4386538 47.35712,20.4247077 48.17944,20.4039769 L48.27064,20.4963231 L48.26038,20.5328846 L48.26076,20.5336385 Z M51.64808,20.4303615 C51.889,20.3455538 52.04214,20.2532077 52.23936,20.1148769 L52.3849,20.2038308 C52.3279,20.4254615 52.2785,20.6391769 52.2386,20.8642 L52.16336,20.9350615 C51.76436,21.1159846 51.35282,21.2026769 50.90366,21.2026769 C49.64738,21.2026769 48.92462,20.5377846 49.07054,19.3293692 C49.22444,18.0497154 50.15582,17.4108308 51.16624,17.4108308 C51.77272,17.4108308 52.17704,17.6407538 52.3849,17.9015846 C52.72956,18.3312769 52.69536,18.8985462 52.62354,19.3942 L52.52094,19.4673231 C51.66708,19.4620462 50.85654,19.4616692 50.0023,19.4665692 C49.98558,19.6912154 49.9909,19.9641077 50.1733,20.1940308 C50.4127,20.4929308 50.79536,20.5264769 51.01994,20.5264769 C51.2259,20.5264769 51.44174,20.4948154 51.64846,20.4303615 L51.64808,20.4303615 Z M50.08894,18.8186385 C50.87478,18.8235385 51.16814,18.8186385 51.77234,18.8111 L51.7731,18.7082 C51.7712,18.6441231 51.76474,18.5747692 51.74574,18.5024 C51.65226,18.1695769 51.38094,18.0327538 51.07808,18.0327538 C50.71708,18.0327538 50.25728,18.2438308 50.08894,18.8186385 L50.08894,18.8186385 Z M56.70094,18.5593154 C56.63634,19.3896769 56.48434,20.2087308 56.4547,21.0432385 L56.36806,21.1148538 C56.09256,21.1197538 55.81896,21.1329462 55.54346,21.1435 L55.4838,21.0455 L55.50014,20.9384538 C55.2045,21.1092 54.87922,21.2023 54.5243,21.2023 C53.74074,21.2023 53.24142,20.7115462 53.32616,20.0055692 C53.46448,18.8559538 54.86136,18.7059385 55.77716,18.6098231 C55.78476,18.5457462 55.79046,18.4892077 55.79046,18.4375692 C55.79046,18.3757538 55.78134,18.3275077 55.76082,18.2868 C55.71636,18.1970923 55.59476,18.0794923 55.24706,18.0794923 C54.80322,18.0794923 54.4844,18.1948308 54.08426,18.3433385 L53.95506,18.2641846 L54.04702,17.7063385 L54.12834,17.64 C54.56268,17.5050615 55.01146,17.4108308 55.47354,17.4108308 C56.03024,17.4108308 56.5991,17.5834615 56.70094,18.1609077 C56.71614,18.2619231 56.71234,18.4085462 56.70094,18.5593154 L56.70094,18.5593154 Z M55.70686,19.2554923 C55.1817,19.3252231 54.22106,19.4062615 54.26514,20.0779385 C54.2849,20.3662846 54.4825,20.5125308 54.81994,20.5125308 C55.07074,20.5125308 55.309,20.4363923 55.5104,20.3052231 L55.58716,20.2517 L55.70724,19.2554923 L55.70686,19.2554923 Z M58.90494,18.3991231 C58.78562,19.3904308 58.70734,20.0839692 58.64844,21.0375846 L58.55344,21.1144769 C58.26844,21.1197538 57.98572,21.1325692 57.70148,21.1431231 L57.63232,21.0394692 C57.76418,20.1710385 57.84664,19.5724846 57.9576,18.6524154 C58.06704,17.7432769 58.18712,16.7723231 58.21828,15.8567769 L58.29808,15.7798846 C58.60056,15.7357846 58.89088,15.6849 59.19108,15.6264769 L59.27848,15.7327692 C59.11888,16.6223077 59.01248,17.5031769 58.90456,18.3987462 L58.90494,18.3991231 Z M63.13548,18.5589385 C63.07088,19.3893 62.91888,20.2083538 62.88924,21.0428615 L62.8026,21.1144769 C62.5271,21.1193769 62.2535,21.1325692 61.978,21.1431231 L61.91796,21.0451231 L61.93392,20.9380769 C61.63866,21.1088231 61.313,21.2019231 60.95846,21.2019231 C60.17452,21.2019231 59.67482,20.7111692 59.75994,20.0051923 C59.89826,18.8555769 61.29514,18.7055615 62.21094,18.6094462 C62.21854,18.5453692 62.22462,18.4888308 62.22424,18.4371923 C62.22424,18.3753769 62.21588,18.3271308 62.19498,18.2864231 C62.1509,18.1967154 62.02892,18.0791154 61.68198,18.0791154 C61.23738,18.0791154 60.91894,18.1944538 60.51918,18.3429615 L60.38884,18.2638077 L60.48156,17.7059615 L60.56288,17.6396231 C60.99722,17.5046846 61.446,17.4104538 61.90808,17.4104538 C62.46478,17.4104538 63.03288,17.5830846 63.13548,18.1605308 C63.15144,18.2615462 63.14688,18.4081692 63.13548,18.5589385 L63.13548,18.5589385 Z M62.14178,19.2551154 C61.61662,19.3248462 60.65598,19.4058846 60.70044,20.0775615 C60.71944,20.3659077 60.91704,20.5121538 61.25372,20.5121538 C61.50452,20.5121538 61.74316,20.4360154 61.94532,20.3048462 L62.02132,20.2513231 L62.1414,19.2551154 L62.14178,19.2551154 Z M67.66926,19.6708615 C67.63696,20.0274308 67.57274,20.6357846 67.55906,21.0368308 L67.46406,21.1141 C67.19312,21.119 66.93016,21.1272923 66.65922,21.1435 L66.56536,21.0473846 C66.57562,20.9633308 66.5931,20.8792769 66.60336,20.7948462 C66.6501,20.4669231 66.68962,20.139 66.72876,19.8103231 C66.85416,18.7737846 66.85264,18.7183769 66.83402,18.5883385 C66.78918,18.2996154 66.62274,18.1398 66.30658,18.1398 C65.90872,18.1398 65.57052,18.3422077 65.35126,18.4835538 C65.23346,19.4156846 65.15556,20.1145 65.10502,21.0372077 L65.01116,21.1141 C64.72502,21.1193769 64.44496,21.1276692 64.15996,21.1442538 L64.09004,21.0394692 C64.14894,20.6192 64.21316,20.2027 64.26408,19.7813 C64.36516,18.9407615 64.39784,18.4609385 64.42824,17.6648769 L64.51564,17.5819538 C64.8052,17.5352154 65.09324,17.4858385 65.38204,17.4368385 L65.48084,17.5367231 L65.44664,17.7764462 C65.82664,17.5668769 66.24844,17.4296769 66.70064,17.4296769 C66.89064,17.4296769 67.13384,17.4568154 67.3379,17.5665 C67.53284,17.6750538 67.68256,17.8424077 67.7483,18.0414231 C67.82544,18.2585308 67.8053,18.4748846 67.7635,18.8864846 L67.6685,19.6697308 L67.66926,19.6708615 Z M71.69802,17.4319385 C71.77554,16.8213231 71.80442,16.4436462 71.81886,15.8564 L71.89866,15.7798846 C72.18974,15.7346538 72.4717,15.6845231 72.76126,15.6279846 L72.86652,15.7184462 C72.70312,16.6471846 72.52376,18.0591385 72.40862,19.0150154 C72.31628,19.7831846 72.26878,20.2927846 72.22622,21.0315538 L72.14452,21.1212615 C71.84356,21.1212615 71.58782,21.1325692 71.32258,21.1427462 L71.22264,21.0568077 L71.24468,20.9316692 C70.9346,21.1050538 70.62832,21.1879769 70.28936,21.1879769 C68.3563,21.1879769 68.3639,18.8088385 69.60916,17.9012077 C70.22476,17.4421154 70.95284,17.4232692 71.3393,17.4232692 C71.47534,17.4232692 71.54982,17.4232692 71.69764,17.4323154 L71.69802,17.4319385 Z M71.24658,20.2494385 L71.33664,20.1898846 C71.45064,19.3561308 71.47724,19.1382692 71.5939,18.1137923 C71.50726,18.1070077 71.42936,18.0987154 71.31156,18.0987154 C71.08356,18.0987154 70.61996,18.1130385 70.2525,18.3964846 C70.08454,18.5284077 69.7927,18.8280615 69.72354,19.4036231 C69.6787,19.7730077 69.76268,20.0293154 69.88314,20.1789538 C69.98688,20.3033385 70.18904,20.4514692 70.54586,20.4514692 C70.79932,20.4514692 71.03872,20.3760846 71.24582,20.2486846 L71.24658,20.2494385 Z" id="Shape"></path>
                        <path d="M23.09032,9.57535385 C22.95732,9.70727692 22.79658,9.80150769 22.56744,9.86181538 C22.33944,9.92136923 22.13918,9.96358462 21.96704,9.98733077 C21.43504,10.0702538 20.88594,10.1482769 20.31784,10.2198923 C19.76304,10.2794462 19.25004,10.3744308 18.77884,10.5063538 C18.30764,10.6375231 17.90712,10.8286231 17.57804,11.0792769 C17.26264,11.3174923 17.07796,11.6635077 17.024,12.1158154 C16.9898,12.4034077 17.01792,12.6593385 17.1076,12.8866231 C17.21286,13.1007154 17.35916,13.2910615 17.54764,13.4584154 C17.73764,13.6137077 17.9645,13.7328154 18.22784,13.8164923 C18.49156,13.8994154 18.76668,13.9408769 19.0532,13.9408769 C19.52174,13.9408769 19.97926,13.8760462 20.425,13.7448769 C20.8696,13.6137077 21.26366,13.4229846 21.6068,13.1719538 C21.96172,12.9216769 22.25204,12.6171231 22.477,12.2598 C22.71526,11.9017231 22.8608,11.4961538 22.91552,11.0423385 L23.09032,9.57497692 L23.09032,9.57535385 Z M20.87112,6.06846154 C20.55686,6.06846154 19.99864,6.07373846 19.46816,6.06469231 L13.62376,6.06469231 L12.84856,12.5639769 C12.80448,12.9333615 12.82196,13.2262308 12.90062,13.4407 C12.99334,13.6434846 13.25972,13.7565615 13.69976,13.7806846 C14.05126,13.7806846 14.40504,13.7625923 14.7611,13.7267846 L14.64786,14.6747462 C14.46546,14.6747462 14.2823,14.6807769 14.09876,14.6924615 C13.91484,14.7037692 13.73206,14.7101769 13.54966,14.7101769 C12.72886,14.7101769 12.1733,14.5669462 11.88146,14.2804846 C11.59152,13.9827154 11.50032,13.4399462 11.6071,12.6521769 L12.39256,6.06356154 L8.8996,6.06356154 C8.91594,5.58863846 8.8407,5.19965385 8.66932,4.87097692 C8.51124,4.53061538 8.28172,4.25131538 7.97962,4.03194615 C7.69082,3.80202308 7.34198,3.63165385 6.93386,3.52196923 C6.53866,3.40135385 6.11306,3.34104615 5.65896,3.34104615 C5.23944,3.34104615 4.82828,3.38476923 4.42396,3.47296923 C4.0337,3.54948462 3.67992,3.68027692 3.36224,3.86723077 C3.0571,4.0425 2.79984,4.27807692 2.59198,4.57471538 C2.38298,4.87097692 2.25758,5.2381 2.21426,5.67683846 C2.1869,5.95086154 2.21046,6.19171538 2.28646,6.40053077 C2.37462,6.59803846 2.50154,6.76765385 2.66722,6.91050769 C2.8329,7.05260769 3.02518,7.16794615 3.24406,7.25576923 C3.47472,7.34321538 3.71906,7.41483077 3.9767,7.46948462 L7.0319,8.17696923 C7.4765,8.28627692 7.88804,8.42385385 8.2669,8.58856923 C8.65906,8.7416 8.9927,8.93910769 9.2682,9.18033846 C9.557,9.41026154 9.76828,9.69559231 9.9028,10.0359538 C10.04872,10.3751846 10.09812,10.7860308 10.051,11.2684923 C10.03808,11.4004154 10.00236,11.5760615 9.94536,11.7954308 C9.89976,12.0148 9.80476,12.2507538 9.66036,12.5029154 C9.52888,12.7441462 9.34268,12.9910308 9.10252,13.2431923 C8.87452,13.4949769 8.56406,13.7249 8.17304,13.9329615 C7.79456,14.1308462 7.32944,14.2899077 6.7792,14.4105231 C6.22744,14.5424462 5.5746,14.6076538 4.82068,14.6076538 C4.06638,14.6076538 3.37288,14.5307615 2.74208,14.3769769 C2.11204,14.2130154 1.58498,13.9661308 1.16242,13.6370769 C0.74062,13.3091538 0.42902,12.8862462 0.22762,12.3706154 C0.03876,11.8557385 -0.0019,11.2360769 0.10526,10.5123846 L1.3262,10.5123846 C1.25552,11.1154615 1.30796,11.6194077 1.48314,12.0253538 C1.65908,12.4305462 1.92014,12.7539462 2.26784,12.9951769 C2.62732,13.2364077 3.059,13.4124308 3.56364,13.5221154 C4.06828,13.6208692 4.61396,13.6702462 5.20068,13.6702462 C5.53584,13.6702462 5.9052,13.6265231 6.30914,13.5383231 C6.7127,13.4508769 7.09118,13.3136769 7.44534,13.1274769 C7.81166,12.9295923 8.12288,12.6834615 8.37938,12.3872 C8.63778,12.0796308 8.78712,11.7125077 8.8293,11.2847 C8.86198,10.9556462 8.8065,10.6703154 8.6621,10.4290846 C8.53024,10.1878538 8.34062,9.98506923 8.09324,9.82073077 C7.85764,9.65639231 7.58974,9.52484615 7.28764,9.42646923 C6.98744,9.31640769 6.69104,9.22933846 6.39844,9.16337692 L3.60544,8.52185385 C3.2433,8.43403077 2.88876,8.32434615 2.54258,8.1928 C2.20818,8.06163077 1.92052,7.88598462 1.67846,7.66699231 C1.43678,7.44762308 1.24754,7.17887692 1.11112,6.86113077 C0.98686,6.54300769 0.94772,6.15326923 0.99256,5.69266923 C1.02106,5.40733846 1.11416,5.07300769 1.27072,4.69005385 C1.42842,4.30559231 1.68568,3.94374615 2.04212,3.60376154 C2.41072,3.26453077 2.89332,2.97882308 3.49106,2.74814615 C4.08918,2.50691538 4.8374,2.3863 5.73534,2.3863 C6.36994,2.3863 6.9673,2.46319231 7.52704,2.61697692 C8.0864,2.77038462 8.56672,3.00030769 8.96724,3.30787692 C9.36852,3.61506923 9.67176,3.9984 9.8781,4.459 C9.9769,4.66253846 10.04758,4.8804 10.08976,5.11484615 L12.50656,5.11484615 L12.83792,2.34144615 L14.06836,2.34144615 L13.73776,5.11484615 L21.10406,5.11484615 C21.58438,5.11861538 22.02176,5.16007692 22.45496,5.24375385 C22.88892,5.31536923 23.2693,5.4586 23.59572,5.67269231 C23.92138,5.88753846 24.17142,6.19209231 24.34622,6.58597692 C24.52216,6.96666923 24.57308,7.46873077 24.49898,8.08876923 L23.91378,12.9925385 C23.85944,13.4448462 24.07338,13.6717538 24.55598,13.6717538 C24.69886,13.6717538 24.83186,13.6483846 24.95498,13.6001385 L24.84174,14.5488538 L24.44464,14.6023769 C24.339,14.6144385 24.20144,14.6200923 24.03234,14.6200923 C23.7196,14.6200923 23.46994,14.5842846 23.28298,14.5130462 C23.11084,14.4301231 22.98088,14.3159154 22.89386,14.1730615 C22.80646,14.0298308 22.75478,13.8628538 22.73806,13.6717538 C22.73692,13.4689692 22.74946,13.2484692 22.7392,13.0098769 C22.48194,13.3076462 22.2224,13.5771462 21.95906,13.8153615 C21.71092,14.0422692 21.4339,14.2326154 21.12876,14.3882846 C20.8373,14.5428231 20.50404,14.6619308 20.12936,14.7452308 C19.7676,14.8289077 19.33896,14.8707462 18.8442,14.8707462 C18.37566,14.8707462 17.93904,14.8172231 17.5351,14.7094231 C17.14294,14.6140615 16.80284,14.4591462 16.51594,14.2443 C16.24348,14.0181462 16.036,13.7369615 15.89388,13.4037615 C15.76544,13.0569923 15.72934,12.6518 15.78482,12.1863 C15.86082,11.5417615 16.07742,11.0412077 16.43272,10.6835077 C16.78916,10.3129923 17.23262,10.0325615 17.76348,9.84146154 C18.30688,9.65073846 18.90272,9.51994615 19.54948,9.44795385 C20.21068,9.36503077 20.87758,9.28700769 21.55018,9.21539231 C21.81352,9.19126923 22.04532,9.16186923 22.24482,9.12606154 C22.44432,9.09025385 22.61418,9.03032308 22.75402,8.94702308 C22.89614,8.85166154 23.00862,8.72614615 23.09222,8.57123077 C23.18874,8.41593846 23.25182,8.21315385 23.28222,7.96287692 C23.32782,7.58105385 23.29286,7.27084615 23.1781,7.03187692 C23.07778,6.78197692 22.9121,6.58522308 22.68182,6.44161538 C22.46522,6.29838462 22.19542,6.20302308 21.87622,6.15515385 C21.57032,6.09597692 21.23554,6.0662 20.87074,6.0662 L20.87112,6.06846154 Z M51.42502,2.44434615 L52.59694,2.44434615 L52.48408,3.39230769 L51.31178,3.39230769 L51.42578,2.44434615 L51.42502,2.44434615 Z M33.15842,5.08544615 L34.38886,5.08544615 L33.23746,14.5439538 L32.00626,14.5439538 L33.15766,5.08544615 L33.15842,5.08544615 Z M51.13812,5.08544615 L52.36932,5.08544615 L51.24908,14.5439538 L50.01788,14.5439538 L51.13812,5.08544615 L51.13812,5.08544615 Z M61.47944,8.21013846 C61.39204,7.51810769 61.14504,6.97533846 60.73578,6.58183077 C60.3269,6.18719231 59.71244,5.99081538 58.89202,5.99081538 C58.30606,5.99081538 57.77862,6.10389231 57.30818,6.3308 C56.83812,6.55770769 56.43114,6.85585385 56.08762,7.22523846 C55.75702,7.59462308 55.48532,8.01866154 55.27214,8.49546923 C55.0734,8.96096923 54.94458,9.43777692 54.88606,9.92777692 C54.8283,10.4166462 54.84198,10.8994846 54.92786,11.3770462 C55.02932,11.8421692 55.2007,12.2590462 55.44314,12.6295615 C55.69888,12.9989462 56.03442,13.2974692 56.45014,13.5243769 C56.86586,13.7505308 57.3667,13.8636077 57.95304,13.8636077 C58.33076,13.8636077 58.69594,13.7987769 59.05048,13.6676077 C59.40502,13.5364385 59.72574,13.3570231 60.0134,13.1304923 C60.3022,12.8919 60.55034,12.6118462 60.7582,12.2892 C60.96606,11.9673077 61.1116,11.6156385 61.19672,11.2338154 L62.42792,11.2338154 C62.12392,12.3551615 61.57026,13.2315077 60.7658,13.8639846 C59.9621,14.4844 58.9874,14.7949846 57.8417,14.7949846 C57.07334,14.7949846 56.40454,14.6690923 55.8353,14.4191923 C55.2805,14.1564769 54.82716,13.8048077 54.47604,13.3630538 C54.12492,12.9220538 53.87944,12.4086846 53.74188,11.8240769 C53.60432,11.2285385 53.57582,10.5960615 53.65524,9.92815385 C53.73504,9.25986923 53.91364,8.63342308 54.1918,8.04919231 C54.47148,7.45214615 54.83932,6.9335 55.29608,6.49174615 C55.75208,6.05074615 56.28902,5.6987 56.90652,5.43636154 C57.53732,5.17326923 58.23652,5.0421 59.00526,5.0421 C60.0856,5.0421 60.96606,5.30481538 61.6455,5.82986923 C62.33824,6.35454615 62.69316,7.14796923 62.7095,8.20976154 L61.4783,8.20976154 L61.47944,8.21013846 Z M70.56714,8.01300769 C70.59564,7.66623846 70.5527,7.36846923 70.43984,7.11743846 C70.32774,6.85547692 70.15788,6.64025385 69.93064,6.4729 C69.71556,6.3063 69.45678,6.18643846 69.1524,6.11557692 C68.84992,6.03265385 68.52312,5.99043846 68.17124,5.99043846 C67.89764,5.99043846 67.61378,6.02059231 67.32004,6.07976923 C67.04112,6.12801538 66.77664,6.21734615 66.5266,6.34851538 C66.27808,6.46837692 66.06984,6.62894615 65.90226,6.83097692 C65.73506,7.03451538 65.63322,7.28516923 65.59826,7.58331538 C65.56786,7.83359231 65.60738,8.04881538 65.71606,8.2271 C65.83918,8.39445385 65.99802,8.53730769 66.1922,8.65679231 C66.386,8.7759 66.6026,8.87729231 66.83972,8.96096923 C67.07912,9.03258462 67.29952,9.09213846 67.50206,9.14000769 L69.10262,9.47999231 C69.44842,9.52786154 69.78282,9.61719231 70.10582,9.74836154 C70.44402,9.86784615 70.73054,10.0287923 70.9669,10.2308231 C71.2158,10.4343615 71.4077,10.6850154 71.5407,10.9831615 C71.67522,11.2809308 71.71778,11.6329769 71.66914,12.0385462 C71.60948,12.5398538 71.43468,12.9695462 71.14474,13.3276231 C70.85594,13.6728846 70.50254,13.9597231 70.08454,14.1862538 C69.68174,14.4011 69.23334,14.5556385 68.73934,14.6513769 C68.24648,14.7467385 67.76578,14.7946077 67.29648,14.7946077 C66.11088,14.7946077 65.1776,14.5383 64.49664,14.0256846 C63.8286,13.5123154 63.51016,12.6891154 63.54056,11.5557077 L64.77176,11.5557077 C64.733,12.3186 64.96366,12.8975538 65.46336,13.2914385 C65.9775,13.6721308 66.64516,13.8636077 67.46596,13.8636077 C67.7654,13.8636077 68.07472,13.8334538 68.39506,13.7742769 C68.72794,13.7147231 69.03954,13.6133308 69.32986,13.4701 C69.62094,13.3268692 69.863,13.1478308 70.05832,12.9326077 C70.26732,12.7064538 70.39158,12.4313 70.42996,12.1097846 C70.46264,11.8357615 70.42464,11.6084769 70.31596,11.4301923 C70.22096,11.2394692 70.07656,11.0841769 69.88276,10.9646923 C69.6901,10.8339 69.4621,10.7264769 69.198,10.6428 C68.94796,10.5598769 68.68956,10.4882615 68.4228,10.4279538 L66.88,10.1064385 C66.48784,10.0110769 66.12912,9.90403077 65.8046,9.78454615 C65.4816,9.65262308 65.2004,9.49808462 64.96214,9.31866923 C64.73794,9.12794615 64.56884,8.90141538 64.45674,8.63907692 C64.34654,8.36505385 64.31462,8.0311 64.36174,7.63721538 C64.41722,7.17209231 64.5753,6.77217692 64.83674,6.4386 C65.11034,6.10426923 65.44246,5.83552308 65.8312,5.63311538 C66.21994,5.43033077 66.64136,5.28106923 67.09584,5.18570769 C67.56324,5.08996923 68.0181,5.04247692 68.46118,5.04247692 C68.96962,5.04247692 69.43132,5.10203077 69.84628,5.22113846 C70.27492,5.34062308 70.63744,5.52531538 70.93308,5.77596923 C71.24202,6.02662308 71.47268,6.33645385 71.62316,6.70696923 C71.77516,7.07635385 71.83368,7.5117 71.79986,8.01300769 L70.56866,8.01300769 L70.56714,8.01300769 Z M29.07304,5.11597692 L32.0435,5.11597692 L31.93026,6.06393846 L28.9598,6.06393846 L28.1846,12.5632231 C28.14052,12.9326077 28.158,13.2254769 28.23666,13.4399462 C28.32938,13.6427308 28.59576,13.7558077 29.03618,13.7799308 C29.38768,13.7799308 29.74146,13.7618385 30.09752,13.7260308 L29.98466,14.6739923 C29.80226,14.6739923 29.6191,14.6800231 29.43556,14.6917077 C29.25202,14.7030154 29.06886,14.7094231 28.88684,14.7094231 C28.06604,14.7094231 27.5101,14.5661923 27.21864,14.2797308 C26.9287,13.9819615 26.83712,13.4391923 26.94352,12.6514231 L27.73012,6.06280769 L25.77692,6.06280769 L25.89092,5.11446923 L27.84298,5.11446923 L28.17358,2.34106923 L29.40402,2.34106923 L29.07342,5.11446923 L29.07304,5.11597692 Z M33.47268,2.26530769 L34.64498,2.26530769 L34.53212,3.21364615 L33.3602,3.21364615 L33.47268,2.26530769 L33.47268,2.26530769 Z M47.26554,5.03946154 L50.236,5.03946154 L50.12276,5.98704615 L47.1523,5.98704615 L46.3771,12.4867077 C46.33302,12.8560923 46.3505,13.1489615 46.42916,13.3634308 C46.52188,13.5662154 46.78826,13.6800462 47.22868,13.7034154 C47.58018,13.7034154 47.93434,13.6853231 48.29002,13.6498923 L48.17678,14.5982308 C47.99438,14.5982308 47.81122,14.6038846 47.6273,14.6159462 C47.44338,14.6272538 47.26022,14.6336615 47.0782,14.6336615 C46.2574,14.6336615 45.7026,14.4904308 45.41,14.2047231 C45.12044,13.9062 45.02886,13.3634308 45.13564,12.5764154 L45.92148,5.98704615 L40.2572,5.98704615 C40.1774,5.97762308 40.0976,5.99081538 40.02084,5.99081538 C39.74724,5.99081538 39.46376,6.02096923 39.16964,6.08014615 C38.89072,6.12839231 38.62624,6.21772308 38.3762,6.34889231 C38.12768,6.46875385 37.91944,6.62932308 37.75224,6.83135385 C37.58504,7.03489231 37.4832,7.28554615 37.44748,7.58369231 C37.41784,7.83396923 37.45698,8.04919231 37.56604,8.22747692 C37.68916,8.39483077 37.848,8.53768462 38.04218,8.65716923 C38.23674,8.77627692 38.45258,8.87766923 38.69008,8.96134615 C38.92948,9.03296154 39.14988,9.09251538 39.35242,9.14038462 L40.95298,9.48036923 C41.29878,9.52823846 41.63318,9.61756923 41.95618,9.74873846 C42.29438,9.86822308 42.5809,10.0291692 42.81726,10.2312 C43.06616,10.4347385 43.25806,10.6853923 43.39106,10.9835385 C43.52558,11.2813077 43.56814,11.6333538 43.52026,12.0389231 C43.45946,12.5402308 43.28466,12.9699231 42.9951,13.328 C42.7063,13.6732615 42.3529,13.9601 41.9349,14.1866308 C41.5321,14.4014769 41.0837,14.5560154 40.5897,14.6517538 C40.09684,14.7471154 39.61614,14.7949846 39.14722,14.7949846 C37.96162,14.7949846 37.02872,14.5386769 36.34738,14.0260615 C35.67934,13.5126923 35.3609,12.6894923 35.39168,11.5560846 L36.62288,11.5560846 C36.58374,12.3189769 36.8144,12.8979308 37.31448,13.2918154 C37.82862,13.6725077 38.49628,13.8639846 39.31632,13.8639846 C39.61652,13.8639846 39.92584,13.8338308 40.24542,13.7746538 C40.5783,13.7151 40.8899,13.6137077 41.18022,13.4704769 C41.47092,13.3272462 41.71374,13.1482077 41.9083,12.9329846 C42.11806,12.7068308 42.24194,12.4316769 42.2807,12.1101615 C42.313,11.8361385 42.275,11.6088538 42.1667,11.4305692 C42.0717,11.2398462 41.9273,11.0845538 41.7335,10.9650692 C41.5397,10.8342769 41.31246,10.7268538 41.04874,10.6431769 C40.79794,10.5602538 40.53954,10.4886385 40.27354,10.4283308 L38.72922,10.1060615 C38.33706,10.0107 37.97872,9.90365385 37.65382,9.78416923 C37.33082,9.65224615 37.05038,9.49770769 36.81098,9.31829231 C36.58678,9.12756923 36.41806,8.90103846 36.30558,8.6387 C36.19538,8.36467692 36.16384,8.03072308 36.21058,7.63683846 C36.26644,7.17171538 36.42452,6.7718 36.68558,6.43822308 C36.95994,6.10389231 37.29168,5.83514615 37.68118,5.63273846 C38.06954,5.42995385 38.49058,5.28069231 38.94544,5.18533077 C39.41284,5.08959231 39.86732,5.0421 40.3104,5.0421 L46.03472,5.03833077 L46.36532,2.26493077 L47.59652,2.26493077 L47.26592,5.03908462 L47.26554,5.03946154 Z" id="Shape"></path>
                    </g>
                </g>
            </g>
            <path d="M14.61,27.7 L12.06,34 L13.32,34 L13.93,32.44 L16.61,32.44 L17.24,34 L18.57,34 L16,27.7 L14.61,27.7 Z M15.24,29.12 L15.28,29.12 L16.23,31.48 L14.31,31.48 L15.24,29.12 Z M21.2533334,27.7 L20.0133334,27.7 L20.0133334,34 L21.1733334,34 L21.1733334,29.56 L24.3933334,34 L25.3933334,34 L25.3933334,27.7 L24.2333334,27.7 L24.2333334,31.9 L21.2533334,27.7 Z M28.5766667,33 L28.5766667,28.7 L29.6266667,28.7 C30.9566667,28.7 31.7066667,29.5 31.7066667,30.84 C31.7066667,32.2 30.9566667,33 29.6266667,33 L28.5766667,33 Z M27.3266667,34 L29.7066667,34 C31.7366667,34 32.9966667,32.82 32.9966667,30.85 C32.9966667,28.88 31.7366667,27.7 29.7066667,27.7 L27.3266667,27.7 L27.3266667,34 Z M43.3833335,30.85 C43.3833335,28.91 42.0233335,27.58 40.1933335,27.58 C38.3533335,27.58 36.9933335,28.91 36.9933335,30.85 C36.9933335,32.79 38.3533335,34.12 40.1933335,34.12 C42.0233335,34.12 43.3833335,32.79 43.3833335,30.85 L43.3833335,30.85 Z M42.0933335,30.85 C42.0933335,32.17 41.3533335,33.02 40.1933335,33.02 C39.0333335,33.02 38.2933335,32.17 38.2933335,30.85 C38.2933335,29.53 39.0333335,28.68 40.1933335,28.68 C41.3533335,28.68 42.0933335,29.53 42.0933335,30.85 L42.0933335,30.85 Z M47.6566669,34.12 C49.1666669,34.12 50.3666669,33.39 50.3666669,31.55 L50.3666669,27.7 L49.1166669,27.7 L49.1166669,31.43 C49.1166669,32.51 48.6566669,33.07 47.6566669,33.07 C46.6666669,33.07 46.2066669,32.51 46.2066669,31.42 L46.2066669,27.7 L44.9666669,27.7 L44.9666669,31.55 C44.9666669,33.39 46.1466669,34.12 47.6566669,34.12 L47.6566669,34.12 Z M57.5700002,34 C57.3600002,33.77 57.3300002,33.45 57.2500002,32.52 C57.1800002,31.78 56.8100002,31.36 56.0900002,31.22 C56.8600002,31.12 57.4800002,30.57 57.4800002,29.62 C57.4800002,28.45 56.6900002,27.7 55.0800002,27.7 L52.2300002,27.7 L52.2300002,34 L53.4600002,34 L53.4600002,31.67 L54.9400002,31.67 C55.6600002,31.67 55.9800002,31.99 56.0300002,32.7 C56.0800002,33.4 56.1600002,33.83 56.2900002,34 L57.5700002,34 Z M53.4600002,30.69 L53.4600002,28.71 L54.9100002,28.71 C55.8200002,28.71 56.2400002,29.08 56.2400002,29.71 C56.2400002,30.39 55.8200002,30.69 54.9100002,30.69 L53.4600002,30.69 Z M13.8,43.0000041 L13.8,38.7000041 L14.85,38.7000041 C16.18,38.7000041 16.93,39.5000041 16.93,40.8400041 C16.93,42.2000041 16.18,43.0000041 14.85,43.0000041 L13.8,43.0000041 Z M12.55,44.0000041 L14.93,44.0000041 C16.96,44.0000041 18.22,42.8200041 18.22,40.8500041 C18.22,38.8800041 16.96,37.7000041 14.93,37.7000041 L12.55,37.7000041 L12.55,44.0000041 Z M21.6333334,37.7000041 L19.0833334,44.0000041 L20.3433334,44.0000041 L20.9533334,42.4400041 L23.6333334,42.4400041 L24.2633334,44.0000041 L25.5933334,44.0000041 L23.0233334,37.7000041 L21.6333334,37.7000041 Z M22.2633334,39.1200041 L22.3033334,39.1200041 L23.2533334,41.4800041 L21.3333334,41.4800041 L22.2633334,39.1200041 Z M29.3866667,44.0000041 L29.3866667,38.7400041 L31.6466667,38.7400041 L31.6466667,37.7000041 L25.9066667,37.7000041 L25.9066667,38.7400041 L28.1366667,38.7400041 L28.1366667,44.0000041 L29.3866667,44.0000041 Z M34.5100001,37.7000041 L31.9600001,44.0000041 L33.2200001,44.0000041 L33.8300001,42.4400041 L36.5100001,42.4400041 L37.1400001,44.0000041 L38.4700001,44.0000041 L35.9000001,37.7000041 L34.5100001,37.7000041 Z M35.1400001,39.1200041 L35.1800001,39.1200041 L36.1300001,41.4800041 L34.2100001,41.4800041 L35.1400001,39.1200041 Z M43.7866669,40.8100041 L43.7866669,38.7100041 L45.0166669,38.7100041 C45.9566669,38.7100041 46.3666669,39.0900041 46.3666669,39.7700041 C46.3666669,40.4500041 45.9566669,40.8100041 45.0166669,40.8100041 L43.7866669,40.8100041 Z M43.7866669,41.8300041 L45.0566669,41.8300041 C46.6666669,41.8300041 47.5866669,41.0700041 47.5866669,39.7600041 C47.5866669,38.4500041 46.6666669,37.7000041 45.0566669,37.7000041 L42.5466669,37.7000041 L42.5466669,44.0000041 L43.7866669,44.0000041 L43.7866669,41.8300041 Z M50.6200002,37.7000041 L48.0700002,44.0000041 L49.3300002,44.0000041 L49.9400002,42.4400041 L52.6200002,42.4400041 L53.2500002,44.0000041 L54.5800002,44.0000041 L52.0100002,37.7000041 L50.6200002,37.7000041 Z M51.2500002,39.1200041 L51.2900002,39.1200041 L52.2400002,41.4800041 L50.3200002,41.4800041 L51.2500002,39.1200041 Z M61.3633336,44.0000041 C61.1533336,43.7700041 61.1233336,43.4500041 61.0433336,42.5200041 C60.9733336,41.7800041 60.6033336,41.3600041 59.8833336,41.2200041 C60.6533336,41.1200041 61.2733336,40.5700041 61.2733336,39.6200041 C61.2733336,38.4500041 60.4833336,37.7000041 58.8733336,37.7000041 L56.0233336,37.7000041 L56.0233336,44.0000041 L57.2533336,44.0000041 L57.2533336,41.6700041 L58.7333336,41.6700041 C59.4533336,41.6700041 59.7733336,41.9900041 59.8233336,42.7000041 C59.8733336,43.4000041 59.9533336,43.8300041 60.0833336,44.0000041 L61.3633336,44.0000041 Z M57.2533336,40.6900041 L57.2533336,38.7100041 L58.7033336,38.7100041 C59.6133336,38.7100041 60.0333336,39.0800041 60.0333336,39.7100041 C60.0333336,40.3900041 59.6133336,40.6900041 58.7033336,40.6900041 L57.2533336,40.6900041 Z M66.026667,44.0000041 L66.026667,38.7400041 L68.286667,38.7400041 L68.286667,37.7000041 L62.546667,37.7000041 L62.546667,38.7400041 L64.776667,38.7400041 L64.776667,44.0000041 L66.026667,44.0000041 Z M71.1400004,37.7000041 L69.9000004,37.7000041 L69.9000004,44.0000041 L71.0600004,44.0000041 L71.0600004,39.5600041 L74.2800004,44.0000041 L75.2800004,44.0000041 L75.2800004,37.7000041 L74.1200004,37.7000041 L74.1200004,41.9000041 L71.1400004,37.7000041 Z M81.9233337,42.9600041 L78.4433337,42.9600041 L78.4433337,41.3000041 L81.1033337,41.3000041 L81.1033337,40.2700041 L78.4433337,40.2700041 L78.4433337,38.7400041 L81.8333337,38.7400041 L81.8333337,37.7000041 L77.2133337,37.7000041 L77.2133337,44.0000041 L81.9233337,44.0000041 L81.9233337,42.9600041 Z M88.9766671,44.0000041 C88.7666671,43.7700041 88.7366671,43.4500041 88.6566671,42.5200041 C88.5866671,41.7800041 88.2166671,41.3600041 87.4966671,41.2200041 C88.2666671,41.1200041 88.8866671,40.5700041 88.8866671,39.6200041 C88.8866671,38.4500041 88.0966671,37.7000041 86.4866671,37.7000041 L83.6366671,37.7000041 L83.6366671,44.0000041 L84.8666671,44.0000041 L84.8666671,41.6700041 L86.3466671,41.6700041 C87.0666671,41.6700041 87.3866671,41.9900041 87.4366671,42.7000041 C87.4866671,43.4000041 87.5666671,43.8300041 87.6966671,44.0000041 L88.9766671,44.0000041 Z M84.8666671,40.6900041 L84.8666671,38.7100041 L86.3166671,38.7100041 C87.2266671,38.7100041 87.6466671,39.0800041 87.6466671,39.7100041 C87.6466671,40.3900041 87.2266671,40.6900041 86.3166671,40.6900041 L84.8666671,40.6900041 Z" id="AND-OUR" fill="#949494" sketch:type="MSShapeGroup"></path>
        </g>
    </g>
</svg>