<?xml version="1.0" encoding="UTF-8" standalone="no"?>
<svg width="266px" height="93px" viewBox="0 0 266 93" version="1.1" xmlns="http://www.w3.org/2000/svg" xmlns:xlink="http://www.w3.org/1999/xlink">
    <!-- Generator: Sketch 3.6.1 (26313) - http://www.bohemiancoding.com/sketch -->
    <title>tile-bf-headline</title>
    <desc>Created with Sketch.</desc>
    <defs></defs>
    <g id="Page-1" stroke="none" stroke-width="1" fill="none" fill-rule="evenodd">
        <g id="tile-bf-headline">
            <path d="M46.682,26.828 L48.518,26 L48.41,24.848 L40.418,24.848 L39.986,26 L42.146,26.828 L41.318,32.3 C40.418,33.128 39.194,33.596 38.15,33.596 C35.306,33.596 34.01,31.58 34.01,27.764 C34.01,21.752 36.494,15.272 40.598,15.272 C42.506,15.272 43.622,16.352 44.81,18.368 L45.674,19.808 L46.466,19.628 L47.438,13.508 L45.026,14.408 C43.982,13.868 42.614,13.508 40.67,13.508 C34.514,13.508 28.97,18.152 28.97,26.54 C28.97,31.94 31.922,35.36 37.646,35.36 C39.986,35.36 41.75,34.568 43.046,33.308 L44.342,35.252 L45.35,35.252 L46.682,26.828 Z M64.25,23.228 C64.25,20.42 62.306,18.944 59.138,18.944 C53.63,18.944 50.138,23.228 50.138,28.556 C50.138,32.948 52.838,35.36 56.762,35.36 C59.93,35.36 62.306,34.352 63.674,31.22 L62.846,30.572 C61.334,32.012 60.254,32.66 58.418,32.66 C55.97,32.66 54.926,30.86 54.926,28.232 C60.614,28.232 64.25,27.116 64.25,23.228 L64.25,23.228 Z M58.886,20.708 C59.966,20.708 60.434,21.464 60.434,22.58 C60.434,25.388 58.634,26.648 55.034,26.72 C55.466,23.156 56.978,20.708 58.886,20.708 L58.886,20.708 Z M66.59,21.14 L68.966,21.14 L67.31,29.24 C67.094,30.32 67.058,31.04 67.058,31.796 C67.058,34.208 68.642,35.36 71.162,35.36 C73.502,35.36 75.446,34.496 76.742,32.84 L76.238,31.94 C75.338,32.48 74.402,32.732 73.574,32.732 C72.386,32.732 71.738,32.264 71.738,30.968 C71.738,30.356 71.846,29.708 71.954,29.168 L73.394,21.14 L77.678,21.14 L78.182,19.304 L73.682,19.304 L74.438,15.092 L72.818,15.092 L66.77,20.024 L66.59,21.14 Z M97.55,21.176 L95.894,30.86 C95.75,31.76 95.714,32.264 95.714,32.624 C95.75,34.352 96.866,35.36 98.918,35.36 C101.33,35.36 102.842,34.1 103.562,32.372 L102.842,31.688 C102.158,32.444 101.042,32.732 100.358,32.372 L101.834,23.588 C101.942,22.904 102.014,22.292 102.014,21.932 C102.014,20.168 100.97,19.304 98.774,19.304 L92.87,19.304 L93.23,17.18 C93.914,13.22 95.462,11.708 97.514,11.708 C97.766,11.708 98.09,11.744 98.45,11.852 C97.946,12.248 97.478,12.86 97.478,13.796 C97.478,15.02 98.45,15.92 99.818,15.92 C101.15,15.92 102.158,14.876 102.158,13.4 C102.158,11.132 99.926,10.304 97.334,10.304 C93.014,10.304 89.486,12.284 88.55,17.396 L88.226,19.16 L85.562,19.736 L85.274,21.14 L87.866,21.14 L85.094,38.096 C84.662,40.76 83.474,41.624 82.214,41.624 C82.574,41.3 82.826,40.796 82.826,40.04 C82.826,38.816 82.142,37.916 80.774,37.916 C79.514,37.916 78.434,38.708 78.434,40.328 C78.434,41.804 79.658,42.92 81.89,42.92 C86.822,42.92 89.45,40.076 90.206,35.684 L92.582,21.176 L97.55,21.176 Z M109.682,31.94 C108.962,31.94 108.458,31.796 108.458,31.04 C108.458,30.176 109.25,29.564 110.33,29.276 C110.978,29.456 111.698,29.6 112.454,29.6 C115.766,29.6 119.654,28.016 119.654,24.38 C119.654,22.868 118.862,21.824 117.818,21.248 L117.818,20.888 C118.79,21.284 119.87,21.536 120.842,21.536 C122.102,21.536 123.074,20.744 123.074,19.448 C123.074,18.296 122.354,17.432 121.13,17.432 C119.978,17.432 119.186,18.224 119.186,19.34 C119.186,19.664 119.258,20.024 119.474,20.276 C117.926,19.592 115.658,18.944 113.822,18.944 C109.322,18.944 106.406,21.428 106.406,24.92 C106.406,26.972 107.342,28.304 108.998,28.916 C106.802,29.132 104.966,30.284 104.966,32.516 C104.966,34.136 105.902,35.36 107.594,35.612 L107.594,35.756 C104.966,35.972 103.166,37.16 103.166,39.176 C103.166,41.912 106.01,42.956 110.546,42.956 C115.55,42.956 120.05,41.228 120.05,36.584 C120.05,33.596 118.178,31.94 114.398,31.94 L109.682,31.94 Z M109.034,36.08 L113.534,36.08 C115.406,36.08 116.126,36.764 116.126,38.168 C116.126,40.688 113.354,41.444 110.618,41.444 C108.35,41.444 107.054,40.436 107.054,38.924 C107.054,37.484 107.738,36.692 109.034,36.08 L109.034,36.08 Z M115.37,22.724 C115.37,25.712 114.29,28.088 112.526,28.088 C111.266,28.088 110.69,27.332 110.69,25.82 C110.69,22.832 111.77,20.456 113.534,20.456 C114.83,20.456 115.37,21.212 115.37,22.724 L115.37,22.724 Z M139.49,19.304 L134.666,19.628 L132.83,30.68 C131.822,31.688 130.778,32.336 129.662,32.336 C128.618,32.336 128.294,31.616 128.51,30.32 L129.77,22.904 C130.202,20.456 129.23,18.944 126.566,18.944 C124.154,18.944 122.642,20.384 122.138,21.896 L122.786,22.544 C123.434,21.86 124.334,21.428 125.27,21.716 L123.794,30.428 C123.182,34.136 125.342,35.36 127.43,35.36 C129.05,35.36 131.066,34.64 132.65,32.156 L132.794,32.156 C132.65,34.244 133.55,35.36 135.71,35.36 C138.194,35.36 139.706,34.1 140.426,32.372 L139.706,31.688 C139.022,32.444 137.942,32.732 137.258,32.372 L139.49,19.304 Z M149.57,22.544 C149.786,20.6 149.174,18.944 146.546,18.944 C144.386,18.944 142.694,20.168 142.118,21.932 L142.766,22.58 C143.45,21.824 144.278,21.464 145.214,21.716 L142.946,35 L147.698,35 L149.102,26.648 C150.182,24.416 151.334,22.868 152.414,22.112 C152.414,23.48 153.206,24.452 154.718,24.452 C156.266,24.452 157.382,23.372 157.382,21.716 C157.382,19.988 156.194,18.944 154.574,18.944 C152.45,18.944 150.938,20.276 149.606,23.732 L149.462,23.732 L149.57,22.544 Z M172.466,23.228 C172.466,20.42 170.522,18.944 167.354,18.944 C161.846,18.944 158.354,23.228 158.354,28.556 C158.354,32.948 161.054,35.36 164.978,35.36 C168.146,35.36 170.522,34.352 171.89,31.22 L171.062,30.572 C169.55,32.012 168.47,32.66 166.634,32.66 C164.186,32.66 163.142,30.86 163.142,28.232 C168.83,28.232 172.466,27.116 172.466,23.228 L172.466,23.228 Z M167.102,20.708 C168.182,20.708 168.65,21.464 168.65,22.58 C168.65,25.388 166.85,26.648 163.25,26.72 C163.682,23.156 165.194,20.708 167.102,20.708 L167.102,20.708 Z M177.326,33.056 C177.794,32.84 178.298,32.264 178.298,31.472 C178.298,30.284 177.542,29.492 176.246,29.492 C175.022,29.492 174.086,30.356 174.086,31.76 C174.086,33.848 176.102,35.36 179.594,35.36 C183.77,35.36 186.614,33.848 186.614,30.248 C186.614,27.8 185.282,26.54 182.222,25.1 C180.242,24.164 179.666,23.588 179.666,22.544 C179.666,21.212 180.818,20.6 182.33,20.6 C183.05,20.6 183.734,20.78 184.274,21.14 C183.698,21.392 183.41,22.04 183.41,22.652 C183.41,23.66 184.202,24.416 185.39,24.416 C186.506,24.416 187.442,23.696 187.442,22.364 C187.442,20.132 185.138,18.944 182.258,18.944 C178.73,18.944 175.706,20.312 175.706,24.092 C175.706,26.54 177.326,27.8 179.666,28.844 C181.862,29.852 182.51,30.5 182.51,31.796 C182.51,33.344 181.286,33.812 179.666,33.812 C178.586,33.812 177.686,33.488 177.326,33.056 L177.326,33.056 Z M195.938,38.096 C195.506,40.76 194.318,41.624 193.058,41.624 C193.418,41.3 193.67,40.796 193.67,40.04 C193.67,38.816 192.986,37.916 191.618,37.916 C190.358,37.916 189.278,38.708 189.278,40.328 C189.278,41.804 190.502,42.92 192.734,42.92 C197.666,42.92 200.294,40.076 201.05,35.684 L203.426,21.14 L207.53,21.14 L208.106,19.304 L203.714,19.304 L204.182,16.532 C204.686,13.508 205.73,11.708 207.602,11.708 C207.818,11.708 208.178,11.744 208.502,11.852 C207.998,12.248 207.566,12.86 207.566,13.796 C207.566,15.02 208.538,15.92 209.906,15.92 C211.238,15.92 212.21,14.876 212.21,13.4 C212.21,11.132 210.014,10.304 207.71,10.304 C203.498,10.304 200.402,12.464 199.43,17.108 L199.07,19.16 L196.406,19.736 L196.118,21.14 L198.71,21.14 L195.938,38.096 Z M214.73,35.36 C220.778,35.36 223.622,31.004 223.622,25.856 C223.622,21.68 221.102,18.944 216.602,18.944 C210.59,18.944 207.746,23.3 207.746,28.448 C207.746,32.624 210.266,35.36 214.73,35.36 L214.73,35.36 Z M214.766,33.704 C213.11,33.704 212.57,32.192 212.57,29.852 C212.57,29.204 212.642,28.484 212.678,28.088 C213.074,24.38 214.046,20.6 216.602,20.6 C218.258,20.6 218.87,22.148 218.762,25.1 L218.69,26.216 C218.294,29.924 217.286,33.704 214.766,33.704 L214.766,33.704 Z M233.126,22.544 C233.342,20.6 232.73,18.944 230.102,18.944 C227.942,18.944 226.25,20.168 225.674,21.932 L226.322,22.58 C227.006,21.824 227.834,21.464 228.77,21.716 L226.502,35 L231.254,35 L232.658,26.648 C233.738,24.416 234.89,22.868 235.97,22.112 C235.97,23.48 236.762,24.452 238.274,24.452 C239.822,24.452 240.938,23.372 240.938,21.716 C240.938,19.988 239.75,18.944 238.13,18.944 C236.006,18.944 234.494,20.276 233.162,23.732 L233.018,23.732 L233.126,22.544 Z M12.71,73.012 C12.926,72.76 13.07,72.292 13.07,71.824 C13.07,70.528 12.278,69.556 10.91,69.556 C9.434,69.556 8.498,70.6 8.498,72.112 C8.498,73.696 9.686,74.776 11.702,74.776 C18.938,74.776 28.766,61.96 28.766,54.256 C28.766,52.096 27.65,50.944 25.814,50.944 C24.23,50.944 23.114,51.952 23.114,53.428 C23.114,54.724 23.87,55.84 25.526,55.84 C25.922,55.84 26.246,55.768 26.462,55.624 C25.886,59.224 23.87,63.148 21.494,66.316 L19.802,54.4 C19.478,52.312 18.758,50.944 16.274,50.944 C13.97,50.944 12.098,52.42 11.558,54.04 L12.242,54.652 C12.926,53.932 13.826,53.464 14.762,53.716 L17.678,69.88 C16.346,71.356 14.294,72.724 12.71,73.012 L12.71,73.012 Z M37.694,67.36 C43.742,67.36 46.586,63.004 46.586,57.856 C46.586,53.68 44.066,50.944 39.566,50.944 C33.554,50.944 30.71,55.3 30.71,60.448 C30.71,64.624 33.23,67.36 37.694,67.36 L37.694,67.36 Z M37.73,65.704 C36.074,65.704 35.534,64.192 35.534,61.852 C35.534,61.204 35.606,60.484 35.642,60.088 C36.038,56.38 37.01,52.6 39.566,52.6 C41.222,52.6 41.834,54.148 41.726,57.1 L41.654,58.216 C41.258,61.924 40.25,65.704 37.73,65.704 L37.73,65.704 Z M65.558,51.304 L60.734,51.628 L58.898,62.68 C57.89,63.688 56.846,64.336 55.73,64.336 C54.686,64.336 54.362,63.616 54.578,62.32 L55.838,54.904 C56.27,52.456 55.298,50.944 52.634,50.944 C50.222,50.944 48.71,52.384 48.206,53.896 L48.854,54.544 C49.502,53.86 50.402,53.428 51.338,53.716 L49.862,62.428 C49.25,66.136 51.41,67.36 53.498,67.36 C55.118,67.36 57.134,66.64 58.718,64.156 L58.862,64.156 C58.718,66.244 59.618,67.36 61.778,67.36 C64.262,67.36 65.774,66.1 66.494,64.372 L65.774,63.688 C65.09,64.444 64.01,64.732 63.326,64.372 L65.558,51.304 Z M75.638,54.544 C75.854,52.6 75.242,50.944 72.614,50.944 C70.454,50.944 68.762,52.168 68.186,53.932 L68.834,54.58 C69.518,53.824 70.346,53.464 71.282,53.716 L69.014,67 L73.766,67 L75.17,58.648 C76.25,56.416 77.402,54.868 78.482,54.112 C78.482,55.48 79.274,56.452 80.786,56.452 C82.334,56.452 83.45,55.372 83.45,53.716 C83.45,51.988 82.262,50.944 80.642,50.944 C78.518,50.944 77.006,52.276 75.674,55.732 L75.53,55.732 L75.638,54.544 Z M97.238,55.48 C98.102,54.508 99.038,53.896 100.118,53.896 C101.63,53.896 102.53,55.192 102.53,57.46 C102.53,61.852 100.694,65.524 97.742,65.524 C96.95,65.524 96.338,65.452 95.618,65.02 L97.238,55.48 Z M97.454,53.752 L99.434,42.484 L98.642,42.484 L92.702,43.492 L92.594,44.068 L94.214,45.724 L90.902,65.704 C92.558,66.748 95.114,67.36 97.562,67.36 C103.502,67.36 107.498,63.184 107.498,56.92 C107.498,53.068 105.302,50.944 102.278,50.944 C100.37,50.944 98.75,51.736 97.598,53.752 L97.454,53.752 Z M126.47,51.304 L121.646,51.628 L119.81,62.68 C118.802,63.688 117.758,64.336 116.642,64.336 C115.598,64.336 115.274,63.616 115.49,62.32 L116.75,54.904 C117.182,52.456 116.21,50.944 113.546,50.944 C111.134,50.944 109.622,52.384 109.118,53.896 L109.766,54.544 C110.414,53.86 111.314,53.428 112.25,53.716 L110.774,62.428 C110.162,66.136 112.322,67.36 114.41,67.36 C116.03,67.36 118.046,66.64 119.63,64.156 L119.774,64.156 C119.63,66.244 120.53,67.36 122.69,67.36 C125.174,67.36 126.686,66.1 127.406,64.372 L126.686,63.688 C126.002,64.444 124.922,64.732 124.238,64.372 L126.47,51.304 Z M132.158,65.056 C132.626,64.84 133.13,64.264 133.13,63.472 C133.13,62.284 132.374,61.492 131.078,61.492 C129.854,61.492 128.918,62.356 128.918,63.76 C128.918,65.848 130.934,67.36 134.426,67.36 C138.602,67.36 141.446,65.848 141.446,62.248 C141.446,59.8 140.114,58.54 137.054,57.1 C135.074,56.164 134.498,55.588 134.498,54.544 C134.498,53.212 135.65,52.6 137.162,52.6 C137.882,52.6 138.566,52.78 139.106,53.14 C138.53,53.392 138.242,54.04 138.242,54.652 C138.242,55.66 139.034,56.416 140.222,56.416 C141.338,56.416 142.274,55.696 142.274,54.364 C142.274,52.132 139.97,50.944 137.09,50.944 C133.562,50.944 130.538,52.312 130.538,56.092 C130.538,58.54 132.158,59.8 134.498,60.844 C136.694,61.852 137.342,62.5 137.342,63.796 C137.342,65.344 136.118,65.812 134.498,65.812 C133.418,65.812 132.518,65.488 132.158,65.056 L132.158,65.056 Z M151.13,55.372 C151.238,54.724 151.31,54.112 151.31,53.716 C151.31,51.988 150.23,50.944 148.034,50.944 C145.622,50.944 144.11,52.384 143.606,53.896 L144.254,54.544 C144.902,53.86 145.802,53.428 146.702,53.716 L145.154,62.86 C144.974,63.76 144.974,64.264 144.974,64.624 C145.01,66.352 146.09,67.36 148.178,67.36 C150.59,67.36 152.102,66.1 152.822,64.372 L152.102,63.688 C151.418,64.444 150.266,64.732 149.618,64.372 L151.13,55.372 Z M146.954,46.12 C146.954,47.704 148.178,48.892 149.726,48.892 C151.31,48.892 152.498,47.704 152.498,46.12 C152.498,44.536 151.31,43.348 149.726,43.348 C148.178,43.348 146.954,44.536 146.954,46.12 L146.954,46.12 Z M165.242,62.86 C165.098,63.76 165.062,64.264 165.062,64.624 C165.098,66.352 166.214,67.36 168.266,67.36 C170.678,67.36 172.19,66.1 172.91,64.372 L172.19,63.688 C171.506,64.444 170.39,64.732 169.706,64.372 L171.11,56.272 C171.182,55.804 171.218,55.372 171.218,54.904 C171.218,52.276 169.562,50.944 167.258,50.944 C165.206,50.944 163.334,52.132 162.074,54.256 L161.93,54.256 C162.074,52.276 161.246,50.944 158.834,50.944 C156.674,50.944 154.982,52.168 154.406,53.932 L155.054,54.58 C155.738,53.824 156.566,53.464 157.502,53.716 L155.234,67 L159.986,67 L161.858,55.948 C162.722,55.084 163.694,54.364 164.81,54.364 C165.998,54.364 166.574,55.12 166.322,56.776 L165.242,62.86 Z M189.002,55.228 C189.002,52.42 187.058,50.944 183.89,50.944 C178.382,50.944 174.89,55.228 174.89,60.556 C174.89,64.948 177.59,67.36 181.514,67.36 C184.682,67.36 187.058,66.352 188.426,63.22 L187.598,62.572 C186.086,64.012 185.006,64.66 183.17,64.66 C180.722,64.66 179.678,62.86 179.678,60.232 C185.366,60.232 189.002,59.116 189.002,55.228 L189.002,55.228 Z M183.638,52.708 C184.718,52.708 185.186,53.464 185.186,54.58 C185.186,57.388 183.386,58.648 179.786,58.72 C180.218,55.156 181.73,52.708 183.638,52.708 L183.638,52.708 Z M193.862,65.056 C194.33,64.84 194.834,64.264 194.834,63.472 C194.834,62.284 194.078,61.492 192.782,61.492 C191.558,61.492 190.622,62.356 190.622,63.76 C190.622,65.848 192.638,67.36 196.13,67.36 C200.306,67.36 203.15,65.848 203.15,62.248 C203.15,59.8 201.818,58.54 198.758,57.1 C196.778,56.164 196.202,55.588 196.202,54.544 C196.202,53.212 197.354,52.6 198.866,52.6 C199.586,52.6 200.27,52.78 200.81,53.14 C200.234,53.392 199.946,54.04 199.946,54.652 C199.946,55.66 200.738,56.416 201.926,56.416 C203.042,56.416 203.978,55.696 203.978,54.364 C203.978,52.132 201.674,50.944 198.794,50.944 C195.266,50.944 192.242,52.312 192.242,56.092 C192.242,58.54 193.862,59.8 196.202,60.844 C198.398,61.852 199.046,62.5 199.046,63.796 C199.046,65.344 197.822,65.812 196.202,65.812 C195.122,65.812 194.222,65.488 193.862,65.056 L193.862,65.056 Z M208.622,65.056 C209.09,64.84 209.594,64.264 209.594,63.472 C209.594,62.284 208.838,61.492 207.542,61.492 C206.318,61.492 205.382,62.356 205.382,63.76 C205.382,65.848 207.398,67.36 210.89,67.36 C215.066,67.36 217.91,65.848 217.91,62.248 C217.91,59.8 216.578,58.54 213.518,57.1 C211.538,56.164 210.962,55.588 210.962,54.544 C210.962,53.212 212.114,52.6 213.626,52.6 C214.346,52.6 215.03,52.78 215.57,53.14 C214.994,53.392 214.706,54.04 214.706,54.652 C214.706,55.66 215.498,56.416 216.686,56.416 C217.802,56.416 218.738,55.696 218.738,54.364 C218.738,52.132 216.434,50.944 213.554,50.944 C210.026,50.944 207.002,52.312 207.002,56.092 C207.002,58.54 208.622,59.8 210.962,60.844 C213.158,61.852 213.806,62.5 213.806,63.796 C213.806,65.344 212.582,65.812 210.962,65.812 C209.882,65.812 208.982,65.488 208.622,65.056 L208.622,65.056 Z M230.367719,63.7857105 C230.367719,64.3716487 229.882228,64.8571403 229.29629,64.8571403 C228.710351,64.8571403 228.22486,64.3716487 228.22486,63.7857105 C228.22486,63.1997723 228.710351,62.7142806 229.29629,62.7142806 C229.882228,62.7142806 230.367719,63.1997723 230.367719,63.7857105 L230.367719,63.7857105 Z M253.939176,54.1428418 C253.939176,55.2979771 252.951452,56.2857015 251.796316,56.2857015 L246.255015,56.2857015 C246.606578,56.6874877 246.840953,57.474319 246.840953,58.0100339 C246.840953,58.7968652 246.522873,59.4665089 245.953675,60.0022238 C246.154569,60.3537867 246.255015,60.7555729 246.255015,61.1573591 C246.255015,61.9274493 245.86997,62.8816915 245.166844,63.2667366 C245.217067,63.5680763 245.25055,63.886157 245.25055,64.2042377 C245.25055,66.2131687 243.961486,67 242.086483,67 C238.838712,67 235.975985,64.8571403 233.046294,64.8571403 L232.510579,64.8571403 L232.510579,54.1428418 L233.046294,54.1428418 C234.82085,54.1428418 236.009467,52.6361436 237.080897,51.4140439 C237.767282,50.6439537 238.403443,49.8738635 238.955899,48.9865857 C239.173533,48.6350228 239.374427,48.2667187 239.57532,47.8984147 C239.759472,47.5133696 240.613267,45.571403 241.082018,45.571403 C242.505011,45.571403 243.760593,46.107118 243.760593,47.7142627 C243.760593,49.8571224 242.153448,50.9452934 242.153448,51.9999821 L251.796316,51.9999821 C252.917969,51.9999821 253.939176,53.0044476 253.939176,54.1428418 L253.939176,54.1428418 Z M256.082036,54.1261007 C256.082036,51.8158301 254.106587,49.8571224 251.796316,49.8571224 L245.535148,49.8571224 C245.786265,49.1707377 245.903452,48.4508707 245.903452,47.7142627 C245.903452,44.8850183 243.743851,43.4285433 241.082018,43.4285433 C238.838712,43.4285433 238.118845,46.29127 237.147861,47.8481915 C236.645629,48.6350228 236.076432,49.3214075 235.473752,50.0077922 C234.988261,50.5602483 233.849866,51.9999821 233.046294,51.9999821 L228.22486,51.9999821 C227.036242,51.9999821 226.082,52.9542243 226.082,54.1428418 L226.082,64.8571403 C226.082,66.0457578 227.036242,67 228.22486,67 L233.046294,67 C234.100983,67 235.758351,67.6194204 236.779557,67.9877244 C238.520631,68.6238859 240.295187,69.1428597 242.170189,69.1428597 C245.267291,69.1428597 247.426892,67.2845986 247.393409,64.1205323 C248.046312,63.2834777 248.397875,62.2120479 248.397875,61.140618 C248.397875,60.9062427 248.381134,60.6551264 248.347652,60.4207511 C248.699214,59.8013307 248.916849,59.131687 248.967072,58.4285612 L251.796316,58.4285612 C254.140069,58.4285612 256.082036,56.4698535 256.082036,54.1261007 L256.082036,54.1261007 Z" id="Get-figures-for-your-Copy" fill="#19202C"></path>
            <path d="M45.682,27.828 L47.518,27 L47.41,25.848 L39.418,25.848 L38.986,27 L41.146,27.828 L40.318,33.3 C39.418,34.128 38.194,34.596 37.15,34.596 C34.306,34.596 33.01,32.58 33.01,28.764 C33.01,22.752 35.494,16.272 39.598,16.272 C41.506,16.272 42.622,17.352 43.81,19.368 L44.674,20.808 L45.466,20.628 L46.438,14.508 L44.026,15.408 C42.982,14.868 41.614,14.508 39.67,14.508 C33.514,14.508 27.97,19.152 27.97,27.54 C27.97,32.94 30.922,36.36 36.646,36.36 C38.986,36.36 40.75,35.568 42.046,34.308 L43.342,36.252 L44.35,36.252 L45.682,27.828 Z M63.25,24.228 C63.25,21.42 61.306,19.944 58.138,19.944 C52.63,19.944 49.138,24.228 49.138,29.556 C49.138,33.948 51.838,36.36 55.762,36.36 C58.93,36.36 61.306,35.352 62.674,32.22 L61.846,31.572 C60.334,33.012 59.254,33.66 57.418,33.66 C54.97,33.66 53.926,31.86 53.926,29.232 C59.614,29.232 63.25,28.116 63.25,24.228 L63.25,24.228 Z M57.886,21.708 C58.966,21.708 59.434,22.464 59.434,23.58 C59.434,26.388 57.634,27.648 54.034,27.72 C54.466,24.156 55.978,21.708 57.886,21.708 L57.886,21.708 Z M65.59,22.14 L67.966,22.14 L66.31,30.24 C66.094,31.32 66.058,32.04 66.058,32.796 C66.058,35.208 67.642,36.36 70.162,36.36 C72.502,36.36 74.446,35.496 75.742,33.84 L75.238,32.94 C74.338,33.48 73.402,33.732 72.574,33.732 C71.386,33.732 70.738,33.264 70.738,31.968 C70.738,31.356 70.846,30.708 70.954,30.168 L72.394,22.14 L76.678,22.14 L77.182,20.304 L72.682,20.304 L73.438,16.092 L71.818,16.092 L65.77,21.024 L65.59,22.14 Z M96.55,22.176 L94.894,31.86 C94.75,32.76 94.714,33.264 94.714,33.624 C94.75,35.352 95.866,36.36 97.918,36.36 C100.33,36.36 101.842,35.1 102.562,33.372 L101.842,32.688 C101.158,33.444 100.042,33.732 99.358,33.372 L100.834,24.588 C100.942,23.904 101.014,23.292 101.014,22.932 C101.014,21.168 99.97,20.304 97.774,20.304 L91.87,20.304 L92.23,18.18 C92.914,14.22 94.462,12.708 96.514,12.708 C96.766,12.708 97.09,12.744 97.45,12.852 C96.946,13.248 96.478,13.86 96.478,14.796 C96.478,16.02 97.45,16.92 98.818,16.92 C100.15,16.92 101.158,15.876 101.158,14.4 C101.158,12.132 98.926,11.304 96.334,11.304 C92.014,11.304 88.486,13.284 87.55,18.396 L87.226,20.16 L84.562,20.736 L84.274,22.14 L86.866,22.14 L84.094,39.096 C83.662,41.76 82.474,42.624 81.214,42.624 C81.574,42.3 81.826,41.796 81.826,41.04 C81.826,39.816 81.142,38.916 79.774,38.916 C78.514,38.916 77.434,39.708 77.434,41.328 C77.434,42.804 78.658,43.92 80.89,43.92 C85.822,43.92 88.45,41.076 89.206,36.684 L91.582,22.176 L96.55,22.176 Z M108.682,32.94 C107.962,32.94 107.458,32.796 107.458,32.04 C107.458,31.176 108.25,30.564 109.33,30.276 C109.978,30.456 110.698,30.6 111.454,30.6 C114.766,30.6 118.654,29.016 118.654,25.38 C118.654,23.868 117.862,22.824 116.818,22.248 L116.818,21.888 C117.79,22.284 118.87,22.536 119.842,22.536 C121.102,22.536 122.074,21.744 122.074,20.448 C122.074,19.296 121.354,18.432 120.13,18.432 C118.978,18.432 118.186,19.224 118.186,20.34 C118.186,20.664 118.258,21.024 118.474,21.276 C116.926,20.592 114.658,19.944 112.822,19.944 C108.322,19.944 105.406,22.428 105.406,25.92 C105.406,27.972 106.342,29.304 107.998,29.916 C105.802,30.132 103.966,31.284 103.966,33.516 C103.966,35.136 104.902,36.36 106.594,36.612 L106.594,36.756 C103.966,36.972 102.166,38.16 102.166,40.176 C102.166,42.912 105.01,43.956 109.546,43.956 C114.55,43.956 119.05,42.228 119.05,37.584 C119.05,34.596 117.178,32.94 113.398,32.94 L108.682,32.94 Z M108.034,37.08 L112.534,37.08 C114.406,37.08 115.126,37.764 115.126,39.168 C115.126,41.688 112.354,42.444 109.618,42.444 C107.35,42.444 106.054,41.436 106.054,39.924 C106.054,38.484 106.738,37.692 108.034,37.08 L108.034,37.08 Z M114.37,23.724 C114.37,26.712 113.29,29.088 111.526,29.088 C110.266,29.088 109.69,28.332 109.69,26.82 C109.69,23.832 110.77,21.456 112.534,21.456 C113.83,21.456 114.37,22.212 114.37,23.724 L114.37,23.724 Z M138.49,20.304 L133.666,20.628 L131.83,31.68 C130.822,32.688 129.778,33.336 128.662,33.336 C127.618,33.336 127.294,32.616 127.51,31.32 L128.77,23.904 C129.202,21.456 128.23,19.944 125.566,19.944 C123.154,19.944 121.642,21.384 121.138,22.896 L121.786,23.544 C122.434,22.86 123.334,22.428 124.27,22.716 L122.794,31.428 C122.182,35.136 124.342,36.36 126.43,36.36 C128.05,36.36 130.066,35.64 131.65,33.156 L131.794,33.156 C131.65,35.244 132.55,36.36 134.71,36.36 C137.194,36.36 138.706,35.1 139.426,33.372 L138.706,32.688 C138.022,33.444 136.942,33.732 136.258,33.372 L138.49,20.304 Z M148.57,23.544 C148.786,21.6 148.174,19.944 145.546,19.944 C143.386,19.944 141.694,21.168 141.118,22.932 L141.766,23.58 C142.45,22.824 143.278,22.464 144.214,22.716 L141.946,36 L146.698,36 L148.102,27.648 C149.182,25.416 150.334,23.868 151.414,23.112 C151.414,24.48 152.206,25.452 153.718,25.452 C155.266,25.452 156.382,24.372 156.382,22.716 C156.382,20.988 155.194,19.944 153.574,19.944 C151.45,19.944 149.938,21.276 148.606,24.732 L148.462,24.732 L148.57,23.544 Z M171.466,24.228 C171.466,21.42 169.522,19.944 166.354,19.944 C160.846,19.944 157.354,24.228 157.354,29.556 C157.354,33.948 160.054,36.36 163.978,36.36 C167.146,36.36 169.522,35.352 170.89,32.22 L170.062,31.572 C168.55,33.012 167.47,33.66 165.634,33.66 C163.186,33.66 162.142,31.86 162.142,29.232 C167.83,29.232 171.466,28.116 171.466,24.228 L171.466,24.228 Z M166.102,21.708 C167.182,21.708 167.65,22.464 167.65,23.58 C167.65,26.388 165.85,27.648 162.25,27.72 C162.682,24.156 164.194,21.708 166.102,21.708 L166.102,21.708 Z M176.326,34.056 C176.794,33.84 177.298,33.264 177.298,32.472 C177.298,31.284 176.542,30.492 175.246,30.492 C174.022,30.492 173.086,31.356 173.086,32.76 C173.086,34.848 175.102,36.36 178.594,36.36 C182.77,36.36 185.614,34.848 185.614,31.248 C185.614,28.8 184.282,27.54 181.222,26.1 C179.242,25.164 178.666,24.588 178.666,23.544 C178.666,22.212 179.818,21.6 181.33,21.6 C182.05,21.6 182.734,21.78 183.274,22.14 C182.698,22.392 182.41,23.04 182.41,23.652 C182.41,24.66 183.202,25.416 184.39,25.416 C185.506,25.416 186.442,24.696 186.442,23.364 C186.442,21.132 184.138,19.944 181.258,19.944 C177.73,19.944 174.706,21.312 174.706,25.092 C174.706,27.54 176.326,28.8 178.666,29.844 C180.862,30.852 181.51,31.5 181.51,32.796 C181.51,34.344 180.286,34.812 178.666,34.812 C177.586,34.812 176.686,34.488 176.326,34.056 L176.326,34.056 Z M194.938,39.096 C194.506,41.76 193.318,42.624 192.058,42.624 C192.418,42.3 192.67,41.796 192.67,41.04 C192.67,39.816 191.986,38.916 190.618,38.916 C189.358,38.916 188.278,39.708 188.278,41.328 C188.278,42.804 189.502,43.92 191.734,43.92 C196.666,43.92 199.294,41.076 200.05,36.684 L202.426,22.14 L206.53,22.14 L207.106,20.304 L202.714,20.304 L203.182,17.532 C203.686,14.508 204.73,12.708 206.602,12.708 C206.818,12.708 207.178,12.744 207.502,12.852 C206.998,13.248 206.566,13.86 206.566,14.796 C206.566,16.02 207.538,16.92 208.906,16.92 C210.238,16.92 211.21,15.876 211.21,14.4 C211.21,12.132 209.014,11.304 206.71,11.304 C202.498,11.304 199.402,13.464 198.43,18.108 L198.07,20.16 L195.406,20.736 L195.118,22.14 L197.71,22.14 L194.938,39.096 Z M213.73,36.36 C219.778,36.36 222.622,32.004 222.622,26.856 C222.622,22.68 220.102,19.944 215.602,19.944 C209.59,19.944 206.746,24.3 206.746,29.448 C206.746,33.624 209.266,36.36 213.73,36.36 L213.73,36.36 Z M213.766,34.704 C212.11,34.704 211.57,33.192 211.57,30.852 C211.57,30.204 211.642,29.484 211.678,29.088 C212.074,25.38 213.046,21.6 215.602,21.6 C217.258,21.6 217.87,23.148 217.762,26.1 L217.69,27.216 C217.294,30.924 216.286,34.704 213.766,34.704 L213.766,34.704 Z M232.126,23.544 C232.342,21.6 231.73,19.944 229.102,19.944 C226.942,19.944 225.25,21.168 224.674,22.932 L225.322,23.58 C226.006,22.824 226.834,22.464 227.77,22.716 L225.502,36 L230.254,36 L231.658,27.648 C232.738,25.416 233.89,23.868 234.97,23.112 C234.97,24.48 235.762,25.452 237.274,25.452 C238.822,25.452 239.938,24.372 239.938,22.716 C239.938,20.988 238.75,19.944 237.13,19.944 C235.006,19.944 233.494,21.276 232.162,24.732 L232.018,24.732 L232.126,23.544 Z M11.71,74.012 C11.926,73.76 12.07,73.292 12.07,72.824 C12.07,71.528 11.278,70.556 9.91,70.556 C8.434,70.556 7.498,71.6 7.498,73.112 C7.498,74.696 8.686,75.776 10.702,75.776 C17.938,75.776 27.766,62.96 27.766,55.256 C27.766,53.096 26.65,51.944 24.814,51.944 C23.23,51.944 22.114,52.952 22.114,54.428 C22.114,55.724 22.87,56.84 24.526,56.84 C24.922,56.84 25.246,56.768 25.462,56.624 C24.886,60.224 22.87,64.148 20.494,67.316 L18.802,55.4 C18.478,53.312 17.758,51.944 15.274,51.944 C12.97,51.944 11.098,53.42 10.558,55.04 L11.242,55.652 C11.926,54.932 12.826,54.464 13.762,54.716 L16.678,70.88 C15.346,72.356 13.294,73.724 11.71,74.012 L11.71,74.012 Z M36.694,68.36 C42.742,68.36 45.586,64.004 45.586,58.856 C45.586,54.68 43.066,51.944 38.566,51.944 C32.554,51.944 29.71,56.3 29.71,61.448 C29.71,65.624 32.23,68.36 36.694,68.36 L36.694,68.36 Z M36.73,66.704 C35.074,66.704 34.534,65.192 34.534,62.852 C34.534,62.204 34.606,61.484 34.642,61.088 C35.038,57.38 36.01,53.6 38.566,53.6 C40.222,53.6 40.834,55.148 40.726,58.1 L40.654,59.216 C40.258,62.924 39.25,66.704 36.73,66.704 L36.73,66.704 Z M64.558,52.304 L59.734,52.628 L57.898,63.68 C56.89,64.688 55.846,65.336 54.73,65.336 C53.686,65.336 53.362,64.616 53.578,63.32 L54.838,55.904 C55.27,53.456 54.298,51.944 51.634,51.944 C49.222,51.944 47.71,53.384 47.206,54.896 L47.854,55.544 C48.502,54.86 49.402,54.428 50.338,54.716 L48.862,63.428 C48.25,67.136 50.41,68.36 52.498,68.36 C54.118,68.36 56.134,67.64 57.718,65.156 L57.862,65.156 C57.718,67.244 58.618,68.36 60.778,68.36 C63.262,68.36 64.774,67.1 65.494,65.372 L64.774,64.688 C64.09,65.444 63.01,65.732 62.326,65.372 L64.558,52.304 Z M74.638,55.544 C74.854,53.6 74.242,51.944 71.614,51.944 C69.454,51.944 67.762,53.168 67.186,54.932 L67.834,55.58 C68.518,54.824 69.346,54.464 70.282,54.716 L68.014,68 L72.766,68 L74.17,59.648 C75.25,57.416 76.402,55.868 77.482,55.112 C77.482,56.48 78.274,57.452 79.786,57.452 C81.334,57.452 82.45,56.372 82.45,54.716 C82.45,52.988 81.262,51.944 79.642,51.944 C77.518,51.944 76.006,53.276 74.674,56.732 L74.53,56.732 L74.638,55.544 Z M96.238,56.48 C97.102,55.508 98.038,54.896 99.118,54.896 C100.63,54.896 101.53,56.192 101.53,58.46 C101.53,62.852 99.694,66.524 96.742,66.524 C95.95,66.524 95.338,66.452 94.618,66.02 L96.238,56.48 Z M96.454,54.752 L98.434,43.484 L97.642,43.484 L91.702,44.492 L91.594,45.068 L93.214,46.724 L89.902,66.704 C91.558,67.748 94.114,68.36 96.562,68.36 C102.502,68.36 106.498,64.184 106.498,57.92 C106.498,54.068 104.302,51.944 101.278,51.944 C99.37,51.944 97.75,52.736 96.598,54.752 L96.454,54.752 Z M125.47,52.304 L120.646,52.628 L118.81,63.68 C117.802,64.688 116.758,65.336 115.642,65.336 C114.598,65.336 114.274,64.616 114.49,63.32 L115.75,55.904 C116.182,53.456 115.21,51.944 112.546,51.944 C110.134,51.944 108.622,53.384 108.118,54.896 L108.766,55.544 C109.414,54.86 110.314,54.428 111.25,54.716 L109.774,63.428 C109.162,67.136 111.322,68.36 113.41,68.36 C115.03,68.36 117.046,67.64 118.63,65.156 L118.774,65.156 C118.63,67.244 119.53,68.36 121.69,68.36 C124.174,68.36 125.686,67.1 126.406,65.372 L125.686,64.688 C125.002,65.444 123.922,65.732 123.238,65.372 L125.47,52.304 Z M131.158,66.056 C131.626,65.84 132.13,65.264 132.13,64.472 C132.13,63.284 131.374,62.492 130.078,62.492 C128.854,62.492 127.918,63.356 127.918,64.76 C127.918,66.848 129.934,68.36 133.426,68.36 C137.602,68.36 140.446,66.848 140.446,63.248 C140.446,60.8 139.114,59.54 136.054,58.1 C134.074,57.164 133.498,56.588 133.498,55.544 C133.498,54.212 134.65,53.6 136.162,53.6 C136.882,53.6 137.566,53.78 138.106,54.14 C137.53,54.392 137.242,55.04 137.242,55.652 C137.242,56.66 138.034,57.416 139.222,57.416 C140.338,57.416 141.274,56.696 141.274,55.364 C141.274,53.132 138.97,51.944 136.09,51.944 C132.562,51.944 129.538,53.312 129.538,57.092 C129.538,59.54 131.158,60.8 133.498,61.844 C135.694,62.852 136.342,63.5 136.342,64.796 C136.342,66.344 135.118,66.812 133.498,66.812 C132.418,66.812 131.518,66.488 131.158,66.056 L131.158,66.056 Z M150.13,56.372 C150.238,55.724 150.31,55.112 150.31,54.716 C150.31,52.988 149.23,51.944 147.034,51.944 C144.622,51.944 143.11,53.384 142.606,54.896 L143.254,55.544 C143.902,54.86 144.802,54.428 145.702,54.716 L144.154,63.86 C143.974,64.76 143.974,65.264 143.974,65.624 C144.01,67.352 145.09,68.36 147.178,68.36 C149.59,68.36 151.102,67.1 151.822,65.372 L151.102,64.688 C150.418,65.444 149.266,65.732 148.618,65.372 L150.13,56.372 Z M145.954,47.12 C145.954,48.704 147.178,49.892 148.726,49.892 C150.31,49.892 151.498,48.704 151.498,47.12 C151.498,45.536 150.31,44.348 148.726,44.348 C147.178,44.348 145.954,45.536 145.954,47.12 L145.954,47.12 Z M164.242,63.86 C164.098,64.76 164.062,65.264 164.062,65.624 C164.098,67.352 165.214,68.36 167.266,68.36 C169.678,68.36 171.19,67.1 171.91,65.372 L171.19,64.688 C170.506,65.444 169.39,65.732 168.706,65.372 L170.11,57.272 C170.182,56.804 170.218,56.372 170.218,55.904 C170.218,53.276 168.562,51.944 166.258,51.944 C164.206,51.944 162.334,53.132 161.074,55.256 L160.93,55.256 C161.074,53.276 160.246,51.944 157.834,51.944 C155.674,51.944 153.982,53.168 153.406,54.932 L154.054,55.58 C154.738,54.824 155.566,54.464 156.502,54.716 L154.234,68 L158.986,68 L160.858,56.948 C161.722,56.084 162.694,55.364 163.81,55.364 C164.998,55.364 165.574,56.12 165.322,57.776 L164.242,63.86 Z M188.002,56.228 C188.002,53.42 186.058,51.944 182.89,51.944 C177.382,51.944 173.89,56.228 173.89,61.556 C173.89,65.948 176.59,68.36 180.514,68.36 C183.682,68.36 186.058,67.352 187.426,64.22 L186.598,63.572 C185.086,65.012 184.006,65.66 182.17,65.66 C179.722,65.66 178.678,63.86 178.678,61.232 C184.366,61.232 188.002,60.116 188.002,56.228 L188.002,56.228 Z M182.638,53.708 C183.718,53.708 184.186,54.464 184.186,55.58 C184.186,58.388 182.386,59.648 178.786,59.72 C179.218,56.156 180.73,53.708 182.638,53.708 L182.638,53.708 Z M192.862,66.056 C193.33,65.84 193.834,65.264 193.834,64.472 C193.834,63.284 193.078,62.492 191.782,62.492 C190.558,62.492 189.622,63.356 189.622,64.76 C189.622,66.848 191.638,68.36 195.13,68.36 C199.306,68.36 202.15,66.848 202.15,63.248 C202.15,60.8 200.818,59.54 197.758,58.1 C195.778,57.164 195.202,56.588 195.202,55.544 C195.202,54.212 196.354,53.6 197.866,53.6 C198.586,53.6 199.27,53.78 199.81,54.14 C199.234,54.392 198.946,55.04 198.946,55.652 C198.946,56.66 199.738,57.416 200.926,57.416 C202.042,57.416 202.978,56.696 202.978,55.364 C202.978,53.132 200.674,51.944 197.794,51.944 C194.266,51.944 191.242,53.312 191.242,57.092 C191.242,59.54 192.862,60.8 195.202,61.844 C197.398,62.852 198.046,63.5 198.046,64.796 C198.046,66.344 196.822,66.812 195.202,66.812 C194.122,66.812 193.222,66.488 192.862,66.056 L192.862,66.056 Z M207.622,66.056 C208.09,65.84 208.594,65.264 208.594,64.472 C208.594,63.284 207.838,62.492 206.542,62.492 C205.318,62.492 204.382,63.356 204.382,64.76 C204.382,66.848 206.398,68.36 209.89,68.36 C214.066,68.36 216.91,66.848 216.91,63.248 C216.91,60.8 215.578,59.54 212.518,58.1 C210.538,57.164 209.962,56.588 209.962,55.544 C209.962,54.212 211.114,53.6 212.626,53.6 C213.346,53.6 214.03,53.78 214.57,54.14 C213.994,54.392 213.706,55.04 213.706,55.652 C213.706,56.66 214.498,57.416 215.686,57.416 C216.802,57.416 217.738,56.696 217.738,55.364 C217.738,53.132 215.434,51.944 212.554,51.944 C209.026,51.944 206.002,53.312 206.002,57.092 C206.002,59.54 207.622,60.8 209.962,61.844 C212.158,62.852 212.806,63.5 212.806,64.796 C212.806,66.344 211.582,66.812 209.962,66.812 C208.882,66.812 207.982,66.488 207.622,66.056 L207.622,66.056 Z M229.367719,64.7857105 C229.367719,65.3716487 228.882228,65.8571403 228.29629,65.8571403 C227.710351,65.8571403 227.22486,65.3716487 227.22486,64.7857105 C227.22486,64.1997723 227.710351,63.7142806 228.29629,63.7142806 C228.882228,63.7142806 229.367719,64.1997723 229.367719,64.7857105 L229.367719,64.7857105 Z M252.939176,55.1428418 C252.939176,56.2979771 251.951452,57.2857015 250.796316,57.2857015 L245.255015,57.2857015 C245.606578,57.6874877 245.840953,58.474319 245.840953,59.0100339 C245.840953,59.7968652 245.522873,60.4665089 244.953675,61.0022238 C245.154569,61.3537867 245.255015,61.7555729 245.255015,62.1573591 C245.255015,62.9274493 244.86997,63.8816915 244.166844,64.2667366 C244.217067,64.5680763 244.25055,64.886157 244.25055,65.2042377 C244.25055,67.2131687 242.961486,68 241.086483,68 C237.838712,68 234.975985,65.8571403 232.046294,65.8571403 L231.510579,65.8571403 L231.510579,55.1428418 L232.046294,55.1428418 C233.82085,55.1428418 235.009467,53.6361436 236.080897,52.4140439 C236.767282,51.6439537 237.403443,50.8738635 237.955899,49.9865857 C238.173533,49.6350228 238.374427,49.2667187 238.57532,48.8984147 C238.759472,48.5133696 239.613267,46.571403 240.082018,46.571403 C241.505011,46.571403 242.760593,47.107118 242.760593,48.7142627 C242.760593,50.8571224 241.153448,51.9452934 241.153448,52.9999821 L250.796316,52.9999821 C251.917969,52.9999821 252.939176,54.0044476 252.939176,55.1428418 L252.939176,55.1428418 Z M255.082036,55.1261007 C255.082036,52.8158301 253.106587,50.8571224 250.796316,50.8571224 L244.535148,50.8571224 C244.786265,50.1707377 244.903452,49.4508707 244.903452,48.7142627 C244.903452,45.8850183 242.743851,44.4285433 240.082018,44.4285433 C237.838712,44.4285433 237.118845,47.29127 236.147861,48.8481915 C235.645629,49.6350228 235.076432,50.3214075 234.473752,51.0077922 C233.988261,51.5602483 232.849866,52.9999821 232.046294,52.9999821 L227.22486,52.9999821 C226.036242,52.9999821 225.082,53.9542243 225.082,55.1428418 L225.082,65.8571403 C225.082,67.0457578 226.036242,68 227.22486,68 L232.046294,68 C233.100983,68 234.758351,68.6194204 235.779557,68.9877244 C237.520631,69.6238859 239.295187,70.1428597 241.170189,70.1428597 C244.267291,70.1428597 246.426892,68.2845986 246.393409,65.1205323 C247.046312,64.2834777 247.397875,63.2120479 247.397875,62.140618 C247.397875,61.9062427 247.381134,61.6551264 247.347652,61.4207511 C247.699214,60.8013307 247.916849,60.131687 247.967072,59.4285612 L250.796316,59.4285612 C253.140069,59.4285612 255.082036,57.4698535 255.082036,55.1261007 L255.082036,55.1261007 Z" id="Get-figures-for-your" fill="#FFFFFF"></path>
        </g>
    </g>
</svg>